<?xml version="1.0" standalone="no"?>
<!DOCTYPE svg PUBLIC "-//W3C//DTD SVG 1.1//EN"
"http://www.w3.org/Graphics/SVG/1.1/DTD/svg11.dtd">
<svg width="7.56in" height="5.76in" viewbox="0 0 756 576"
    xmlns="http://www.w3.org/2000/svg" version="1.1">
<title>
plots/ang.plt
</title>
<desc>
Creator: BTNRH PLT
Date: Sun Aug  2 06:51:18 2026
</desc>
<g style="stroke-linecap:round;stroke-linejoin:round">
<g id="page 1">
<clipPath id="cp1"> <path d="
M 0.0 0.0 0.0 576.0 756.0 576.0 756.0 0.0"/> </clipPath>
<path style="stroke:none;fill:#FFFFFF;" d="
M 0.0 0.0L 0.0 576.0L 756.0 576.0L 756.0 0.0"/>
<path style="fill:none;stroke:#000000;stroke-width:1.44;"
clip-path="url(#cp1)" d="
M 360.0 247.7
L 360.0 256.3
"/>
<path style="fill:none;stroke:#000000;stroke-width:1.44;"
clip-path="url(#cp1)" d="
M 355.7 252.0
L 364.3 252.0
"/>
<path style="fill:none;stroke:#000000;stroke-width:2.70;"
clip-path="url(#cp1)" d="
M 426.1 262.8
L 437.6 251.3
"/>
<path style="fill:none;stroke:#000000;stroke-width:2.70;"
clip-path="url(#cp1)" d="
M 440.0 241.2
L 437.6 251.3
L 455.5 241.2
"/>
<path style="fill:none;stroke:#000000;stroke-width:2.70;"
clip-path="url(#cp1)" d="
M 453.8 248.6
L 445.7 262.8
"/>
<path style="fill:none;stroke:#000000;stroke-width:2.70;"
clip-path="url(#cp1)" d="
M 466.0 248.6
L 439.0 267.5
C 436.7 269.0 434.2 269.9 432.6 269.9
"/>
<path style="fill:none;stroke:#000000;stroke-width:2.83;"
clip-path="url(#cp1)" d="
M 468.2 241.2
L 466.2 251.5
L 454.8 262.8
"/>
<path style="fill:none;stroke:#000000;stroke-width:2.83;"
clip-path="url(#cp1)" d="
M 484.7 241.2
L 466.2 251.5
"/>
<path style="fill:none;stroke:#000000;stroke-width:2.83;"
clip-path="url(#cp1)" d="
M 480.6 248.4
L 472.3 262.8
"/>
<path style="fill:none;stroke:#000000;stroke-width:2.83;"
clip-path="url(#cp1)" d="
M 492.9 248.4
L 472.3 262.8
L 466.2 266.9
L 462.0 269.0
L 459.0 270.0
L 457.9 270.0
"/>
<path style="fill:none;stroke:#000000;stroke-width:2.70;"
clip-path="url(#cp1)" d="
M 503.6 252.0
L 519.2 252.0
"/>
<path style="fill:none;stroke:#000000;stroke-width:2.83;"
clip-path="url(#cp1)" d="
M 515.5 253.5
L 534.0 253.5
"/>
<path style="fill:none;stroke:#000000;stroke-width:2.70;"
clip-path="url(#cp1)" d="
M 552.0 252.0
L 567.5 252.0
"/>
<path style="fill:none;stroke:#000000;stroke-width:2.70;"
clip-path="url(#cp1)" d="
M 402.4 200.1
L 398.2 184.4
"/>
<path style="fill:none;stroke:#000000;stroke-width:2.70;"
clip-path="url(#cp1)" d="
M 390.6 177.3
L 398.2 184.4
L 398.4 163.9
"/>
<path style="fill:none;stroke:#000000;stroke-width:2.70;"
clip-path="url(#cp1)" d="
M 404.0 169.1
L 412.2 183.2
"/>
<path style="fill:none;stroke:#000000;stroke-width:2.70;"
clip-path="url(#cp1)" d="
M 410.1 158.5
L 412.9 191.4
C 413.1 194.1 412.6 196.7 411.8 198.1
"/>
<path style="fill:none;stroke:#000000;stroke-width:2.83;"
clip-path="url(#cp1)" d="
M 404.8 152.9
L 412.6 159.8
L 416.8 175.3
"/>
<path style="fill:none;stroke:#000000;stroke-width:2.83;"
clip-path="url(#cp1)" d="
M 413.0 138.6
L 412.6 159.8
"/>
<path style="fill:none;stroke:#000000;stroke-width:2.83;"
clip-path="url(#cp1)" d="
M 417.2 145.8
L 425.5 160.1
"/>
<path style="fill:none;stroke:#000000;stroke-width:2.83;"
clip-path="url(#cp1)" d="
M 423.3 135.1
L 425.5 160.1
L 426.0 167.5
L 425.7 172.1
L 425.1 175.3
L 424.6 176.2
"/>
<path style="fill:none;stroke:#000000;stroke-width:2.70;"
clip-path="url(#cp1)" d="
M 431.8 127.6
L 439.6 114.2
"/>
<path style="fill:none;stroke:#000000;stroke-width:2.83;"
clip-path="url(#cp1)" d="
M 439.1 118.1
L 448.4 102.1
"/>
<path style="fill:none;stroke:#000000;stroke-width:2.70;"
clip-path="url(#cp1)" d="
M 456.0 85.7
L 463.8 72.3
"/>
<path style="fill:none;stroke:#000000;stroke-width:2.70;"
clip-path="url(#cp1)" d="
M 336.3 189.3
L 320.6 185.1
"/>
<path style="fill:none;stroke:#000000;stroke-width:2.70;"
clip-path="url(#cp1)" d="
M 310.7 188.1
L 320.6 185.1
L 302.9 174.7
"/>
<path style="fill:none;stroke:#000000;stroke-width:2.70;"
clip-path="url(#cp1)" d="
M 310.2 172.4
L 326.5 172.4
"/>
<path style="fill:none;stroke:#000000;stroke-width:2.70;"
clip-path="url(#cp1)" d="
M 304.1 161.9
L 334.0 175.8
C 336.4 177.1 338.4 178.8 339.2 180.2
"/>
<path style="fill:none;stroke:#000000;stroke-width:2.83;"
clip-path="url(#cp1)" d="
M 296.5 163.7
L 306.5 160.3
L 321.9 164.5
"/>
<path style="fill:none;stroke:#000000;stroke-width:2.83;"
clip-path="url(#cp1)" d="
M 288.3 149.4
L 306.5 160.3
"/>
<path style="fill:none;stroke:#000000;stroke-width:2.83;"
clip-path="url(#cp1)" d="
M 296.6 149.4
L 313.2 149.3
"/>
<path style="fill:none;stroke:#000000;stroke-width:2.83;"
clip-path="url(#cp1)" d="
M 290.4 138.7
L 313.2 149.3
L 319.8 152.6
L 323.7 155.1
L 326.1 157.3
L 326.6 158.2
"/>
<path style="fill:none;stroke:#000000;stroke-width:2.70;"
clip-path="url(#cp1)" d="
M 288.2 127.6
L 280.4 114.2
"/>
<path style="fill:none;stroke:#000000;stroke-width:2.83;"
clip-path="url(#cp1)" d="
M 283.6 116.5
L 274.3 100.5
"/>
<path style="fill:none;stroke:#000000;stroke-width:2.70;"
clip-path="url(#cp1)" d="
M 264.0 85.7
L 256.2 72.3
"/>
<path style="fill:none;stroke:#000000;stroke-width:2.70;"
clip-path="url(#cp1)" d="
M 293.9 241.2
L 282.4 252.7
"/>
<path style="fill:none;stroke:#000000;stroke-width:2.70;"
clip-path="url(#cp1)" d="
M 280.0 262.8
L 282.4 252.7
L 264.5 262.8
"/>
<path style="fill:none;stroke:#000000;stroke-width:2.70;"
clip-path="url(#cp1)" d="
M 266.2 255.4
L 274.3 241.2
"/>
<path style="fill:none;stroke:#000000;stroke-width:2.70;"
clip-path="url(#cp1)" d="
M 254.0 255.4
L 281.0 236.5
C 283.3 235.0 285.8 234.1 287.4 234.1
"/>
<path style="fill:none;stroke:#000000;stroke-width:2.83;"
clip-path="url(#cp1)" d="
M 251.8 262.8
L 253.8 252.5
L 265.2 241.2
"/>
<path style="fill:none;stroke:#000000;stroke-width:2.83;"
clip-path="url(#cp1)" d="
M 235.3 262.8
L 253.8 252.5
"/>
<path style="fill:none;stroke:#000000;stroke-width:2.83;"
clip-path="url(#cp1)" d="
M 239.4 255.6
L 247.7 241.2
"/>
<path style="fill:none;stroke:#000000;stroke-width:2.83;"
clip-path="url(#cp1)" d="
M 227.1 255.6
L 247.7 241.2
L 253.8 237.1
L 258.0 235.0
L 261.0 234.0
L 262.1 234.0
"/>
<path style="fill:none;stroke:#000000;stroke-width:2.70;"
clip-path="url(#cp1)" d="
M 216.4 252.0
L 200.8 252.0
"/>
<path style="fill:none;stroke:#000000;stroke-width:2.83;"
clip-path="url(#cp1)" d="
M 204.5 250.5
L 186.0 250.5
"/>
<path style="fill:none;stroke:#000000;stroke-width:2.70;"
clip-path="url(#cp1)" d="
M 168.0 252.0
L 152.5 252.0
"/>
<path style="fill:none;stroke:#000000;stroke-width:2.70;"
clip-path="url(#cp1)" d="
M 317.6 303.9
L 321.8 319.6
"/>
<path style="fill:none;stroke:#000000;stroke-width:2.70;"
clip-path="url(#cp1)" d="
M 329.4 326.7
L 321.8 319.6
L 321.6 340.1
"/>
<path style="fill:none;stroke:#000000;stroke-width:2.70;"
clip-path="url(#cp1)" d="
M 316.0 334.9
L 307.8 320.8
"/>
<path style="fill:none;stroke:#000000;stroke-width:2.70;"
clip-path="url(#cp1)" d="
M 309.9 345.5
L 307.1 312.6
C 306.9 309.9 307.4 307.3 308.2 305.9
"/>
<path style="fill:none;stroke:#000000;stroke-width:2.83;"
clip-path="url(#cp1)" d="
M 315.2 351.1
L 307.4 344.2
L 303.2 328.7
"/>
<path style="fill:none;stroke:#000000;stroke-width:2.83;"
clip-path="url(#cp1)" d="
M 307.0 365.4
L 307.4 344.2
"/>
<path style="fill:none;stroke:#000000;stroke-width:2.83;"
clip-path="url(#cp1)" d="
M 302.8 358.2
L 294.5 343.9
"/>
<path style="fill:none;stroke:#000000;stroke-width:2.83;"
clip-path="url(#cp1)" d="
M 296.7 368.9
L 294.5 343.9
L 294.0 336.5
L 294.3 331.9
L 294.9 328.7
L 295.4 327.8
"/>
<path style="fill:none;stroke:#000000;stroke-width:2.70;"
clip-path="url(#cp1)" d="
M 288.2 376.4
L 280.4 389.8
"/>
<path style="fill:none;stroke:#000000;stroke-width:2.83;"
clip-path="url(#cp1)" d="
M 280.9 385.9
L 271.6 401.9
"/>
<path style="fill:none;stroke:#000000;stroke-width:2.70;"
clip-path="url(#cp1)" d="
M 264.0 418.3
L 256.2 431.7
"/>
</g><!-- page 1 -->
</g><!-- EOF -->
</svg>
