<?xml version="1.0" standalone="no"?>
<!DOCTYPE svg PUBLIC "-//W3C//DTD SVG 1.1//EN"
"http://www.w3.org/Graphics/SVG/1.1/DTD/svg11.dtd">
<svg width="7.56in" height="5.76in" viewbox="0 0 756 576"
    xmlns="http://www.w3.org/2000/svg" version="1.1">
<title>
plots/blockdiagram.plt
</title>
<desc>
Creator: BTNRH PLT
Date: Sun Aug  2 06:51:18 2026
</desc>
<g style="stroke-linecap:round;stroke-linejoin:round">
<g id="page 1">
<clipPath id="cp1"> <path d="
M 0.0 0.0 0.0 576.0 756.0 576.0 756.0 0.0"/> </clipPath>
<path style="stroke:none;fill:#FFFFFF;" d="
M 0.0 0.0L 0.0 576.0L 756.0 576.0L 756.0 0.0"/>
<path style="fill:none;stroke:#000000;stroke-width:1.44;"
clip-path="url(#cp1)" d="
M 187.2 424.8
L 252.0 424.8
L 252.0 165.6
L 187.2 165.6
L 187.2 424.8
"/>
<path style="fill:none;stroke:#000000;stroke-width:1.44;"
clip-path="url(#cp1)" d="
M 295.2 424.8
L 360.0 424.8
L 360.0 165.6
L 295.2 165.6
L 295.2 424.8
"/>
<path style="stroke:none;fill:#FFFFFF;"
clip-path="url(#cp1)" d="
M 533.9 295.2
L 533.8 292.9
L 533.4 290.6
L 532.9 288.5
L 532.1 286.4
L 531.1 284.4
L 530.0 282.5
L 528.7 280.8
L 527.2 279.2
L 525.6 277.7
L 523.9 276.4
L 522.0 275.3
L 520.0 274.3
L 517.9 273.5
L 515.8 273.0
L 513.5 272.6
L 511.2 272.5
L 508.9 272.6
L 506.6 273.0
L 504.5 273.5
L 502.4 274.3
L 500.4 275.3
L 498.5 276.4
L 496.8 277.7
L 495.2 279.2
L 493.7 280.8
L 492.4 282.5
L 491.3 284.4
L 490.3 286.4
L 489.5 288.5
L 489.0 290.6
L 488.6 292.9
L 488.5 295.2
L 488.6 297.5
L 489.0 299.8
L 489.5 301.9
L 490.3 304.0
L 491.3 306.0
L 492.4 307.9
L 493.7 309.6
L 495.2 311.2
L 496.8 312.7
L 498.5 314.0
L 500.4 315.1
L 502.4 316.1
L 504.5 316.9
L 506.6 317.4
L 508.9 317.8
L 511.2 317.9
L 513.5 317.8
L 515.8 317.4
L 517.9 316.9
L 520.0 316.1
L 522.0 315.1
L 523.9 314.0
L 525.6 312.7
L 527.2 311.2
L 528.7 309.6
L 530.0 307.9
L 531.1 306.0
L 532.1 304.0
L 532.9 301.9
L 533.4 299.8
L 533.8 297.5
L 533.9 295.2
"/>
<path style="fill:none;stroke:#000000;stroke-width:1.44;"
clip-path="url(#cp1)" d="
M 533.9 295.2
C 533.9 282.7 523.7 272.5 511.2 272.5
C 498.7 272.5 488.5 282.7 488.5 295.2
C 488.5 307.7 498.7 317.9 511.2 317.9
C 523.7 317.9 533.9 307.7 533.9 295.2
"/>
<path style="fill:none;stroke:#000000;stroke-width:1.44;"
clip-path="url(#cp1)" d="
M 122.4 295.2
L 187.2 295.2
"/>
<path style="stroke:none;fill:#000000;"
clip-path="url(#cp1)" d="
M 186.1 295.2
L 176.4 292.5
L 187.2 295.2
L 176.4 297.9
L 186.1 295.2
"/>
<path style="fill:none;stroke:#000000;stroke-width:1.44;"
clip-path="url(#cp1)" d="
M 186.1 295.2
L 176.4 292.5
L 187.2 295.2
L 176.4 297.9
L 186.1 295.2
L 186.1 295.2
"/>
<path style="fill:none;stroke:#000000;stroke-width:1.44;"
clip-path="url(#cp1)" d="
M 252.0 187.2
L 295.2 187.2
"/>
<path style="stroke:none;fill:#000000;"
clip-path="url(#cp1)" d="
M 294.1 187.2
L 284.4 184.5
L 295.2 187.2
L 284.4 189.9
L 294.1 187.2
"/>
<path style="fill:none;stroke:#000000;stroke-width:1.44;"
clip-path="url(#cp1)" d="
M 294.1 187.2
L 284.4 184.5
L 295.2 187.2
L 284.4 189.9
L 294.1 187.2
L 294.1 187.2
"/>
<path style="fill:none;stroke:#000000;stroke-width:1.44;"
clip-path="url(#cp1)" d="
M 252.0 230.4
L 295.2 230.4
"/>
<path style="stroke:none;fill:#000000;"
clip-path="url(#cp1)" d="
M 294.1 230.4
L 284.4 227.7
L 295.2 230.4
L 284.4 233.1
L 294.1 230.4
"/>
<path style="fill:none;stroke:#000000;stroke-width:1.44;"
clip-path="url(#cp1)" d="
M 294.1 230.4
L 284.4 227.7
L 295.2 230.4
L 284.4 233.1
L 294.1 230.4
L 294.1 230.4
"/>
<path style="fill:none;stroke:#000000;stroke-width:1.44;"
clip-path="url(#cp1)" d="
M 252.0 273.6
L 295.2 273.6
"/>
<path style="stroke:none;fill:#000000;"
clip-path="url(#cp1)" d="
M 294.1 273.6
L 284.4 270.9
L 295.2 273.6
L 284.4 276.3
L 294.1 273.6
"/>
<path style="fill:none;stroke:#000000;stroke-width:1.44;"
clip-path="url(#cp1)" d="
M 294.1 273.6
L 284.4 270.9
L 295.2 273.6
L 284.4 276.3
L 294.1 273.6
L 294.1 273.6
"/>
<path style="fill:none;stroke:#000000;stroke-width:1.44;"
clip-path="url(#cp1)" d="
M 252.0 403.2
L 295.2 403.2
"/>
<path style="stroke:none;fill:#000000;"
clip-path="url(#cp1)" d="
M 294.1 403.2
L 284.4 400.5
L 295.2 403.2
L 284.4 405.9
L 294.1 403.2
"/>
<path style="fill:none;stroke:#000000;stroke-width:1.44;"
clip-path="url(#cp1)" d="
M 294.1 403.2
L 284.4 400.5
L 295.2 403.2
L 284.4 405.9
L 294.1 403.2
L 294.1 403.2
"/>
<path style="fill:none;stroke:#000000;stroke-width:1.44;"
clip-path="url(#cp1)" d="
M 533.7 295.2
L 597.6 295.2
"/>
<path style="stroke:none;fill:#000000;"
clip-path="url(#cp1)" d="
M 596.5 295.2
L 586.8 292.5
L 597.6 295.2
L 586.8 297.9
L 596.5 295.2
"/>
<path style="fill:none;stroke:#000000;stroke-width:1.44;"
clip-path="url(#cp1)" d="
M 596.5 295.2
L 586.8 292.5
L 597.6 295.2
L 586.8 297.9
L 596.5 295.2
L 596.5 295.2
"/>
<path style="fill:none;stroke:#000000;stroke-width:1.44;"
clip-path="url(#cp1)" d="
M 360.0 187.2
L 403.2 187.2
"/>
<path style="fill:none;stroke:#000000;stroke-width:1.44;"
clip-path="url(#cp1)" d="
M 360.0 230.4
L 403.2 230.4
"/>
<path style="fill:none;stroke:#000000;stroke-width:1.44;"
clip-path="url(#cp1)" d="
M 360.0 273.6
L 403.2 273.6
"/>
<path style="fill:none;stroke:#000000;stroke-width:1.44;"
clip-path="url(#cp1)" d="
M 360.0 403.2
L 403.2 403.2
"/>
<path style="fill:none;stroke:#000000;stroke-width:1.44;"
clip-path="url(#cp1)" d="
M 403.2 186.8
L 493.9 278.4
"/>
<path style="stroke:none;fill:#000000;"
clip-path="url(#cp1)" d="
M 493.2 277.6
L 488.2 268.8
L 493.9 278.4
L 484.4 272.6
L 493.2 277.6
"/>
<path style="fill:none;stroke:#000000;stroke-width:1.44;"
clip-path="url(#cp1)" d="
M 493.2 277.6
L 488.2 268.8
L 493.9 278.4
L 484.4 272.6
L 493.2 277.6
L 493.2 277.6
"/>
<path style="fill:none;stroke:#000000;stroke-width:1.44;"
clip-path="url(#cp1)" d="
M 403.2 230.4
L 490.0 284.4
"/>
<path style="stroke:none;fill:#000000;"
clip-path="url(#cp1)" d="
M 489.1 283.8
L 482.3 276.4
L 490.0 284.4
L 479.4 281.0
L 489.1 283.8
"/>
<path style="fill:none;stroke:#000000;stroke-width:1.44;"
clip-path="url(#cp1)" d="
M 489.1 283.8
L 482.3 276.4
L 490.0 284.4
L 479.4 281.0
L 489.1 283.8
L 489.1 283.8
"/>
<path style="fill:none;stroke:#000000;stroke-width:1.44;"
clip-path="url(#cp1)" d="
M 403.2 273.6
L 487.4 290.9
"/>
<path style="stroke:none;fill:#000000;"
clip-path="url(#cp1)" d="
M 486.4 290.7
L 477.4 286.1
L 487.4 290.9
L 476.3 291.4
L 486.4 290.7
"/>
<path style="fill:none;stroke:#000000;stroke-width:1.44;"
clip-path="url(#cp1)" d="
M 486.4 290.7
L 477.4 286.1
L 487.4 290.9
L 476.3 291.4
L 486.4 290.7
L 486.4 290.7
"/>
<path style="fill:none;stroke:#000000;stroke-width:1.44;"
clip-path="url(#cp1)" d="
M 403.2 402.8
L 493.9 312.0
"/>
<path style="stroke:none;fill:#000000;"
clip-path="url(#cp1)" d="
M 493.2 312.8
L 484.4 317.8
L 493.9 312.0
L 488.2 321.6
L 493.2 312.8
"/>
<path style="fill:none;stroke:#000000;stroke-width:1.44;"
clip-path="url(#cp1)" d="
M 493.2 312.8
L 484.4 317.8
L 493.9 312.0
L 488.2 321.6
L 493.2 312.8
L 493.2 312.8
"/>
<path style="stroke:none;fill:#000000;"
clip-path="url(#cp1)" d="
M 275.9 360.0
L 275.9 359.8
L 275.8 359.5
L 275.8 359.3
L 275.7 359.1
L 275.6 358.9
L 275.5 358.7
L 275.4 358.6
L 275.2 358.4
L 275.0 358.2
L 274.9 358.1
L 274.7 358.0
L 274.5 357.9
L 274.3 357.8
L 274.1 357.8
L 273.8 357.7
L 273.6 357.7
L 273.4 357.7
L 273.1 357.8
L 272.9 357.8
L 272.7 357.9
L 272.5 358.0
L 272.3 358.1
L 272.2 358.2
L 272.0 358.4
L 271.8 358.6
L 271.7 358.7
L 271.6 358.9
L 271.5 359.1
L 271.4 359.3
L 271.4 359.5
L 271.3 359.8
L 271.3 360.0
L 271.3 360.2
L 271.4 360.5
L 271.4 360.7
L 271.5 360.9
L 271.6 361.1
L 271.7 361.3
L 271.8 361.4
L 272.0 361.6
L 272.2 361.8
L 272.3 361.9
L 272.5 362.0
L 272.7 362.1
L 272.9 362.2
L 273.1 362.2
L 273.4 362.3
L 273.6 362.3
L 273.8 362.3
L 274.1 362.2
L 274.3 362.2
L 274.5 362.1
L 274.7 362.0
L 274.9 361.9
L 275.0 361.8
L 275.2 361.6
L 275.4 361.4
L 275.5 361.3
L 275.6 361.1
L 275.7 360.9
L 275.8 360.7
L 275.8 360.5
L 275.9 360.2
L 275.9 360.0
"/>
<path style="fill:none;stroke:#000000;stroke-width:1.44;"
clip-path="url(#cp1)" d="
M 275.9 360.0
C 275.9 358.7 274.9 357.7 273.6 357.7
C 272.3 357.7 271.3 358.7 271.3 360.0
C 271.3 361.3 272.3 362.3 273.6 362.3
C 274.9 362.3 275.9 361.3 275.9 360.0
"/>
<path style="stroke:none;fill:#000000;"
clip-path="url(#cp1)" d="
M 275.9 338.4
L 275.9 338.2
L 275.8 337.9
L 275.8 337.7
L 275.7 337.5
L 275.6 337.3
L 275.5 337.1
L 275.4 337.0
L 275.2 336.8
L 275.0 336.6
L 274.9 336.5
L 274.7 336.4
L 274.5 336.3
L 274.3 336.2
L 274.1 336.2
L 273.8 336.1
L 273.6 336.1
L 273.4 336.1
L 273.1 336.2
L 272.9 336.2
L 272.7 336.3
L 272.5 336.4
L 272.3 336.5
L 272.2 336.6
L 272.0 336.8
L 271.8 337.0
L 271.7 337.1
L 271.6 337.3
L 271.5 337.5
L 271.4 337.7
L 271.4 337.9
L 271.3 338.2
L 271.3 338.4
L 271.3 338.6
L 271.4 338.9
L 271.4 339.1
L 271.5 339.3
L 271.6 339.5
L 271.7 339.7
L 271.8 339.8
L 272.0 340.0
L 272.2 340.2
L 272.3 340.3
L 272.5 340.4
L 272.7 340.5
L 272.9 340.6
L 273.1 340.6
L 273.4 340.7
L 273.6 340.7
L 273.8 340.7
L 274.1 340.6
L 274.3 340.6
L 274.5 340.5
L 274.7 340.4
L 274.9 340.3
L 275.0 340.2
L 275.2 340.0
L 275.4 339.8
L 275.5 339.7
L 275.6 339.5
L 275.7 339.3
L 275.8 339.1
L 275.8 338.9
L 275.9 338.6
L 275.9 338.4
"/>
<path style="fill:none;stroke:#000000;stroke-width:1.44;"
clip-path="url(#cp1)" d="
M 275.9 338.4
C 275.9 337.1 274.9 336.1 273.6 336.1
C 272.3 336.1 271.3 337.1 271.3 338.4
C 271.3 339.7 272.3 340.7 273.6 340.7
C 274.9 340.7 275.9 339.7 275.9 338.4
"/>
<path style="stroke:none;fill:#000000;"
clip-path="url(#cp1)" d="
M 275.9 316.8
L 275.9 316.6
L 275.8 316.3
L 275.8 316.1
L 275.7 315.9
L 275.6 315.7
L 275.5 315.5
L 275.4 315.4
L 275.2 315.2
L 275.0 315.0
L 274.9 314.9
L 274.7 314.8
L 274.5 314.7
L 274.3 314.6
L 274.1 314.6
L 273.8 314.5
L 273.6 314.5
L 273.4 314.5
L 273.1 314.6
L 272.9 314.6
L 272.7 314.7
L 272.5 314.8
L 272.3 314.9
L 272.2 315.0
L 272.0 315.2
L 271.8 315.4
L 271.7 315.5
L 271.6 315.7
L 271.5 315.9
L 271.4 316.1
L 271.4 316.3
L 271.3 316.6
L 271.3 316.8
L 271.3 317.0
L 271.4 317.3
L 271.4 317.5
L 271.5 317.7
L 271.6 317.9
L 271.7 318.1
L 271.8 318.2
L 272.0 318.4
L 272.2 318.6
L 272.3 318.7
L 272.5 318.8
L 272.7 318.9
L 272.9 319.0
L 273.1 319.0
L 273.4 319.1
L 273.6 319.1
L 273.8 319.1
L 274.1 319.0
L 274.3 319.0
L 274.5 318.9
L 274.7 318.8
L 274.9 318.7
L 275.0 318.6
L 275.2 318.4
L 275.4 318.2
L 275.5 318.1
L 275.6 317.9
L 275.7 317.7
L 275.8 317.5
L 275.8 317.3
L 275.9 317.0
L 275.9 316.8
"/>
<path style="fill:none;stroke:#000000;stroke-width:1.44;"
clip-path="url(#cp1)" d="
M 275.9 316.8
C 275.9 315.5 274.9 314.5 273.6 314.5
C 272.3 314.5 271.3 315.5 271.3 316.8
C 271.3 318.1 272.3 319.1 273.6 319.1
C 274.9 319.1 275.9 318.1 275.9 316.8
"/>
<path style="stroke:none;fill:#000000;"
clip-path="url(#cp1)" d="
M 383.9 360.0
L 383.9 359.8
L 383.8 359.5
L 383.8 359.3
L 383.7 359.1
L 383.6 358.9
L 383.5 358.7
L 383.4 358.6
L 383.2 358.4
L 383.0 358.2
L 382.9 358.1
L 382.7 358.0
L 382.5 357.9
L 382.3 357.8
L 382.1 357.8
L 381.8 357.7
L 381.6 357.7
L 381.4 357.7
L 381.1 357.8
L 380.9 357.8
L 380.7 357.9
L 380.5 358.0
L 380.3 358.1
L 380.2 358.2
L 380.0 358.4
L 379.8 358.6
L 379.7 358.7
L 379.6 358.9
L 379.5 359.1
L 379.4 359.3
L 379.4 359.5
L 379.3 359.8
L 379.3 360.0
L 379.3 360.2
L 379.4 360.5
L 379.4 360.7
L 379.5 360.9
L 379.6 361.1
L 379.7 361.3
L 379.8 361.4
L 380.0 361.6
L 380.2 361.8
L 380.3 361.9
L 380.5 362.0
L 380.7 362.1
L 380.9 362.2
L 381.1 362.2
L 381.4 362.3
L 381.6 362.3
L 381.8 362.3
L 382.1 362.2
L 382.3 362.2
L 382.5 362.1
L 382.7 362.0
L 382.9 361.9
L 383.0 361.8
L 383.2 361.6
L 383.4 361.4
L 383.5 361.3
L 383.6 361.1
L 383.7 360.9
L 383.8 360.7
L 383.8 360.5
L 383.9 360.2
L 383.9 360.0
"/>
<path style="fill:none;stroke:#000000;stroke-width:1.44;"
clip-path="url(#cp1)" d="
M 383.9 360.0
C 383.9 358.7 382.9 357.7 381.6 357.7
C 380.3 357.7 379.3 358.7 379.3 360.0
C 379.3 361.3 380.3 362.3 381.6 362.3
C 382.9 362.3 383.9 361.3 383.9 360.0
"/>
<path style="stroke:none;fill:#000000;"
clip-path="url(#cp1)" d="
M 383.9 338.4
L 383.9 338.2
L 383.8 337.9
L 383.8 337.7
L 383.7 337.5
L 383.6 337.3
L 383.5 337.1
L 383.4 337.0
L 383.2 336.8
L 383.0 336.6
L 382.9 336.5
L 382.7 336.4
L 382.5 336.3
L 382.3 336.2
L 382.1 336.2
L 381.8 336.1
L 381.6 336.1
L 381.4 336.1
L 381.1 336.2
L 380.9 336.2
L 380.7 336.3
L 380.5 336.4
L 380.3 336.5
L 380.2 336.6
L 380.0 336.8
L 379.8 337.0
L 379.7 337.1
L 379.6 337.3
L 379.5 337.5
L 379.4 337.7
L 379.4 337.9
L 379.3 338.2
L 379.3 338.4
L 379.3 338.6
L 379.4 338.9
L 379.4 339.1
L 379.5 339.3
L 379.6 339.5
L 379.7 339.7
L 379.8 339.8
L 380.0 340.0
L 380.2 340.2
L 380.3 340.3
L 380.5 340.4
L 380.7 340.5
L 380.9 340.6
L 381.1 340.6
L 381.4 340.7
L 381.6 340.7
L 381.8 340.7
L 382.1 340.6
L 382.3 340.6
L 382.5 340.5
L 382.7 340.4
L 382.9 340.3
L 383.0 340.2
L 383.2 340.0
L 383.4 339.8
L 383.5 339.7
L 383.6 339.5
L 383.7 339.3
L 383.8 339.1
L 383.8 338.9
L 383.9 338.6
L 383.9 338.4
"/>
<path style="fill:none;stroke:#000000;stroke-width:1.44;"
clip-path="url(#cp1)" d="
M 383.9 338.4
C 383.9 337.1 382.9 336.1 381.6 336.1
C 380.3 336.1 379.3 337.1 379.3 338.4
C 379.3 339.7 380.3 340.7 381.6 340.7
C 382.9 340.7 383.9 339.7 383.9 338.4
"/>
<path style="stroke:none;fill:#000000;"
clip-path="url(#cp1)" d="
M 383.9 316.8
L 383.9 316.6
L 383.8 316.3
L 383.8 316.1
L 383.7 315.9
L 383.6 315.7
L 383.5 315.5
L 383.4 315.4
L 383.2 315.2
L 383.0 315.0
L 382.9 314.9
L 382.7 314.8
L 382.5 314.7
L 382.3 314.6
L 382.1 314.6
L 381.8 314.5
L 381.6 314.5
L 381.4 314.5
L 381.1 314.6
L 380.9 314.6
L 380.7 314.7
L 380.5 314.8
L 380.3 314.9
L 380.2 315.0
L 380.0 315.2
L 379.8 315.4
L 379.7 315.5
L 379.6 315.7
L 379.5 315.9
L 379.4 316.1
L 379.4 316.3
L 379.3 316.6
L 379.3 316.8
L 379.3 317.0
L 379.4 317.3
L 379.4 317.5
L 379.5 317.7
L 379.6 317.9
L 379.7 318.1
L 379.8 318.2
L 380.0 318.4
L 380.2 318.6
L 380.3 318.7
L 380.5 318.8
L 380.7 318.9
L 380.9 319.0
L 381.1 319.0
L 381.4 319.1
L 381.6 319.1
L 381.8 319.1
L 382.1 319.0
L 382.3 319.0
L 382.5 318.9
L 382.7 318.8
L 382.9 318.7
L 383.0 318.6
L 383.2 318.4
L 383.4 318.2
L 383.5 318.1
L 383.6 317.9
L 383.7 317.7
L 383.8 317.5
L 383.8 317.3
L 383.9 317.0
L 383.9 316.8
"/>
<path style="fill:none;stroke:#000000;stroke-width:1.44;"
clip-path="url(#cp1)" d="
M 383.9 316.8
C 383.9 315.5 382.9 314.5 381.6 314.5
C 380.3 314.5 379.3 315.5 379.3 316.8
C 379.3 318.1 380.3 319.1 381.6 319.1
C 382.9 319.1 383.9 318.1 383.9 316.8
"/>
<path style="fill:none;stroke:#000000;stroke-width:1.62;"
clip-path="url(#cp1)" d="
M 123.2 280.1
L 123.2 271.6
"/>
<path style="fill:none;stroke:#000000;stroke-width:1.62;"
clip-path="url(#cp1)" d="
M 122.8 267.5
C 122.8 267.7 123.0 267.9 123.2 267.9
C 123.5 267.9 123.6 267.7 123.6 267.5
C 123.6 267.3 123.5 267.1 123.2 267.1
C 123.0 267.1 122.8 267.3 122.8 267.5
"/>
<path style="fill:none;stroke:#000000;stroke-width:1.62;"
clip-path="url(#cp1)" d="
M 127.3 280.1
L 127.3 271.6
"/>
<path style="fill:none;stroke:#000000;stroke-width:1.62;"
clip-path="url(#cp1)" d="
M 127.3 275.2
C 127.3 273.2 128.9 271.6 130.9 271.6
C 133.0 271.6 134.6 273.2 134.6 275.2
L 134.6 280.1
"/>
<path style="fill:none;stroke:#000000;stroke-width:1.62;"
clip-path="url(#cp1)" d="
M 138.2 273.0
C 139.4 271.7 141.3 271.2 142.9 271.9
C 144.5 272.5 145.6 274.1 145.6 275.8
C 145.6 277.6 144.5 279.2 142.9 279.8
C 141.3 280.4 139.4 280.0 138.2 278.7
"/>
<path style="fill:none;stroke:#000000;stroke-width:1.62;"
clip-path="url(#cp1)" d="
M 138.2 271.6
L 138.2 284.3
"/>
<path style="fill:none;stroke:#000000;stroke-width:1.62;"
clip-path="url(#cp1)" d="
M 149.2 271.6
L 149.2 276.4
C 149.2 278.4 150.8 280.1 152.8 280.1
C 154.8 280.1 156.5 278.4 156.5 276.4
"/>
<path style="fill:none;stroke:#000000;stroke-width:1.62;"
clip-path="url(#cp1)" d="
M 156.5 271.6
L 156.5 280.1
"/>
<path style="fill:none;stroke:#000000;stroke-width:1.62;"
clip-path="url(#cp1)" d="
M 162.5 267.1
L 162.5 280.1
"/>
<path style="fill:none;stroke:#000000;stroke-width:1.62;"
clip-path="url(#cp1)" d="
M 160.1 271.6
L 165.0 271.6
"/>
<path style="fill:none;stroke:#000000;stroke-width:1.62;"
clip-path="url(#cp1)" d="
M 547.2 275.2
C 547.2 273.2 548.9 271.6 550.9 271.6
C 552.9 271.6 554.5 273.2 554.5 275.2
L 554.5 276.4
C 554.5 278.4 552.9 280.1 550.9 280.1
C 548.9 280.1 547.2 278.4 547.2 276.4
L 547.2 275.2
"/>
<path style="fill:none;stroke:#000000;stroke-width:1.62;"
clip-path="url(#cp1)" d="
M 558.2 271.6
L 558.2 276.4
C 558.2 278.4 559.8 280.1 561.8 280.1
C 563.8 280.1 565.5 278.4 565.5 276.4
"/>
<path style="fill:none;stroke:#000000;stroke-width:1.62;"
clip-path="url(#cp1)" d="
M 565.5 271.6
L 565.5 280.1
"/>
<path style="fill:none;stroke:#000000;stroke-width:1.62;"
clip-path="url(#cp1)" d="
M 571.5 267.1
L 571.5 280.1
"/>
<path style="fill:none;stroke:#000000;stroke-width:1.62;"
clip-path="url(#cp1)" d="
M 569.1 271.6
L 574.0 271.6
"/>
<path style="fill:none;stroke:#000000;stroke-width:1.62;"
clip-path="url(#cp1)" d="
M 577.8 273.0
C 579.0 271.7 580.9 271.2 582.5 271.9
C 584.1 272.5 585.2 274.1 585.2 275.8
C 585.2 277.6 584.1 279.2 582.5 279.8
C 580.9 280.4 579.0 280.0 577.8 278.7
"/>
<path style="fill:none;stroke:#000000;stroke-width:1.62;"
clip-path="url(#cp1)" d="
M 577.8 271.6
L 577.8 284.3
"/>
<path style="fill:none;stroke:#000000;stroke-width:1.62;"
clip-path="url(#cp1)" d="
M 588.8 271.6
L 588.8 276.4
C 588.8 278.4 590.4 280.1 592.4 280.1
C 594.4 280.1 596.0 278.4 596.0 276.4
"/>
<path style="fill:none;stroke:#000000;stroke-width:1.62;"
clip-path="url(#cp1)" d="
M 596.0 271.6
L 596.0 280.1
"/>
<path style="fill:none;stroke:#000000;stroke-width:1.62;"
clip-path="url(#cp1)" d="
M 602.1 267.1
L 602.1 280.1
"/>
<path style="fill:none;stroke:#000000;stroke-width:1.62;"
clip-path="url(#cp1)" d="
M 599.7 271.6
L 604.6 271.6
"/>
<path style="fill:none;stroke:#000000;stroke-width:2.70;"
clip-path="url(#cp1)" d="
M 503.4 295.2
L 519.0 295.2
"/>
<path style="fill:none;stroke:#000000;stroke-width:2.70;"
clip-path="url(#cp1)" d="
M 511.2 287.4
L 511.2 303.0
"/>
<path style="fill:none;stroke:#000000;stroke-width:2.02;"
clip-path="url(#cp1)" d="
M 212.5 343.8
C 211.5 344.7 211.3 346.1 211.9 347.3
C 212.5 348.5 213.8 349.1 215.0 348.9
L 227.7 348.9
"/>
<path style="fill:none;stroke:#000000;stroke-width:2.02;"
clip-path="url(#cp1)" d="
M 217.1 351.4
L 217.1 345.3
"/>
<path style="fill:none;stroke:#000000;stroke-width:2.02;"
clip-path="url(#cp1)" d="
M 227.7 338.5
L 217.1 338.5
"/>
<path style="fill:none;stroke:#000000;stroke-width:2.02;"
clip-path="url(#cp1)" d="
M 212.0 339.0
C 212.3 339.0 212.5 338.8 212.5 338.5
C 212.5 338.2 212.3 338.0 212.0 338.0
C 211.7 338.0 211.5 338.2 211.5 338.5
C 211.5 338.8 211.7 339.0 212.0 339.0
"/>
<path style="fill:none;stroke:#000000;stroke-width:2.02;"
clip-path="url(#cp1)" d="
M 227.7 332.7
L 211.5 332.7
"/>
<path style="fill:none;stroke:#000000;stroke-width:2.02;"
clip-path="url(#cp1)" d="
M 211.5 324.3
L 227.7 324.3
"/>
<path style="fill:none;stroke:#000000;stroke-width:2.02;"
clip-path="url(#cp1)" d="
M 217.1 327.3
L 217.1 321.3
"/>
<path style="fill:none;stroke:#000000;stroke-width:2.02;"
clip-path="url(#cp1)" d="
M 222.4 316.5
L 222.4 307.4
L 221.6 307.4
C 219.1 307.4 217.1 309.4 217.1 311.9
C 217.1 314.4 219.1 316.5 221.6 316.5
L 223.1 316.5
C 225.7 316.5 227.7 314.4 227.7 311.9
C 227.7 310.3 227.2 308.6 226.2 307.4
"/>
<path style="fill:none;stroke:#000000;stroke-width:2.02;"
clip-path="url(#cp1)" d="
M 217.1 302.8
L 227.7 302.8
"/>
<path style="fill:none;stroke:#000000;stroke-width:2.02;"
clip-path="url(#cp1)" d="
M 220.1 302.8
C 218.3 302.0 217.1 300.3 217.0 298.4
C 216.9 296.5 217.9 294.6 219.6 293.7
"/>
<path style="fill:none;stroke:#000000;stroke-width:2.02;"
clip-path="url(#cp1)" d="
M 218.8 289.1
C 217.2 287.7 216.7 285.3 217.4 283.3
C 218.2 281.2 220.2 279.9 222.4 279.9
C 224.6 279.9 226.5 281.2 227.3 283.3
C 228.1 285.3 227.6 287.7 225.9 289.1
"/>
<path style="fill:none;stroke:#000000;stroke-width:2.02;"
clip-path="url(#cp1)" d="
M 211.5 289.1
L 227.7 289.1
"/>
<path style="fill:none;stroke:#000000;stroke-width:2.02;"
clip-path="url(#cp1)" d="
M 218.8 266.3
C 217.2 267.8 216.7 270.1 217.4 272.2
C 218.2 274.2 220.2 275.6 222.4 275.6
C 224.6 275.6 226.5 274.2 227.3 272.2
C 228.1 270.1 227.6 267.8 225.9 266.3
"/>
<path style="fill:none;stroke:#000000;stroke-width:2.02;"
clip-path="url(#cp1)" d="
M 217.1 266.3
L 227.7 266.3
"/>
<path style="fill:none;stroke:#000000;stroke-width:2.02;"
clip-path="url(#cp1)" d="
M 227.7 261.8
L 217.1 261.8
"/>
<path style="fill:none;stroke:#000000;stroke-width:2.02;"
clip-path="url(#cp1)" d="
M 221.6 261.8
C 219.1 261.8 217.1 259.7 217.1 257.2
C 217.1 254.7 219.1 252.7 221.6 252.7
L 227.7 252.7
"/>
<path style="fill:none;stroke:#000000;stroke-width:2.02;"
clip-path="url(#cp1)" d="
M 227.7 248.1
L 211.5 248.1
"/>
<path style="fill:none;stroke:#000000;stroke-width:2.02;"
clip-path="url(#cp1)" d="
M 222.6 248.1
L 217.1 239.0
"/>
<path style="fill:none;stroke:#000000;stroke-width:2.02;"
clip-path="url(#cp1)" d="
M 220.9 245.1
L 227.7 239.0
"/>
<path style="fill:none;stroke:#000000;stroke-width:2.02;"
clip-path="url(#cp1)" d="
M 327.1 352.7
C 324.8 354.5 324.3 357.9 326.1 360.3
C 326.9 361.4 328.6 361.4 329.4 360.3
C 330.0 359.2 330.3 358.0 330.4 356.7
C 330.4 355.5 330.8 354.2 331.4 353.2
C 332.2 352.0 333.9 352.0 334.7 353.2
C 336.4 355.8 335.9 359.2 333.7 361.3
"/>
<path style="fill:none;stroke:#000000;stroke-width:2.02;"
clip-path="url(#cp1)" d="
M 325.1 347.6
L 331.1 347.6
C 333.7 347.6 335.7 345.6 335.7 343.0
C 335.7 340.5 333.7 338.5 331.1 338.5
"/>
<path style="fill:none;stroke:#000000;stroke-width:2.02;"
clip-path="url(#cp1)" d="
M 325.1 338.5
L 335.7 338.5
"/>
<path style="fill:none;stroke:#000000;stroke-width:2.02;"
clip-path="url(#cp1)" d="
M 326.8 333.9
C 325.2 332.5 324.7 330.1 325.4 328.1
C 326.2 326.0 328.2 324.7 330.4 324.7
C 332.6 324.7 334.5 326.0 335.3 328.1
C 336.1 330.1 335.6 332.5 333.9 333.9
"/>
<path style="fill:none;stroke:#000000;stroke-width:2.02;"
clip-path="url(#cp1)" d="
M 325.1 333.9
L 341.0 333.9
"/>
<path style="fill:none;stroke:#000000;stroke-width:2.02;"
clip-path="url(#cp1)" d="
M 326.8 320.3
C 325.2 318.8 324.7 316.5 325.4 314.4
C 326.2 312.4 328.2 311.0 330.4 311.0
C 332.6 311.0 334.5 312.4 335.3 314.4
C 336.1 316.5 335.6 318.8 333.9 320.3
"/>
<path style="fill:none;stroke:#000000;stroke-width:2.02;"
clip-path="url(#cp1)" d="
M 325.1 320.3
L 341.0 320.3
"/>
<path style="fill:none;stroke:#000000;stroke-width:2.02;"
clip-path="url(#cp1)" d="
M 325.1 306.6
L 335.7 306.6
"/>
<path style="fill:none;stroke:#000000;stroke-width:2.02;"
clip-path="url(#cp1)" d="
M 328.1 306.6
C 326.3 305.8 325.1 304.1 325.0 302.2
C 324.9 300.3 325.9 298.4 327.6 297.5
"/>
<path style="fill:none;stroke:#000000;stroke-width:2.02;"
clip-path="url(#cp1)" d="
M 330.4 292.9
L 330.4 283.8
L 329.6 283.8
C 327.1 283.8 325.1 285.8 325.1 288.4
C 325.1 290.9 327.1 292.9 329.6 292.9
L 331.1 292.9
C 333.7 292.9 335.7 290.9 335.7 288.4
C 335.7 286.7 335.2 285.1 334.2 283.8
"/>
<path style="fill:none;stroke:#000000;stroke-width:2.02;"
clip-path="url(#cp1)" d="
M 327.1 270.6
C 324.8 272.5 324.3 275.8 326.1 278.2
C 326.9 279.4 328.6 279.4 329.4 278.2
C 330.0 277.2 330.3 275.9 330.4 274.7
C 330.4 273.5 330.8 272.2 331.4 271.2
C 332.2 270.0 333.9 270.0 334.7 271.2
C 336.4 273.7 335.9 277.2 333.7 279.3
"/>
<path style="fill:none;stroke:#000000;stroke-width:2.02;"
clip-path="url(#cp1)" d="
M 327.1 257.0
C 324.8 258.8 324.3 262.2 326.1 264.6
C 326.9 265.7 328.6 265.7 329.4 264.6
C 330.0 263.5 330.3 262.3 330.4 261.0
C 330.4 259.8 330.8 258.6 331.4 257.5
C 332.2 256.3 333.9 256.3 334.7 257.5
C 336.4 260.1 335.9 263.5 333.7 265.6
"/>
<path style="fill:none;stroke:#000000;stroke-width:2.02;"
clip-path="url(#cp1)" d="
M 329.6 251.9
C 327.1 251.9 325.1 249.9 325.1 247.4
C 325.1 244.8 327.1 242.8 329.6 242.8
L 331.1 242.8
C 333.7 242.8 335.7 244.8 335.7 247.4
C 335.7 249.9 333.7 251.9 331.1 251.9
L 329.6 251.9
"/>
<path style="fill:none;stroke:#000000;stroke-width:2.02;"
clip-path="url(#cp1)" d="
M 325.1 238.2
L 335.7 238.2
"/>
<path style="fill:none;stroke:#000000;stroke-width:2.02;"
clip-path="url(#cp1)" d="
M 328.1 238.2
C 326.3 237.5 325.1 235.8 325.0 233.8
C 324.9 231.9 325.9 230.1 327.6 229.1
"/>
</g><!-- page 1 -->
</g><!-- EOF -->
</svg>
