<?xml version="1.0" standalone="no"?>
<!DOCTYPE svg PUBLIC "-//W3C//DTD SVG 1.1//EN"
"http://www.w3.org/Graphics/SVG/1.1/DTD/svg11.dtd">
<svg width="7.56in" height="5.76in" viewbox="0 0 756 576"
    xmlns="http://www.w3.org/2000/svg" version="1.1">
<title>
plots/carn2.plt
</title>
<desc>
Creator: BTNRH PLT
Date: Sun Aug  2 15:23:01 2026
</desc>
<g style="stroke-linecap:round;stroke-linejoin:round">
<g id="page 1">
<clipPath id="cp1"> <path d="
M 0.0 0.0 0.0 576.0 756.0 576.0 756.0 0.0"/> </clipPath>
<path style="stroke:none;fill:#0000AA;" d="
M 0.0 0.0L 0.0 576.0L 756.0 576.0L 756.0 0.0"/>
<path style="fill:none;stroke:#FFFFFF;stroke-width:1.75;"
clip-path="url(#cp1)" d="
M 153.2 68.4
L 153.2 54.4
L 159.1 68.4
L 165.0 54.4
L 165.0 68.4
"/>
<path style="fill:none;stroke:#FFFFFF;stroke-width:1.75;"
clip-path="url(#cp1)" d="
M 176.9 60.7
C 175.6 59.3 173.6 58.8 171.8 59.5
C 170.0 60.2 168.9 61.9 168.9 63.8
C 168.9 65.7 170.0 67.4 171.8 68.1
C 173.6 68.8 175.6 68.3 176.9 66.9
"/>
<path style="fill:none;stroke:#FFFFFF;stroke-width:1.75;"
clip-path="url(#cp1)" d="
M 176.9 59.2
L 176.9 68.4
"/>
<path style="fill:none;stroke:#FFFFFF;stroke-width:1.75;"
clip-path="url(#cp1)" d="
M 181.3 68.4
L 181.3 59.2
"/>
<path style="fill:none;stroke:#FFFFFF;stroke-width:1.75;"
clip-path="url(#cp1)" d="
M 180.8 54.8
C 180.8 55.0 181.0 55.2 181.3 55.2
C 181.5 55.2 181.7 55.0 181.7 54.8
C 181.7 54.6 181.5 54.4 181.3 54.4
C 181.0 54.4 180.8 54.6 180.8 54.8
"/>
<path style="fill:none;stroke:#FFFFFF;stroke-width:1.75;"
clip-path="url(#cp1)" d="
M 185.6 68.4
L 185.6 59.2
"/>
<path style="fill:none;stroke:#FFFFFF;stroke-width:1.75;"
clip-path="url(#cp1)" d="
M 185.6 63.1
C 185.6 61.0 187.4 59.2 189.6 59.2
C 191.8 59.2 193.5 61.0 193.5 63.1
L 193.5 68.4
"/>
<path style="fill:none;stroke:#FFFFFF;stroke-width:1.75;"
clip-path="url(#cp1)" d="
M 209.6 54.4
L 209.6 68.4
L 217.5 68.4
"/>
<path style="fill:none;stroke:#FFFFFF;stroke-width:1.75;"
clip-path="url(#cp1)" d="
M 229.3 60.7
C 228.0 59.3 226.0 58.8 224.2 59.5
C 222.5 60.2 221.3 61.9 221.3 63.8
C 221.3 65.7 222.5 67.4 224.2 68.1
C 226.0 68.8 228.0 68.3 229.3 66.9
"/>
<path style="fill:none;stroke:#FFFFFF;stroke-width:1.75;"
clip-path="url(#cp1)" d="
M 229.3 59.2
L 229.3 68.4
"/>
<path style="fill:none;stroke:#FFFFFF;stroke-width:1.75;"
clip-path="url(#cp1)" d="
M 233.2 60.7
C 234.5 59.3 236.5 58.8 238.3 59.5
C 240.1 60.2 241.2 61.9 241.2 63.8
C 241.2 65.7 240.1 67.4 238.3 68.1
C 236.5 68.8 234.5 68.3 233.2 66.9
"/>
<path style="fill:none;stroke:#FFFFFF;stroke-width:1.75;"
clip-path="url(#cp1)" d="
M 233.2 54.4
L 233.2 68.4
"/>
<path style="fill:none;stroke:#FFFFFF;stroke-width:1.75;"
clip-path="url(#cp1)" d="
M 245.1 63.8
L 253.0 63.8
L 253.0 63.1
C 253.0 61.0 251.2 59.2 249.0 59.2
C 246.9 59.2 245.1 61.0 245.1 63.1
L 245.1 64.5
C 245.1 66.6 246.9 68.4 249.0 68.4
C 250.5 68.4 251.9 68.0 253.0 67.1
"/>
<path style="fill:none;stroke:#FFFFFF;stroke-width:1.75;"
clip-path="url(#cp1)" d="
M 257.6 68.4
L 257.6 54.4
"/>
<path style="fill:none;stroke:#FFFFFF;stroke-width:1.75;"
clip-path="url(#cp1)" d="
M 277.3 52.6
C 273.1 57.7 273.1 65.1 277.3 70.2
"/>
<path style="fill:none;stroke:#FFFFFF;stroke-width:1.75;"
clip-path="url(#cp1)" d="
M 281.9 57.0
C 282.3 55.4 283.6 54.3 285.2 54.3
C 286.8 54.3 288.2 55.4 288.5 57.0
C 289.4 59.9 289.4 62.9 288.5 65.8
C 288.2 67.3 286.8 68.3 285.2 68.3
C 283.7 68.3 282.3 67.3 281.9 65.8
C 281.1 62.9 281.1 59.9 281.9 57.0
"/>
<path style="fill:none;stroke:#FFFFFF;stroke-width:1.75;"
clip-path="url(#cp1)" d="
M 293.1 67.7
C 293.1 68.1 293.4 68.4 293.8 68.4
C 294.2 68.4 294.5 68.1 294.5 67.7
C 294.5 67.4 294.2 67.1 293.8 67.1
C 293.4 67.1 293.1 67.4 293.1 67.7
"/>
<path style="fill:none;stroke:#FFFFFF;stroke-width:1.75;"
clip-path="url(#cp1)" d="
M 301.0 68.4
L 303.7 68.4
"/>
<path style="fill:none;stroke:#FFFFFF;stroke-width:1.75;"
clip-path="url(#cp1)" d="
M 302.3 68.4
L 302.3 54.4
L 301.0 57.0
"/>
<path style="fill:none;stroke:#FFFFFF;stroke-width:1.75;"
clip-path="url(#cp1)" d="
M 310.2 70.4
C 310.9 69.6 311.4 68.7 311.6 67.7
C 311.6 67.4 311.3 67.1 310.9 67.1
C 310.5 67.1 310.2 67.4 310.2 67.7
C 310.2 68.1 310.5 68.4 310.9 68.4
C 311.3 68.4 311.6 68.1 311.6 67.7
"/>
<path style="fill:none;stroke:#FFFFFF;stroke-width:1.75;"
clip-path="url(#cp1)" d="
M 322.5 54.4
L 316.4 54.4
L 315.5 61.4
C 316.7 59.8 318.7 59.2 320.5 59.8
C 322.4 60.4 323.6 62.1 323.6 64.0
C 323.6 66.0 322.4 67.7 320.5 68.3
C 318.7 68.9 316.7 68.2 315.5 66.6
"/>
<path style="fill:none;stroke:#FFFFFF;stroke-width:1.75;"
clip-path="url(#cp1)" d="
M 327.4 67.7
C 327.4 68.1 327.7 68.4 328.0 68.4
C 328.4 68.4 328.7 68.1 328.7 67.7
C 328.7 67.4 328.4 67.1 328.0 67.1
C 327.7 67.1 327.4 67.4 327.4 67.7
"/>
<path style="fill:none;stroke:#FFFFFF;stroke-width:1.75;"
clip-path="url(#cp1)" d="
M 333.5 56.1
C 334.1 55.0 335.2 54.3 336.4 54.3
C 337.6 54.3 338.8 55.0 339.4 56.1
C 339.9 57.1 339.9 58.4 339.2 59.5
C 338.5 60.5 337.4 61.1 336.1 60.9
L 334.8 60.9
"/>
<path style="fill:none;stroke:#FFFFFF;stroke-width:1.75;"
clip-path="url(#cp1)" d="
M 336.1 60.9
C 337.6 60.8 339.0 61.4 339.8 62.6
C 340.6 63.9 340.6 65.4 339.8 66.6
C 339.0 67.9 337.6 68.5 336.1 68.3
C 334.7 68.2 333.5 67.2 333.1 65.8
"/>
<path style="fill:none;stroke:#FFFFFF;stroke-width:1.75;"
clip-path="url(#cp1)" d="
M 344.5 52.6
C 348.7 57.7 348.7 65.1 344.5 70.2
"/>
<path style="fill:none;stroke:#FFFFFF;stroke-width:1.75;"
clip-path="url(#cp1)" d="
M 352.1 59.2
C 351.8 59.2 351.5 59.5 351.5 59.8
C 351.5 60.2 351.8 60.5 352.1 60.5
C 352.5 60.5 352.8 60.2 352.8 59.8
C 352.8 59.5 352.5 59.2 352.1 59.2
"/>
<path style="fill:none;stroke:#FFFFFF;stroke-width:1.75;"
clip-path="url(#cp1)" d="
M 352.1 70.4
C 352.6 69.6 352.8 68.7 352.8 67.7
C 352.8 67.4 352.5 67.1 352.1 67.1
C 351.8 67.1 351.5 67.4 351.5 67.7
C 351.5 68.1 351.8 68.4 352.1 68.4
C 352.5 68.4 352.8 68.1 352.8 67.7
"/>
<path style="fill:none;stroke:#FFFFFF;stroke-width:1.75;"
clip-path="url(#cp1)" d="
M 368.8 68.4
L 368.8 54.4
L 374.7 68.4
L 380.7 54.4
L 380.7 68.4
"/>
<path style="fill:none;stroke:#FFFFFF;stroke-width:1.75;"
clip-path="url(#cp1)" d="
M 394.3 56.6
C 392.0 54.5 388.8 53.9 385.9 55.0
C 385.1 55.5 384.6 56.4 384.6 57.3
C 384.6 58.3 385.1 59.1 385.9 59.6
C 387.1 60.4 388.3 60.9 389.7 61.2
C 391.0 61.5 392.2 62.0 393.4 62.7
C 394.3 63.2 394.8 64.2 394.8 65.2
C 394.8 66.3 394.3 67.2 393.4 67.7
C 390.4 69.1 387.0 68.5 384.6 66.2
"/>
<path style="fill:none;stroke:#FFFFFF;stroke-width:1.75;"
clip-path="url(#cp1)" d="
M 408.7 57.0
C 407.1 53.9 402.9 53.4 400.6 56.1
C 398.0 59.1 398.0 63.6 400.6 66.6
C 402.9 69.3 407.1 68.9 408.7 65.8
L 408.7 63.1
L 405.2 63.1
"/>
<path style="fill:none;stroke:#FFFFFF;stroke-width:1.75;"
clip-path="url(#cp1)" d="
M 422.3 56.6
C 420.1 54.5 416.9 53.9 414.0 55.0
C 413.2 55.5 412.7 56.4 412.7 57.3
C 412.7 58.3 413.2 59.1 414.0 59.6
C 415.1 60.4 416.4 60.9 417.7 61.2
C 419.1 61.5 420.3 62.0 421.5 62.7
C 422.4 63.2 422.9 64.2 422.9 65.2
C 422.9 66.3 422.4 67.2 421.5 67.7
C 418.5 69.1 415.0 68.5 412.7 66.2
"/>
<path style="fill:none;stroke:#FFFFFF;stroke-width:1.75;"
clip-path="url(#cp1)" d="
M 426.7 54.4
L 429.4 54.4
"/>
<path style="fill:none;stroke:#FFFFFF;stroke-width:1.75;"
clip-path="url(#cp1)" d="
M 428.1 54.4
L 428.1 68.4
"/>
<path style="fill:none;stroke:#FFFFFF;stroke-width:1.75;"
clip-path="url(#cp1)" d="
M 426.7 68.4
L 429.4 68.4
"/>
<path style="fill:none;stroke:#FFFFFF;stroke-width:1.75;"
clip-path="url(#cp1)" d="
M 433.1 54.4
L 443.2 54.4
L 433.1 68.4
L 443.2 68.4
"/>
<path style="fill:none;stroke:#FFFFFF;stroke-width:1.75;"
clip-path="url(#cp1)" d="
M 455.7 54.4
L 446.9 54.4
L 446.9 68.4
L 455.7 68.4
"/>
<path style="fill:none;stroke:#FFFFFF;stroke-width:1.75;"
clip-path="url(#cp1)" d="
M 446.9 60.7
L 453.1 60.7
"/>
<path style="fill:none;stroke:#FFFFFF;stroke-width:1.75;"
clip-path="url(#cp1)" d="
M 471.7 63.6
L 481.8 63.6
"/>
<path style="fill:none;stroke:#FFFFFF;stroke-width:1.75;"
clip-path="url(#cp1)" d="
M 471.7 59.2
L 481.8 59.2
"/>
<path style="fill:none;stroke:#FFFFFF;stroke-width:1.75;"
clip-path="url(#cp1)" d="
M 500.4 68.4
L 503.1 68.4
"/>
<path style="fill:none;stroke:#FFFFFF;stroke-width:1.75;"
clip-path="url(#cp1)" d="
M 501.8 68.4
L 501.8 54.4
L 500.4 57.0
"/>
<path style="fill:none;stroke:#FFFFFF;stroke-width:1.75;"
clip-path="url(#cp1)" d="
M 509.7 67.7
C 509.7 68.1 510.0 68.4 510.3 68.4
C 510.7 68.4 511.0 68.1 511.0 67.7
C 511.0 67.4 510.7 67.1 510.3 67.1
C 510.0 67.1 509.7 67.4 509.7 67.7
"/>
<path style="fill:none;stroke:#FFFFFF;stroke-width:1.75;"
clip-path="url(#cp1)" d="
M 515.8 56.1
C 516.4 55.0 517.5 54.3 518.7 54.3
C 519.9 54.3 521.1 55.0 521.7 56.1
C 522.2 57.1 522.2 58.4 521.5 59.5
C 520.8 60.5 519.7 61.1 518.4 60.9
L 517.1 60.9
"/>
<path style="fill:none;stroke:#FFFFFF;stroke-width:1.75;"
clip-path="url(#cp1)" d="
M 518.4 60.9
C 519.9 60.8 521.3 61.4 522.1 62.6
C 522.9 63.9 522.9 65.4 522.1 66.6
C 521.3 67.9 519.9 68.5 518.4 68.3
C 517.0 68.2 515.8 67.2 515.4 65.8
"/>
<path style="fill:none;stroke:#FFFFFF;stroke-width:1.49;"
clip-path="url(#cp1)" d="
M 223.5 504.0
L 232.0 492.1
"/>
<path style="fill:none;stroke:#FFFFFF;stroke-width:1.49;"
clip-path="url(#cp1)" d="
M 223.5 492.1
L 232.0 504.0
"/>
<path style="fill:none;stroke:#FFFFFF;stroke-width:1.49;"
clip-path="url(#cp1)" d="
M 235.2 498.1
L 243.7 498.1
"/>
<path style="fill:none;stroke:#FFFFFF;stroke-width:1.49;"
clip-path="url(#cp1)" d="
M 246.5 504.0
L 250.7 492.1
L 255.0 504.0
"/>
<path style="fill:none;stroke:#FFFFFF;stroke-width:1.49;"
clip-path="url(#cp1)" d="
M 248.0 499.9
L 253.5 499.9
"/>
<path style="fill:none;stroke:#FFFFFF;stroke-width:1.49;"
clip-path="url(#cp1)" d="
M 257.8 504.0
L 264.5 496.2
"/>
<path style="fill:none;stroke:#FFFFFF;stroke-width:1.49;"
clip-path="url(#cp1)" d="
M 257.8 496.2
L 264.5 504.0
"/>
<path style="fill:none;stroke:#FFFFFF;stroke-width:1.49;"
clip-path="url(#cp1)" d="
M 268.2 504.0
L 268.2 496.2
"/>
<path style="fill:none;stroke:#FFFFFF;stroke-width:1.49;"
clip-path="url(#cp1)" d="
M 267.8 492.5
C 267.8 492.7 268.0 492.9 268.2 492.9
C 268.4 492.9 268.6 492.7 268.6 492.5
C 268.6 492.3 268.4 492.1 268.2 492.1
C 268.0 492.1 267.8 492.3 267.8 492.5
"/>
<path style="fill:none;stroke:#FFFFFF;stroke-width:1.49;"
clip-path="url(#cp1)" d="
M 278.2 497.7
C 276.9 496.0 274.4 495.7 272.7 496.9
C 271.8 497.5 271.8 498.8 272.7 499.4
C 273.4 499.8 274.3 500.1 275.3 500.1
C 276.2 500.1 277.1 500.4 277.8 500.8
C 278.7 501.4 278.7 502.7 277.8 503.3
C 276.0 504.5 273.4 504.2 271.9 502.5
"/>
<path style="fill:none;stroke:#FFFFFF;stroke-width:1.49;"
clip-path="url(#cp1)" d="
M 292.1 492.1
L 292.1 504.0
L 298.8 504.0
"/>
<path style="fill:none;stroke:#FFFFFF;stroke-width:1.49;"
clip-path="url(#cp1)" d="
M 308.8 497.5
C 307.8 496.3 306.1 495.9 304.6 496.5
C 303.1 497.1 302.1 498.5 302.1 500.1
C 302.1 501.7 303.1 503.2 304.6 503.7
C 306.1 504.3 307.8 503.9 308.8 502.7
"/>
<path style="fill:none;stroke:#FFFFFF;stroke-width:1.49;"
clip-path="url(#cp1)" d="
M 308.8 496.2
L 308.8 504.0
"/>
<path style="fill:none;stroke:#FFFFFF;stroke-width:1.49;"
clip-path="url(#cp1)" d="
M 312.2 497.5
C 313.3 496.3 315.0 495.9 316.5 496.5
C 318.0 497.1 319.0 498.5 319.0 500.1
C 319.0 501.7 318.0 503.2 316.5 503.7
C 315.0 504.3 313.3 503.9 312.2 502.7
"/>
<path style="fill:none;stroke:#FFFFFF;stroke-width:1.49;"
clip-path="url(#cp1)" d="
M 312.2 492.1
L 312.2 504.0
"/>
<path style="fill:none;stroke:#FFFFFF;stroke-width:1.49;"
clip-path="url(#cp1)" d="
M 322.2 500.1
L 328.9 500.1
L 328.9 499.5
C 328.9 497.7 327.4 496.2 325.6 496.2
C 323.7 496.2 322.2 497.7 322.2 499.5
L 322.2 500.7
C 322.2 502.5 323.7 504.0 325.6 504.0
C 326.8 504.0 327.9 503.6 328.9 502.9
"/>
<path style="fill:none;stroke:#FFFFFF;stroke-width:1.49;"
clip-path="url(#cp1)" d="
M 332.8 504.0
L 332.8 492.1
"/>
<path style="fill:none;stroke:#FFFFFF;stroke-width:1.49;"
clip-path="url(#cp1)" d="
M 349.5 490.6
C 345.9 494.9 345.9 501.2 349.5 505.5
"/>
<path style="fill:none;stroke:#FFFFFF;stroke-width:1.49;"
clip-path="url(#cp1)" d="
M 352.8 495.5
C 352.8 493.6 354.3 492.1 356.2 492.1
C 358.0 492.1 359.5 493.6 359.5 495.5
C 359.5 496.4 358.9 497.3 358.0 497.7
L 356.2 498.8
C 354.2 499.8 352.9 501.8 352.8 504.0
L 359.5 504.0
"/>
<path style="fill:none;stroke:#FFFFFF;stroke-width:1.49;"
clip-path="url(#cp1)" d="
M 362.9 503.4
C 362.9 503.8 363.1 504.0 363.4 504.0
C 363.7 504.0 364.0 503.8 364.0 503.4
C 364.0 503.1 363.7 502.9 363.4 502.9
C 363.1 502.9 362.9 503.1 362.9 503.4
"/>
<path style="fill:none;stroke:#FFFFFF;stroke-width:1.49;"
clip-path="url(#cp1)" d="
M 373.3 492.1
L 368.1 492.1
L 367.3 498.1
C 368.3 496.7 370.0 496.2 371.6 496.7
C 373.1 497.2 374.2 498.6 374.2 500.3
C 374.2 501.9 373.1 503.4 371.6 503.9
C 370.0 504.4 368.3 503.8 367.3 502.5
"/>
<path style="fill:none;stroke:#FFFFFF;stroke-width:1.49;"
clip-path="url(#cp1)" d="
M 377.3 505.7
C 377.9 505.0 378.3 504.3 378.5 503.4
C 378.5 503.1 378.2 502.9 377.9 502.9
C 377.6 502.9 377.3 503.1 377.3 503.4
C 377.3 503.8 377.6 504.0 377.9 504.0
C 378.2 504.0 378.5 503.8 378.5 503.4
"/>
<path style="fill:none;stroke:#FFFFFF;stroke-width:1.49;"
clip-path="url(#cp1)" d="
M 381.8 498.1
L 390.3 498.1
"/>
<path style="fill:none;stroke:#FFFFFF;stroke-width:1.49;"
clip-path="url(#cp1)" d="
M 394.2 494.3
C 394.5 493.0 395.7 492.1 397.0 492.1
C 398.4 492.1 399.5 493.0 399.8 494.3
C 400.5 496.8 400.5 499.3 399.8 501.8
C 399.5 503.1 398.3 503.9 397.0 503.9
C 395.7 503.9 394.6 503.1 394.2 501.8
C 393.5 499.3 393.5 496.8 394.2 494.3
"/>
<path style="fill:none;stroke:#FFFFFF;stroke-width:1.49;"
clip-path="url(#cp1)" d="
M 403.7 503.4
C 403.7 503.8 404.0 504.0 404.3 504.0
C 404.6 504.0 404.8 503.8 404.8 503.4
C 404.8 503.1 404.6 502.9 404.3 502.9
C 404.0 502.9 403.7 503.1 403.7 503.4
"/>
<path style="fill:none;stroke:#FFFFFF;stroke-width:1.49;"
clip-path="url(#cp1)" d="
M 408.2 492.1
L 414.8 492.1
L 414.8 493.6
L 412.6 497.7
C 411.7 499.7 411.3 501.8 411.5 504.0
"/>
<path style="fill:none;stroke:#FFFFFF;stroke-width:1.49;"
clip-path="url(#cp1)" d="
M 424.1 492.1
L 418.9 492.1
L 418.2 498.1
C 419.1 496.7 420.9 496.2 422.4 496.7
C 424.0 497.2 425.0 498.6 425.0 500.3
C 425.0 501.9 424.0 503.4 422.4 503.9
C 420.9 504.4 419.1 503.8 418.2 502.5
"/>
<path style="fill:none;stroke:#FFFFFF;stroke-width:1.49;"
clip-path="url(#cp1)" d="
M 428.2 490.6
C 431.8 494.9 431.8 501.2 428.2 505.5
"/>
<path style="fill:none;stroke:#FFFFFF;stroke-width:1.49;"
clip-path="url(#cp1)" d="
M 434.7 496.2
C 434.4 496.2 434.1 496.5 434.1 496.8
C 434.1 497.1 434.4 497.3 434.7 497.3
C 435.0 497.3 435.3 497.1 435.3 496.8
C 435.3 496.5 435.0 496.2 434.7 496.2
"/>
<path style="fill:none;stroke:#FFFFFF;stroke-width:1.49;"
clip-path="url(#cp1)" d="
M 434.7 505.7
C 435.1 505.0 435.3 504.2 435.3 503.4
C 435.3 503.1 435.0 502.9 434.7 502.9
C 434.4 502.9 434.1 503.1 434.1 503.4
C 434.1 503.8 434.4 504.0 434.7 504.0
C 435.0 504.0 435.3 503.8 435.3 503.4
"/>
<path style="fill:none;stroke:#FFFFFF;stroke-width:1.49;"
clip-path="url(#cp1)" d="
M 448.8 504.0
L 448.8 492.1
L 453.8 504.0
L 458.8 492.1
L 458.8 504.0
"/>
<path style="fill:none;stroke:#FFFFFF;stroke-width:1.49;"
clip-path="url(#cp1)" d="
M 470.3 494.0
C 468.4 492.2 465.7 491.7 463.3 492.7
C 462.6 493.1 462.2 493.8 462.2 494.6
C 462.2 495.4 462.6 496.2 463.3 496.6
C 464.2 497.2 465.3 497.7 466.4 497.9
C 467.6 498.1 468.6 498.6 469.6 499.2
C 470.4 499.6 470.8 500.4 470.8 501.3
C 470.8 502.2 470.4 503.0 469.6 503.4
C 467.1 504.6 464.2 504.0 462.2 502.1
"/>
<path style="fill:none;stroke:#FFFFFF;stroke-width:1.49;"
clip-path="url(#cp1)" d="
M 482.6 494.3
C 481.2 491.7 477.6 491.3 475.7 493.6
C 473.5 496.2 473.5 500.0 475.7 502.5
C 477.6 504.8 481.2 504.4 482.6 501.8
L 482.6 499.5
L 479.6 499.5
"/>
<path style="fill:none;stroke:#FFFFFF;stroke-width:1.49;"
clip-path="url(#cp1)" d="
M 494.1 494.0
C 492.2 492.2 489.5 491.7 487.0 492.7
C 486.4 493.1 485.9 493.8 485.9 494.6
C 485.9 495.4 486.4 496.2 487.0 496.6
C 488.0 497.2 489.1 497.7 490.2 497.9
C 491.3 498.1 492.4 498.6 493.4 499.2
C 494.1 499.6 494.6 500.4 494.6 501.3
C 494.6 502.2 494.1 503.0 493.4 503.4
C 490.9 504.6 487.9 504.0 485.9 502.1
"/>
<path style="fill:none;stroke:#FFFFFF;stroke-width:1.49;"
clip-path="url(#cp1)" d="
M 497.8 492.1
L 500.0 492.1
"/>
<path style="fill:none;stroke:#FFFFFF;stroke-width:1.49;"
clip-path="url(#cp1)" d="
M 498.9 492.1
L 498.9 504.0
"/>
<path style="fill:none;stroke:#FFFFFF;stroke-width:1.49;"
clip-path="url(#cp1)" d="
M 497.8 504.0
L 500.0 504.0
"/>
<path style="fill:none;stroke:#FFFFFF;stroke-width:1.49;"
clip-path="url(#cp1)" d="
M 503.2 492.1
L 511.7 492.1
L 503.2 504.0
L 511.7 504.0
"/>
<path style="fill:none;stroke:#FFFFFF;stroke-width:1.49;"
clip-path="url(#cp1)" d="
M 525.1 499.9
L 533.6 499.9
"/>
<path style="fill:none;stroke:#FFFFFF;stroke-width:1.49;"
clip-path="url(#cp1)" d="
M 525.1 496.2
L 533.6 496.2
"/>
<path style="fill:none;stroke:#FFFFFF;stroke-width:1.49;"
clip-path="url(#cp1)" d="
M 549.4 504.0
L 551.6 504.0
"/>
<path style="fill:none;stroke:#FFFFFF;stroke-width:1.49;"
clip-path="url(#cp1)" d="
M 550.5 504.0
L 550.5 492.1
L 549.4 494.3
"/>
<path style="fill:none;stroke:#FFFFFF;stroke-width:1.49;"
clip-path="url(#cp1)" d="
M 557.2 503.4
C 557.2 503.8 557.5 504.0 557.8 504.0
C 558.1 504.0 558.3 503.8 558.3 503.4
C 558.3 503.1 558.1 502.9 557.8 502.9
C 557.5 502.9 557.2 503.1 557.2 503.4
"/>
<path style="fill:none;stroke:#FFFFFF;stroke-width:1.49;"
clip-path="url(#cp1)" d="
M 563.9 504.0
L 566.1 504.0
"/>
<path style="fill:none;stroke:#FFFFFF;stroke-width:1.49;"
clip-path="url(#cp1)" d="
M 565.0 504.0
L 565.0 492.1
L 563.9 494.3
"/>
<path style="fill:none;stroke:#FFFFFF;stroke-width:2.16;"
clip-path="url(#cp1)" d="
M 144.0 90.0
L 144.0 450.0
"/>
<path style="fill:none;stroke:#FFFFFF;stroke-width:2.16;"
clip-path="url(#cp1)" d="
M 144.0 450.0
L 648.0 450.0
"/>
<path style="fill:none;stroke:#FFFFFF;stroke-width:2.16;"
clip-path="url(#cp1)" d="
M 648.0 450.0
L 648.0 90.0
"/>
<path style="fill:none;stroke:#FFFFFF;stroke-width:2.16;"
clip-path="url(#cp1)" d="
M 648.0 90.0
L 144.0 90.0
"/>
<path style="fill:none;stroke:#FFFFFF;stroke-width:2.16;"
clip-path="url(#cp1)" d="
M 144.0 162.0
L 149.4 162.0
"/>
<path style="fill:none;stroke:#FFFFFF;stroke-width:2.16;"
clip-path="url(#cp1)" d="
M 144.0 216.0
L 149.4 216.0
"/>
<path style="fill:none;stroke:#FFFFFF;stroke-width:2.16;"
clip-path="url(#cp1)" d="
M 144.0 270.0
L 149.4 270.0
"/>
<path style="fill:none;stroke:#FFFFFF;stroke-width:2.16;"
clip-path="url(#cp1)" d="
M 144.0 324.0
L 149.4 324.0
"/>
<path style="fill:none;stroke:#FFFFFF;stroke-width:2.16;"
clip-path="url(#cp1)" d="
M 144.0 378.0
L 149.4 378.0
"/>
<path style="fill:none;stroke:#FFFFFF;stroke-width:2.16;"
clip-path="url(#cp1)" d="
M 244.8 450.0
L 244.8 444.6
"/>
<path style="fill:none;stroke:#FFFFFF;stroke-width:2.16;"
clip-path="url(#cp1)" d="
M 320.4 450.0
L 320.4 444.6
"/>
<path style="fill:none;stroke:#FFFFFF;stroke-width:2.16;"
clip-path="url(#cp1)" d="
M 396.0 450.0
L 396.0 444.6
"/>
<path style="fill:none;stroke:#FFFFFF;stroke-width:2.16;"
clip-path="url(#cp1)" d="
M 471.6 450.0
L 471.6 444.6
"/>
<path style="fill:none;stroke:#FFFFFF;stroke-width:2.16;"
clip-path="url(#cp1)" d="
M 547.2 450.0
L 547.2 444.6
"/>
<path style="fill:none;stroke:#FFFFFF;stroke-width:2.16;"
clip-path="url(#cp1)" d="
M 648.0 378.0
L 642.6 378.0
"/>
<path style="fill:none;stroke:#FFFFFF;stroke-width:2.16;"
clip-path="url(#cp1)" d="
M 648.0 324.0
L 642.6 324.0
"/>
<path style="fill:none;stroke:#FFFFFF;stroke-width:2.16;"
clip-path="url(#cp1)" d="
M 648.0 270.0
L 642.6 270.0
"/>
<path style="fill:none;stroke:#FFFFFF;stroke-width:2.16;"
clip-path="url(#cp1)" d="
M 648.0 216.0
L 642.6 216.0
"/>
<path style="fill:none;stroke:#FFFFFF;stroke-width:2.16;"
clip-path="url(#cp1)" d="
M 648.0 162.0
L 642.6 162.0
"/>
<path style="fill:none;stroke:#FFFFFF;stroke-width:2.16;"
clip-path="url(#cp1)" d="
M 547.2 90.0
L 547.2 95.4
"/>
<path style="fill:none;stroke:#FFFFFF;stroke-width:2.16;"
clip-path="url(#cp1)" d="
M 471.6 90.0
L 471.6 95.4
"/>
<path style="fill:none;stroke:#FFFFFF;stroke-width:2.16;"
clip-path="url(#cp1)" d="
M 396.0 90.0
L 396.0 95.4
"/>
<path style="fill:none;stroke:#FFFFFF;stroke-width:2.16;"
clip-path="url(#cp1)" d="
M 320.4 90.0
L 320.4 95.4
"/>
<path style="fill:none;stroke:#FFFFFF;stroke-width:2.16;"
clip-path="url(#cp1)" d="
M 244.8 90.0
L 244.8 95.4
"/>
<path style="fill:none;stroke:#FFFFFF;stroke-width:1.21;"
clip-path="url(#cp1)" d="
M 231.4 456.2
L 234.3 456.2
C 236.6 456.2 238.4 458.1 238.4 460.3
L 238.4 461.8
C 238.4 464.1 236.6 466.0 234.3 466.0
L 231.4 466.0
L 231.4 456.2
"/>
<path style="fill:none;stroke:#FFFFFF;stroke-width:1.21;"
clip-path="url(#cp1)" d="
M 241.2 466.0
L 241.2 456.2
L 245.3 466.0
L 249.4 456.2
L 249.4 466.0
"/>
<path style="fill:none;stroke:#FFFFFF;stroke-width:1.21;"
clip-path="url(#cp1)" d="
M 251.6 456.2
L 255.1 466.0
L 258.6 456.2
"/>
<path style="fill:none;stroke:#FFFFFF;stroke-width:1.21;"
clip-path="url(#cp1)" d="
M 307.2 456.2
L 307.2 462.5
C 307.2 464.4 308.8 466.0 310.7 466.0
C 312.6 466.0 314.2 464.4 314.2 462.5
L 314.2 456.2
"/>
<path style="fill:none;stroke:#FFFFFF;stroke-width:1.21;"
clip-path="url(#cp1)" d="
M 323.6 457.7
C 322.0 456.3 319.8 455.9 317.8 456.7
C 317.2 457.0 316.9 457.6 316.9 458.3
C 316.9 458.9 317.2 459.5 317.8 459.9
C 318.6 460.4 319.5 460.8 320.4 460.9
C 321.3 461.1 322.2 461.5 323.0 462.0
C 323.6 462.4 324.0 463.0 324.0 463.7
C 324.0 464.5 323.6 465.1 323.0 465.5
C 320.9 466.4 318.5 466.0 316.9 464.4
"/>
<path style="fill:none;stroke:#FFFFFF;stroke-width:1.21;"
clip-path="url(#cp1)" d="
M 333.6 458.1
C 332.5 455.9 329.6 455.6 328.0 457.4
C 326.2 459.5 326.2 462.6 328.0 464.7
C 329.6 466.6 332.5 466.3 333.6 464.1
"/>
<path style="fill:none;stroke:#FFFFFF;stroke-width:1.21;"
clip-path="url(#cp1)" d="
M 389.8 458.1
C 388.6 455.9 385.7 455.6 384.2 457.4
C 382.3 459.5 382.3 462.6 384.2 464.7
C 385.7 466.6 388.6 466.3 389.8 464.1
"/>
<path style="fill:none;stroke:#FFFFFF;stroke-width:1.21;"
clip-path="url(#cp1)" d="
M 392.5 466.0
L 392.5 456.2
L 397.1 456.2
C 398.4 456.2 399.5 457.3 399.5 458.7
C 399.5 460.0 398.4 461.1 397.1 461.1
L 392.5 461.1
"/>
<path style="fill:none;stroke:#FFFFFF;stroke-width:1.21;"
clip-path="url(#cp1)" d="
M 402.2 456.2
L 402.2 462.5
C 402.2 464.4 403.8 466.0 405.7 466.0
C 407.6 466.0 409.2 464.4 409.2 462.5
L 409.2 456.2
"/>
<path style="fill:none;stroke:#FFFFFF;stroke-width:1.21;"
clip-path="url(#cp1)" d="
M 458.8 466.0
L 458.8 456.2
"/>
<path style="fill:none;stroke:#FFFFFF;stroke-width:1.21;"
clip-path="url(#cp1)" d="
M 458.8 460.6
L 464.9 460.6
"/>
<path style="fill:none;stroke:#FFFFFF;stroke-width:1.21;"
clip-path="url(#cp1)" d="
M 464.9 466.0
L 464.9 456.2
"/>
<path style="fill:none;stroke:#FFFFFF;stroke-width:1.21;"
clip-path="url(#cp1)" d="
M 467.7 456.2
L 467.7 462.5
C 467.7 464.4 469.2 466.0 471.1 466.0
C 473.1 466.0 474.6 464.4 474.6 462.5
L 474.6 456.2
"/>
<path style="fill:none;stroke:#FFFFFF;stroke-width:1.21;"
clip-path="url(#cp1)" d="
M 477.4 456.2
L 480.3 456.2
C 482.5 456.2 484.4 458.1 484.4 460.3
L 484.4 461.8
C 484.4 464.1 482.5 466.0 480.3 466.0
L 477.4 466.0
L 477.4 456.2
"/>
<path style="fill:none;stroke:#FFFFFF;stroke-width:1.21;"
clip-path="url(#cp1)" d="
M 535.2 456.2
L 535.2 466.0
L 540.7 466.0
"/>
<path style="fill:none;stroke:#FFFFFF;stroke-width:1.21;"
clip-path="url(#cp1)" d="
M 549.5 456.2
L 543.4 456.2
L 543.4 466.0
L 549.5 466.0
"/>
<path style="fill:none;stroke:#FFFFFF;stroke-width:1.21;"
clip-path="url(#cp1)" d="
M 543.4 460.6
L 547.7 460.6
"/>
<path style="fill:none;stroke:#FFFFFF;stroke-width:1.21;"
clip-path="url(#cp1)" d="
M 552.2 456.2
L 555.1 456.2
C 557.4 456.2 559.2 458.1 559.2 460.3
L 559.2 461.8
C 559.2 464.1 557.4 466.0 555.1 466.0
L 552.2 466.0
L 552.2 456.2
"/>
<path style="fill:none;stroke:#FFFFFF;stroke-width:1.21;"
clip-path="url(#cp1)" d="
M 132.8 375.0
C 133.0 373.9 133.9 373.1 135.0 373.1
C 136.1 373.1 137.1 373.9 137.3 375.0
C 137.9 376.9 137.9 379.1 137.3 381.0
C 137.1 382.1 136.1 382.8 135.0 382.8
C 134.0 382.8 133.0 382.1 132.8 381.0
C 132.2 379.1 132.2 376.9 132.8 375.0
"/>
<path style="fill:none;stroke:#FFFFFF;stroke-width:1.21;"
clip-path="url(#cp1)" d="
M 124.1 321.9
C 124.1 320.4 125.3 319.1 126.8 319.1
C 128.3 319.1 129.6 320.4 129.6 321.9
C 129.5 322.7 129.1 323.3 128.4 323.7
L 126.8 324.6
C 125.2 325.4 124.2 327.1 124.1 328.9
L 129.6 328.9
"/>
<path style="fill:none;stroke:#FFFFFF;stroke-width:1.21;"
clip-path="url(#cp1)" d="
M 137.2 319.1
L 132.9 319.1
L 132.3 324.0
C 133.1 322.9 134.5 322.5 135.8 322.9
C 137.0 323.3 137.9 324.5 137.9 325.8
C 137.9 327.2 137.0 328.4 135.8 328.8
C 134.5 329.2 133.1 328.7 132.3 327.6
"/>
<path style="fill:none;stroke:#FFFFFF;stroke-width:1.21;"
clip-path="url(#cp1)" d="
M 129.0 265.1
L 124.7 265.1
L 124.1 270.0
C 124.9 268.9 126.3 268.5 127.6 268.9
C 128.8 269.3 129.7 270.5 129.7 271.8
C 129.7 273.2 128.8 274.4 127.6 274.8
C 126.3 275.2 124.9 274.7 124.1 273.6
"/>
<path style="fill:none;stroke:#FFFFFF;stroke-width:1.21;"
clip-path="url(#cp1)" d="
M 132.8 267.0
C 133.0 265.9 133.9 265.1 135.0 265.1
C 136.1 265.1 137.1 265.9 137.3 267.0
C 137.9 268.9 137.9 271.1 137.3 273.0
C 137.1 274.1 136.1 274.8 135.0 274.8
C 134.0 274.8 133.0 274.1 132.8 273.0
C 132.2 271.1 132.2 268.9 132.8 267.0
"/>
<path style="fill:none;stroke:#FFFFFF;stroke-width:1.21;"
clip-path="url(#cp1)" d="
M 124.1 211.1
L 129.6 211.1
L 129.6 212.4
L 127.7 215.7
C 127.0 217.3 126.7 219.1 126.8 220.9
"/>
<path style="fill:none;stroke:#FFFFFF;stroke-width:1.21;"
clip-path="url(#cp1)" d="
M 137.2 211.1
L 132.9 211.1
L 132.3 216.0
C 133.1 214.9 134.5 214.5 135.8 214.9
C 137.0 215.3 137.9 216.5 137.9 217.8
C 137.9 219.2 137.0 220.4 135.8 220.8
C 134.5 221.2 133.1 220.7 132.3 219.6
"/>
<path style="fill:none;stroke:#FFFFFF;stroke-width:1.21;"
clip-path="url(#cp1)" d="
M 117.7 166.9
L 119.5 166.9
"/>
<path style="fill:none;stroke:#FFFFFF;stroke-width:1.21;"
clip-path="url(#cp1)" d="
M 118.6 166.9
L 118.6 157.1
L 117.7 159.0
"/>
<path style="fill:none;stroke:#FFFFFF;stroke-width:1.21;"
clip-path="url(#cp1)" d="
M 124.6 159.0
C 124.8 157.9 125.7 157.1 126.8 157.1
C 127.9 157.1 128.9 157.9 129.1 159.0
C 129.7 160.9 129.7 163.1 129.1 165.0
C 128.9 166.1 127.9 166.8 126.8 166.8
C 125.8 166.8 124.8 166.1 124.6 165.0
C 124.0 163.1 124.0 160.9 124.6 159.0
"/>
<path style="fill:none;stroke:#FFFFFF;stroke-width:1.21;"
clip-path="url(#cp1)" d="
M 132.8 159.0
C 133.0 157.9 133.9 157.1 135.0 157.1
C 136.1 157.1 137.1 157.9 137.3 159.0
C 137.9 160.9 137.9 163.1 137.3 165.0
C 137.1 166.1 136.1 166.8 135.0 166.8
C 134.0 166.8 133.0 166.1 132.8 165.0
C 132.2 163.1 132.2 160.9 132.8 159.0
"/>
<path style="fill:none;stroke:#FFFFFF;stroke-width:1.35;"
clip-path="url(#cp1)" d="
M 103.4 315.8
L 97.7 315.8
"/>
<path style="fill:none;stroke:#FFFFFF;stroke-width:1.35;"
clip-path="url(#cp1)" d="
M 92.6 319.7
L 97.7 315.8
L 92.6 311.9
"/>
<path style="fill:none;stroke:#FFFFFF;stroke-width:1.35;"
clip-path="url(#cp1)" d="
M 98.0 309.1
L 98.0 301.3
"/>
<path style="fill:none;stroke:#FFFFFF;stroke-width:1.35;"
clip-path="url(#cp1)" d="
M 97.5 292.2
C 96.4 293.2 96.1 294.7 96.6 296.1
C 97.1 297.4 98.4 298.3 99.9 298.3
C 101.4 298.3 102.7 297.4 103.2 296.1
C 103.7 294.7 103.3 293.2 102.3 292.2
"/>
<path style="fill:none;stroke:#FFFFFF;stroke-width:1.35;"
clip-path="url(#cp1)" d="
M 96.3 292.2
L 103.4 292.2
"/>
<path style="fill:none;stroke:#FFFFFF;stroke-width:1.35;"
clip-path="url(#cp1)" d="
M 103.4 289.2
L 96.3 283.1
"/>
<path style="fill:none;stroke:#FFFFFF;stroke-width:1.35;"
clip-path="url(#cp1)" d="
M 96.3 289.2
L 103.4 283.1
"/>
<path style="fill:none;stroke:#FFFFFF;stroke-width:1.35;"
clip-path="url(#cp1)" d="
M 103.4 279.7
L 96.3 279.7
"/>
<path style="fill:none;stroke:#FFFFFF;stroke-width:1.35;"
clip-path="url(#cp1)" d="
M 93.0 280.0
C 93.2 280.0 93.3 279.9 93.3 279.7
C 93.3 279.5 93.2 279.4 93.0 279.4
C 92.8 279.4 92.6 279.5 92.6 279.7
C 92.6 279.9 92.8 280.0 93.0 280.0
"/>
<path style="fill:none;stroke:#FFFFFF;stroke-width:1.35;"
clip-path="url(#cp1)" d="
M 97.7 270.6
C 96.1 271.8 95.8 274.1 97.0 275.7
C 97.5 276.4 98.7 276.4 99.2 275.7
C 99.6 274.9 99.9 274.1 99.9 273.3
C 99.9 272.5 100.2 271.6 100.6 270.9
C 101.1 270.2 102.2 270.2 102.8 270.9
C 103.9 272.7 103.6 274.9 102.1 276.3
"/>
<path style="fill:none;stroke:#FFFFFF;stroke-width:1.35;"
clip-path="url(#cp1)" d="
M 92.6 257.9
L 103.4 257.9
L 103.4 251.9
"/>
<path style="fill:none;stroke:#FFFFFF;stroke-width:1.35;"
clip-path="url(#cp1)" d="
M 97.5 242.7
C 96.4 243.7 96.1 245.3 96.6 246.6
C 97.1 248.0 98.4 248.9 99.9 248.9
C 101.4 248.9 102.7 248.0 103.2 246.6
C 103.7 245.3 103.3 243.7 102.3 242.7
"/>
<path style="fill:none;stroke:#FFFFFF;stroke-width:1.35;"
clip-path="url(#cp1)" d="
M 96.3 242.7
L 103.4 242.7
"/>
<path style="fill:none;stroke:#FFFFFF;stroke-width:1.35;"
clip-path="url(#cp1)" d="
M 97.5 239.7
C 96.4 238.7 96.1 237.2 96.6 235.8
C 97.1 234.5 98.4 233.6 99.9 233.6
C 101.4 233.6 102.7 234.5 103.2 235.8
C 103.7 237.2 103.3 238.7 102.3 239.7
"/>
<path style="fill:none;stroke:#FFFFFF;stroke-width:1.35;"
clip-path="url(#cp1)" d="
M 92.6 239.7
L 103.4 239.7
"/>
<path style="fill:none;stroke:#FFFFFF;stroke-width:1.35;"
clip-path="url(#cp1)" d="
M 99.9 230.6
L 99.9 224.5
L 99.4 224.5
C 97.7 224.5 96.3 225.9 96.3 227.6
C 96.3 229.2 97.7 230.6 99.4 230.6
L 100.4 230.6
C 102.1 230.6 103.4 229.2 103.4 227.6
C 103.5 226.5 103.1 225.4 102.4 224.5
"/>
<path style="fill:none;stroke:#FFFFFF;stroke-width:1.35;"
clip-path="url(#cp1)" d="
M 103.4 221.0
L 92.6 221.0
"/>
<clipPath id="cp2"> <path d="
M 144.0 90.0 144.0 450.0 648.0 450.0 648.0 90.0"/> </clipPath>
<path style="fill:none;stroke:#FF5555;stroke-width:1.44;"
clip-path="url(#cp2)" d="
M 247.9 236.8
L 317.3 219.0
"/>
<path style="fill:none;stroke:#FF5555;stroke-width:1.44;"
clip-path="url(#cp2)" d="
M 323.5 219.0
L 392.9 236.8
"/>
<path style="fill:none;stroke:#FF5555;stroke-width:1.44;"
clip-path="url(#cp2)" d="
M 399.1 236.6
L 468.5 214.8
"/>
<path style="fill:none;stroke:#FF5555;stroke-width:1.44;"
clip-path="url(#cp2)" d="
M 474.4 215.4
L 544.4 253.3
"/>
<path style="stroke:none;fill:#FF5555;"
clip-path="url(#cp2)" d="
M 241.6 240.8
L 241.6 234.4
L 248.0 234.4
L 248.0 240.8
L 241.6 240.8
"/>
<path style="fill:none;stroke:#FF5555;stroke-width:1.44;"
clip-path="url(#cp2)" d="
M 241.6 240.8
L 241.6 234.4
L 248.0 234.4
L 248.0 240.8
L 241.6 240.8
"/>
<path style="stroke:none;fill:#FF5555;"
clip-path="url(#cp2)" d="
M 317.2 221.4
L 317.2 214.9
L 323.6 214.9
L 323.6 221.4
L 317.2 221.4
"/>
<path style="fill:none;stroke:#FF5555;stroke-width:1.44;"
clip-path="url(#cp2)" d="
M 317.2 221.4
L 317.2 214.9
L 323.6 214.9
L 323.6 221.4
L 317.2 221.4
"/>
<path style="stroke:none;fill:#FF5555;"
clip-path="url(#cp2)" d="
M 392.8 240.8
L 392.8 234.4
L 399.2 234.4
L 399.2 240.8
L 392.8 240.8
"/>
<path style="fill:none;stroke:#FF5555;stroke-width:1.44;"
clip-path="url(#cp2)" d="
M 392.8 240.8
L 392.8 234.4
L 399.2 234.4
L 399.2 240.8
L 392.8 240.8
"/>
<path style="stroke:none;fill:#FF5555;"
clip-path="url(#cp2)" d="
M 468.4 217.1
L 468.4 210.6
L 474.8 210.6
L 474.8 217.1
L 468.4 217.1
"/>
<path style="fill:none;stroke:#FF5555;stroke-width:1.44;"
clip-path="url(#cp2)" d="
M 468.4 217.1
L 468.4 210.6
L 474.8 210.6
L 474.8 217.1
L 468.4 217.1
"/>
<path style="stroke:none;fill:#FF5555;"
clip-path="url(#cp2)" d="
M 544.0 258.1
L 544.0 251.6
L 550.4 251.6
L 550.4 258.1
L 544.0 258.1
"/>
<path style="fill:none;stroke:#FF5555;stroke-width:1.44;"
clip-path="url(#cp2)" d="
M 544.0 258.1
L 544.0 251.6
L 550.4 251.6
L 550.4 258.1
L 544.0 258.1
"/>
<clipPath id="cp3"> <path d="
M 0.0 0.0 0.0 576.0 756.0 576.0 756.0 0.0"/> </clipPath>
<path style="stroke:none;fill:#FF5555;"
clip-path="url(#cp3)" d="
M 217.0 144.0
L 217.0 135.9
L 225.1 135.9
L 225.1 144.0
L 217.0 144.0
"/>
<path style="fill:none;stroke:#FF5555;stroke-width:1.44;"
clip-path="url(#cp3)" d="
M 217.0 144.0
L 217.0 135.9
L 225.1 135.9
L 225.1 144.0
L 217.0 144.0
"/>
<path style="fill:none;stroke:#AAAAAA;stroke-width:1.01;"
clip-path="url(#cp3)" d="
M 234.2 144.0
L 234.2 135.9
L 237.6 144.0
L 241.1 135.9
L 241.1 144.0
"/>
<path style="fill:none;stroke:#AAAAAA;stroke-width:1.01;"
clip-path="url(#cp3)" d="
M 243.3 141.0
C 243.3 139.7 244.4 138.7 245.6 138.7
C 246.9 138.7 247.9 139.7 247.9 141.0
L 247.9 141.7
C 247.9 143.0 246.9 144.0 245.6 144.0
C 244.4 144.0 243.3 143.0 243.3 141.7
L 243.3 141.0
"/>
<path style="fill:none;stroke:#AAAAAA;stroke-width:1.01;"
clip-path="url(#cp3)" d="
M 254.7 139.6
C 254.0 138.8 252.8 138.5 251.8 138.9
C 250.8 139.3 250.1 140.2 250.1 141.3
C 250.1 142.4 250.8 143.4 251.8 143.8
C 252.8 144.2 254.0 143.9 254.7 143.1
"/>
<path style="fill:none;stroke:#AAAAAA;stroke-width:1.01;"
clip-path="url(#cp3)" d="
M 254.7 135.9
L 254.7 144.0
"/>
<path style="fill:none;stroke:#AAAAAA;stroke-width:1.01;"
clip-path="url(#cp3)" d="
M 257.0 141.3
L 261.6 141.3
L 261.6 141.0
C 261.6 139.7 260.5 138.7 259.3 138.7
C 258.0 138.7 257.0 139.7 257.0 141.0
L 257.0 141.7
C 257.0 143.0 258.0 144.0 259.3 144.0
C 260.1 144.0 260.9 143.8 261.6 143.2
"/>
<path style="fill:none;stroke:#AAAAAA;stroke-width:1.01;"
clip-path="url(#cp3)" d="
M 272.3 144.0
L 273.8 144.0
"/>
<path style="fill:none;stroke:#AAAAAA;stroke-width:1.01;"
clip-path="url(#cp3)" d="
M 273.1 144.0
L 273.1 135.9
L 272.3 137.4
"/>
<clipPath id="cp4"> <path d="
M 144.0 90.0 144.0 450.0 648.0 450.0 648.0 90.0"/> </clipPath>
<path style="fill:none;stroke:#FF55FF;stroke-width:1.44;"
clip-path="url(#cp4)" d="
M 247.9 344.6
L 317.3 322.8
"/>
<path style="fill:none;stroke:#FF55FF;stroke-width:1.44;"
clip-path="url(#cp4)" d="
M 323.5 321.0
L 392.9 303.2
"/>
<path style="fill:none;stroke:#FF55FF;stroke-width:1.44;"
clip-path="url(#cp4)" d="
M 399.1 303.4
L 468.5 325.2
"/>
<path style="fill:none;stroke:#FF55FF;stroke-width:1.44;"
clip-path="url(#cp4)" d="
M 474.8 325.4
L 544.0 309.6
"/>
<path style="stroke:none;fill:#FF55FF;"
clip-path="url(#cp4)" d="
M 248.2 345.6
L 248.2 345.3
L 248.1 344.9
L 248.0 344.6
L 247.9 344.3
L 247.8 344.0
L 247.6 343.7
L 247.4 343.4
L 247.2 343.2
L 247.0 343.0
L 246.7 342.8
L 246.4 342.6
L 246.1 342.5
L 245.8 342.4
L 245.5 342.3
L 245.1 342.2
L 244.8 342.2
L 244.5 342.2
L 244.1 342.3
L 243.8 342.4
L 243.5 342.5
L 243.2 342.6
L 242.9 342.8
L 242.6 343.0
L 242.4 343.2
L 242.2 343.4
L 242.0 343.7
L 241.8 344.0
L 241.7 344.3
L 241.6 344.6
L 241.5 344.9
L 241.4 345.3
L 241.4 345.6
L 241.4 345.9
L 241.5 346.3
L 241.6 346.6
L 241.7 346.9
L 241.8 347.2
L 242.0 347.5
L 242.2 347.8
L 242.4 348.0
L 242.6 348.2
L 242.9 348.4
L 243.2 348.6
L 243.5 348.7
L 243.8 348.8
L 244.1 348.9
L 244.5 349.0
L 244.8 349.0
L 245.1 349.0
L 245.5 348.9
L 245.8 348.8
L 246.1 348.7
L 246.4 348.6
L 246.7 348.4
L 247.0 348.2
L 247.2 348.0
L 247.4 347.8
L 247.6 347.5
L 247.8 347.2
L 247.9 346.9
L 248.0 346.6
L 248.1 346.3
L 248.2 345.9
L 248.2 345.6
"/>
<path style="fill:none;stroke:#FF55FF;stroke-width:1.44;"
clip-path="url(#cp4)" d="
M 248.2 345.6
C 248.2 343.7 246.7 342.2 244.8 342.2
C 242.9 342.2 241.4 343.7 241.4 345.6
C 241.4 347.5 242.9 349.0 244.8 349.0
C 246.7 349.0 248.2 347.5 248.2 345.6
"/>
<path style="stroke:none;fill:#FF55FF;"
clip-path="url(#cp4)" d="
M 323.8 321.8
L 323.8 321.5
L 323.7 321.2
L 323.6 320.8
L 323.5 320.5
L 323.4 320.2
L 323.2 319.9
L 323.0 319.7
L 322.8 319.4
L 322.6 319.2
L 322.3 319.0
L 322.0 318.8
L 321.7 318.7
L 321.4 318.6
L 321.1 318.5
L 320.7 318.5
L 320.4 318.4
L 320.1 318.5
L 319.7 318.5
L 319.4 318.6
L 319.1 318.7
L 318.8 318.8
L 318.5 319.0
L 318.2 319.2
L 318.0 319.4
L 317.8 319.7
L 317.6 319.9
L 317.4 320.2
L 317.3 320.5
L 317.2 320.8
L 317.1 321.2
L 317.0 321.5
L 317.0 321.8
L 317.0 322.2
L 317.1 322.5
L 317.2 322.9
L 317.3 323.2
L 317.4 323.5
L 317.6 323.7
L 317.8 324.0
L 318.0 324.2
L 318.2 324.5
L 318.5 324.7
L 318.8 324.8
L 319.1 325.0
L 319.4 325.1
L 319.7 325.2
L 320.1 325.2
L 320.4 325.2
L 320.7 325.2
L 321.1 325.2
L 321.4 325.1
L 321.7 325.0
L 322.0 324.8
L 322.3 324.7
L 322.6 324.5
L 322.8 324.2
L 323.0 324.0
L 323.2 323.7
L 323.4 323.5
L 323.5 323.2
L 323.6 322.9
L 323.7 322.5
L 323.8 322.2
L 323.8 321.8
"/>
<path style="fill:none;stroke:#FF55FF;stroke-width:1.44;"
clip-path="url(#cp4)" d="
M 323.8 321.8
C 323.8 320.0 322.3 318.4 320.4 318.4
C 318.5 318.4 317.0 320.0 317.0 321.8
C 317.0 323.7 318.5 325.2 320.4 325.2
C 322.3 325.2 323.8 323.7 323.8 321.8
"/>
<path style="stroke:none;fill:#FF55FF;"
clip-path="url(#cp4)" d="
M 399.4 302.4
L 399.4 302.1
L 399.3 301.7
L 399.2 301.4
L 399.1 301.1
L 399.0 300.8
L 398.8 300.5
L 398.6 300.2
L 398.4 300.0
L 398.2 299.8
L 397.9 299.6
L 397.6 299.4
L 397.3 299.3
L 397.0 299.2
L 396.7 299.1
L 396.3 299.0
L 396.0 299.0
L 395.7 299.0
L 395.3 299.1
L 395.0 299.2
L 394.7 299.3
L 394.4 299.4
L 394.1 299.6
L 393.8 299.8
L 393.6 300.0
L 393.4 300.2
L 393.2 300.5
L 393.0 300.8
L 392.9 301.1
L 392.8 301.4
L 392.7 301.7
L 392.6 302.1
L 392.6 302.4
L 392.6 302.7
L 392.7 303.1
L 392.8 303.4
L 392.9 303.7
L 393.0 304.0
L 393.2 304.3
L 393.4 304.6
L 393.6 304.8
L 393.8 305.0
L 394.1 305.2
L 394.4 305.4
L 394.7 305.5
L 395.0 305.6
L 395.3 305.7
L 395.7 305.8
L 396.0 305.8
L 396.3 305.8
L 396.7 305.7
L 397.0 305.6
L 397.3 305.5
L 397.6 305.4
L 397.9 305.2
L 398.2 305.0
L 398.4 304.8
L 398.6 304.6
L 398.8 304.3
L 399.0 304.0
L 399.1 303.7
L 399.2 303.4
L 399.3 303.1
L 399.4 302.7
L 399.4 302.4
"/>
<path style="fill:none;stroke:#FF55FF;stroke-width:1.44;"
clip-path="url(#cp4)" d="
M 399.4 302.4
C 399.4 300.5 397.9 299.0 396.0 299.0
C 394.1 299.0 392.6 300.5 392.6 302.4
C 392.6 304.3 394.1 305.8 396.0 305.8
C 397.9 305.8 399.4 304.3 399.4 302.4
"/>
<path style="stroke:none;fill:#FF55FF;"
clip-path="url(#cp4)" d="
M 475.0 326.2
L 475.0 325.8
L 474.9 325.5
L 474.8 325.1
L 474.7 324.8
L 474.6 324.5
L 474.4 324.3
L 474.2 324.0
L 474.0 323.8
L 473.8 323.5
L 473.5 323.3
L 473.2 323.2
L 472.9 323.0
L 472.6 322.9
L 472.3 322.8
L 471.9 322.8
L 471.6 322.8
L 471.3 322.8
L 470.9 322.8
L 470.6 322.9
L 470.3 323.0
L 470.0 323.2
L 469.7 323.3
L 469.4 323.5
L 469.2 323.8
L 469.0 324.0
L 468.8 324.3
L 468.6 324.5
L 468.5 324.8
L 468.4 325.1
L 468.3 325.5
L 468.2 325.8
L 468.2 326.2
L 468.2 326.5
L 468.3 326.8
L 468.4 327.2
L 468.5 327.5
L 468.6 327.8
L 468.8 328.1
L 469.0 328.3
L 469.2 328.6
L 469.4 328.8
L 469.7 329.0
L 470.0 329.2
L 470.3 329.3
L 470.6 329.4
L 470.9 329.5
L 471.3 329.5
L 471.6 329.6
L 471.9 329.5
L 472.3 329.5
L 472.6 329.4
L 472.9 329.3
L 473.2 329.2
L 473.5 329.0
L 473.8 328.8
L 474.0 328.6
L 474.2 328.3
L 474.4 328.1
L 474.6 327.8
L 474.7 327.5
L 474.8 327.2
L 474.9 326.8
L 475.0 326.5
L 475.0 326.2
"/>
<path style="fill:none;stroke:#FF55FF;stroke-width:1.44;"
clip-path="url(#cp4)" d="
M 475.0 326.2
C 475.0 324.3 473.5 322.8 471.6 322.8
C 469.7 322.8 468.2 324.3 468.2 326.2
C 468.2 328.0 469.7 329.6 471.6 329.6
C 473.5 329.6 475.0 328.0 475.0 326.2
"/>
<path style="stroke:none;fill:#FF55FF;"
clip-path="url(#cp4)" d="
M 550.6 308.9
L 550.6 308.5
L 550.5 308.2
L 550.4 307.9
L 550.3 307.6
L 550.2 307.3
L 550.0 307.0
L 549.8 306.7
L 549.6 306.5
L 549.4 306.3
L 549.1 306.1
L 548.8 305.9
L 548.5 305.7
L 548.2 305.6
L 547.9 305.5
L 547.5 305.5
L 547.2 305.5
L 546.9 305.5
L 546.5 305.5
L 546.2 305.6
L 545.9 305.7
L 545.6 305.9
L 545.3 306.1
L 545.0 306.3
L 544.8 306.5
L 544.6 306.7
L 544.4 307.0
L 544.2 307.3
L 544.1 307.6
L 544.0 307.9
L 543.9 308.2
L 543.8 308.5
L 543.8 308.9
L 543.8 309.2
L 543.9 309.6
L 544.0 309.9
L 544.1 310.2
L 544.2 310.5
L 544.4 310.8
L 544.6 311.0
L 544.8 311.3
L 545.0 311.5
L 545.3 311.7
L 545.6 311.9
L 545.9 312.0
L 546.2 312.1
L 546.5 312.2
L 546.9 312.3
L 547.2 312.3
L 547.5 312.3
L 547.9 312.2
L 548.2 312.1
L 548.5 312.0
L 548.8 311.9
L 549.1 311.7
L 549.4 311.5
L 549.6 311.3
L 549.8 311.0
L 550.0 310.8
L 550.2 310.5
L 550.3 310.2
L 550.4 309.9
L 550.5 309.6
L 550.6 309.2
L 550.6 308.9
"/>
<path style="fill:none;stroke:#FF55FF;stroke-width:1.44;"
clip-path="url(#cp4)" d="
M 550.6 308.9
C 550.6 307.0 549.1 305.5 547.2 305.5
C 545.3 305.5 543.8 307.0 543.8 308.9
C 543.8 310.8 545.3 312.3 547.2 312.3
C 549.1 312.3 550.6 310.8 550.6 308.9
"/>
<clipPath id="cp5"> <path d="
M 0.0 0.0 0.0 576.0 756.0 576.0 756.0 0.0"/> </clipPath>
<path style="stroke:none;fill:#FF55FF;"
clip-path="url(#cp5)" d="
M 225.3 154.3
L 225.3 153.9
L 225.2 153.5
L 225.1 153.1
L 225.0 152.7
L 224.8 152.3
L 224.6 152.0
L 224.3 151.6
L 224.1 151.3
L 223.8 151.1
L 223.4 150.8
L 223.1 150.6
L 222.7 150.4
L 222.3 150.3
L 221.9 150.2
L 221.5 150.1
L 221.1 150.1
L 220.6 150.1
L 220.2 150.2
L 219.8 150.3
L 219.4 150.4
L 219.0 150.6
L 218.7 150.8
L 218.4 151.1
L 218.1 151.3
L 217.8 151.6
L 217.5 152.0
L 217.3 152.3
L 217.1 152.7
L 217.0 153.1
L 216.9 153.5
L 216.8 153.9
L 216.8 154.3
L 216.8 154.8
L 216.9 155.2
L 217.0 155.6
L 217.1 156.0
L 217.3 156.4
L 217.5 156.7
L 217.8 157.1
L 218.1 157.4
L 218.4 157.6
L 218.7 157.9
L 219.0 158.1
L 219.4 158.3
L 219.8 158.4
L 220.2 158.5
L 220.6 158.6
L 221.1 158.6
L 221.5 158.6
L 221.9 158.5
L 222.3 158.4
L 222.7 158.3
L 223.1 158.1
L 223.4 157.9
L 223.8 157.6
L 224.1 157.4
L 224.3 157.1
L 224.6 156.7
L 224.8 156.4
L 225.0 156.0
L 225.1 155.6
L 225.2 155.2
L 225.3 154.8
L 225.3 154.3
"/>
<path style="fill:none;stroke:#FF55FF;stroke-width:1.44;"
clip-path="url(#cp5)" d="
M 225.3 154.3
C 225.3 152.0 223.4 150.1 221.1 150.1
C 218.7 150.1 216.8 152.0 216.8 154.3
C 216.8 156.7 218.7 158.6 221.1 158.6
C 223.4 158.6 225.3 156.7 225.3 154.3
"/>
<path style="fill:none;stroke:#AAAAAA;stroke-width:1.01;"
clip-path="url(#cp5)" d="
M 234.2 158.4
L 234.2 150.3
L 237.6 158.4
L 241.1 150.3
L 241.1 158.4
"/>
<path style="fill:none;stroke:#AAAAAA;stroke-width:1.01;"
clip-path="url(#cp5)" d="
M 243.3 155.4
C 243.3 154.1 244.4 153.1 245.6 153.1
C 246.9 153.1 247.9 154.1 247.9 155.4
L 247.9 156.1
C 247.9 157.4 246.9 158.4 245.6 158.4
C 244.4 158.4 243.3 157.4 243.3 156.1
L 243.3 155.4
"/>
<path style="fill:none;stroke:#AAAAAA;stroke-width:1.01;"
clip-path="url(#cp5)" d="
M 254.7 154.0
C 254.0 153.2 252.8 152.9 251.8 153.3
C 250.8 153.7 250.1 154.6 250.1 155.7
C 250.1 156.8 250.8 157.8 251.8 158.2
C 252.8 158.6 254.0 158.3 254.7 157.5
"/>
<path style="fill:none;stroke:#AAAAAA;stroke-width:1.01;"
clip-path="url(#cp5)" d="
M 254.7 150.3
L 254.7 158.4
"/>
<path style="fill:none;stroke:#AAAAAA;stroke-width:1.01;"
clip-path="url(#cp5)" d="
M 257.0 155.7
L 261.6 155.7
L 261.6 155.4
C 261.6 154.1 260.5 153.1 259.3 153.1
C 258.0 153.1 257.0 154.1 257.0 155.4
L 257.0 156.1
C 257.0 157.4 258.0 158.4 259.3 158.4
C 260.1 158.4 260.9 158.2 261.6 157.6
"/>
<path style="fill:none;stroke:#AAAAAA;stroke-width:1.01;"
clip-path="url(#cp5)" d="
M 270.8 152.6
C 270.8 151.3 271.8 150.3 273.1 150.3
C 274.3 150.3 275.4 151.3 275.4 152.6
C 275.3 153.2 274.9 153.8 274.3 154.1
L 273.1 154.9
C 271.7 155.5 270.9 156.9 270.8 158.4
L 275.4 158.4
"/>
<clipPath id="cp6"> <path d="
M 144.0 90.0 144.0 450.0 648.0 450.0 648.0 90.0"/> </clipPath>
<path style="fill:none;stroke:#FFFF55;stroke-width:1.44;"
clip-path="url(#cp6)" d="
M 247.6 336.4
L 317.6 376.4
"/>
<path style="fill:none;stroke:#FFFF55;stroke-width:1.44;"
clip-path="url(#cp6)" d="
M 323.6 378.0
L 392.8 378.0
"/>
<path style="fill:none;stroke:#FFFF55;stroke-width:1.44;"
clip-path="url(#cp6)" d="
M 399.2 378.0
L 468.4 378.0
"/>
<path style="fill:none;stroke:#FFFF55;stroke-width:1.44;"
clip-path="url(#cp6)" d="
M 474.7 377.0
L 544.1 355.2
"/>
<path style="stroke:none;fill:#FFFF55;"
clip-path="url(#cp6)" d="
M 244.8 331.7
L 248.4 337.9
L 241.7 337.9
L 244.8 331.7
"/>
<path style="fill:none;stroke:#FFFF55;stroke-width:1.44;"
clip-path="url(#cp6)" d="
M 244.8 331.7
L 248.4 337.9
L 241.7 337.9
L 244.8 331.7
"/>
<path style="stroke:none;fill:#FFFF55;"
clip-path="url(#cp6)" d="
M 320.4 374.9
L 324.0 381.1
L 317.3 381.1
L 320.4 374.9
"/>
<path style="fill:none;stroke:#FFFF55;stroke-width:1.44;"
clip-path="url(#cp6)" d="
M 320.4 374.9
L 324.0 381.1
L 317.3 381.1
L 320.4 374.9
"/>
<path style="stroke:none;fill:#FFFF55;"
clip-path="url(#cp6)" d="
M 396.0 374.9
L 399.6 381.1
L 392.9 381.1
L 396.0 374.9
"/>
<path style="fill:none;stroke:#FFFF55;stroke-width:1.44;"
clip-path="url(#cp6)" d="
M 396.0 374.9
L 399.6 381.1
L 392.9 381.1
L 396.0 374.9
"/>
<path style="stroke:none;fill:#FFFF55;"
clip-path="url(#cp6)" d="
M 471.6 374.9
L 475.2 381.1
L 468.5 381.1
L 471.6 374.9
"/>
<path style="fill:none;stroke:#FFFF55;stroke-width:1.44;"
clip-path="url(#cp6)" d="
M 471.6 374.9
L 475.2 381.1
L 468.5 381.1
L 471.6 374.9
"/>
<path style="stroke:none;fill:#FFFF55;"
clip-path="url(#cp6)" d="
M 547.2 351.1
L 550.8 357.4
L 544.1 357.4
L 547.2 351.1
"/>
<path style="fill:none;stroke:#FFFF55;stroke-width:1.44;"
clip-path="url(#cp6)" d="
M 547.2 351.1
L 550.8 357.4
L 544.1 357.4
L 547.2 351.1
"/>
<clipPath id="cp7"> <path d="
M 0.0 0.0 0.0 576.0 756.0 576.0 756.0 0.0"/> </clipPath>
<path style="stroke:none;fill:#FFFF55;"
clip-path="url(#cp7)" d="
M 221.1 164.9
L 225.5 172.6
L 217.2 172.6
L 221.1 164.9
"/>
<path style="fill:none;stroke:#FFFF55;stroke-width:1.44;"
clip-path="url(#cp7)" d="
M 221.1 164.9
L 225.5 172.6
L 217.2 172.6
L 221.1 164.9
"/>
<path style="fill:none;stroke:#AAAAAA;stroke-width:1.01;"
clip-path="url(#cp7)" d="
M 234.2 172.8
L 234.2 164.7
L 237.6 172.8
L 241.1 164.7
L 241.1 172.8
"/>
<path style="fill:none;stroke:#AAAAAA;stroke-width:1.01;"
clip-path="url(#cp7)" d="
M 243.3 169.8
C 243.3 168.5 244.4 167.5 245.6 167.5
C 246.9 167.5 247.9 168.5 247.9 169.8
L 247.9 170.5
C 247.9 171.8 246.9 172.8 245.6 172.8
C 244.4 172.8 243.3 171.8 243.3 170.5
L 243.3 169.8
"/>
<path style="fill:none;stroke:#AAAAAA;stroke-width:1.01;"
clip-path="url(#cp7)" d="
M 254.7 168.4
C 254.0 167.6 252.8 167.3 251.8 167.7
C 250.8 168.1 250.1 169.0 250.1 170.1
C 250.1 171.2 250.8 172.2 251.8 172.6
C 252.8 173.0 254.0 172.7 254.7 171.9
"/>
<path style="fill:none;stroke:#AAAAAA;stroke-width:1.01;"
clip-path="url(#cp7)" d="
M 254.7 164.7
L 254.7 172.8
"/>
<path style="fill:none;stroke:#AAAAAA;stroke-width:1.01;"
clip-path="url(#cp7)" d="
M 257.0 170.1
L 261.6 170.1
L 261.6 169.8
C 261.6 168.5 260.5 167.5 259.3 167.5
C 258.0 167.5 257.0 168.5 257.0 169.8
L 257.0 170.5
C 257.0 171.8 258.0 172.8 259.3 172.8
C 260.1 172.8 260.9 172.6 261.6 172.0
"/>
<path style="fill:none;stroke:#AAAAAA;stroke-width:1.01;"
clip-path="url(#cp7)" d="
M 271.3 165.7
C 271.6 165.1 272.3 164.7 273.0 164.7
C 273.7 164.7 274.3 165.1 274.7 165.7
C 275.0 166.3 275.0 167.1 274.6 167.6
C 274.2 168.2 273.5 168.6 272.8 168.5
L 272.1 168.5
"/>
<path style="fill:none;stroke:#AAAAAA;stroke-width:1.01;"
clip-path="url(#cp7)" d="
M 272.8 168.5
C 273.7 168.4 274.5 168.8 274.9 169.5
C 275.4 170.2 275.4 171.1 274.9 171.8
C 274.5 172.5 273.7 172.9 272.8 172.8
C 272.0 172.7 271.3 172.1 271.1 171.3
"/>
<clipPath id="cp8"> <path d="
M 144.0 90.0 144.0 450.0 648.0 450.0 648.0 90.0"/> </clipPath>
<path style="fill:none;stroke:#FFFFFF;stroke-width:1.08;"
clip-path="url(#cp8)" d="
M 207.0 129.6
L 305.3 129.6
L 305.3 179.3
L 207.0 179.3
L 207.0 129.6
"/>
</g><!-- page 1 -->
</g><!-- EOF -->
</svg>
