<?xml version="1.0" standalone="no"?>
<!DOCTYPE svg PUBLIC "-//W3C//DTD SVG 1.1//EN"
"http://www.w3.org/Graphics/SVG/1.1/DTD/svg11.dtd">
<svg width="7.56in" height="5.76in" viewbox="0 0 756 576"
    xmlns="http://www.w3.org/2000/svg" version="1.1">
<title>
plots/eq1.plt
</title>
<desc>
Creator: BTNRH PLT
Date: Sun Aug  2 06:51:18 2026
</desc>
<g style="stroke-linecap:round;stroke-linejoin:round">
<g id="page 1">
<clipPath id="cp1"> <path d="
M 0.0 0.0 0.0 576.0 756.0 576.0 756.0 0.0"/> </clipPath>
<path style="stroke:none;fill:#FFFFFF;" d="
M 0.0 0.0L 0.0 576.0L 756.0 576.0L 756.0 0.0"/>
<path style="stroke:none;fill:#000000;"
clip-path="url(#cp1)" d="
M 274.9 447.8
L 274.9 447.8
L 274.9 447.7
L 274.9 447.6
L 274.8 447.6
L 274.8 447.5
L 274.8 447.5
L 274.7 447.4
L 274.7 447.4
L 274.6 447.4
L 274.6 447.3
L 274.5 447.3
L 274.5 447.3
L 274.4 447.3
L 274.3 447.3
L 274.3 447.3
L 274.2 447.3
L 274.1 447.3
L 274.1 447.3
L 274.0 447.4
L 274.0 447.4
L 273.9 447.4
L 273.9 447.5
L 273.8 447.5
L 273.8 447.6
L 273.8 447.6
L 273.8 447.7
L 273.8 447.8
L 273.8 447.8
L 273.8 447.9
L 273.8 448.0
L 273.8 448.0
L 273.8 448.1
L 273.8 448.1
L 273.9 448.2
L 273.9 448.2
L 274.0 448.3
L 274.0 448.3
L 274.1 448.3
L 274.1 448.4
L 274.2 448.4
L 274.3 448.4
L 274.3 448.4
L 274.4 448.4
L 274.5 448.4
L 274.5 448.4
L 274.6 448.3
L 274.6 448.3
L 274.7 448.3
L 274.7 448.2
L 274.8 448.2
L 274.8 448.1
L 274.8 448.1
L 274.9 448.0
L 274.9 448.0
L 274.9 447.9
L 274.9 447.8
"/>
<path style="fill:none;stroke:#000000;stroke-width:2.04;"
clip-path="url(#cp1)" d="
M 274.9 447.8
C 274.9 447.5 274.6 447.3 274.3 447.3
C 274.0 447.3 273.8 447.5 273.8 447.8
C 273.8 448.2 274.0 448.4 274.3 448.4
C 274.6 448.4 274.9 448.2 274.9 447.8
"/>
<path style="stroke:none;fill:#000000;"
clip-path="url(#cp1)" d="
M 279.9 447.8
L 279.9 447.8
L 279.9 447.7
L 279.9 447.6
L 279.9 447.6
L 279.8 447.5
L 279.8 447.5
L 279.8 447.4
L 279.7 447.4
L 279.7 447.4
L 279.6 447.3
L 279.6 447.3
L 279.5 447.3
L 279.4 447.3
L 279.4 447.3
L 279.3 447.3
L 279.2 447.3
L 279.2 447.3
L 279.1 447.3
L 279.1 447.4
L 279.0 447.4
L 279.0 447.4
L 278.9 447.5
L 278.9 447.5
L 278.9 447.6
L 278.8 447.6
L 278.8 447.7
L 278.8 447.8
L 278.8 447.8
L 278.8 447.9
L 278.8 448.0
L 278.8 448.0
L 278.9 448.1
L 278.9 448.1
L 278.9 448.2
L 279.0 448.2
L 279.0 448.3
L 279.1 448.3
L 279.1 448.3
L 279.2 448.4
L 279.2 448.4
L 279.3 448.4
L 279.4 448.4
L 279.4 448.4
L 279.5 448.4
L 279.6 448.4
L 279.6 448.3
L 279.7 448.3
L 279.7 448.3
L 279.8 448.2
L 279.8 448.2
L 279.8 448.1
L 279.9 448.1
L 279.9 448.0
L 279.9 448.0
L 279.9 447.9
L 279.9 447.8
"/>
<path style="fill:none;stroke:#000000;stroke-width:2.04;"
clip-path="url(#cp1)" d="
M 279.9 447.8
C 279.9 447.5 279.7 447.3 279.4 447.3
C 279.0 447.3 278.8 447.5 278.8 447.8
C 278.8 448.2 279.0 448.4 279.4 448.4
C 279.7 448.4 279.9 448.2 279.9 447.8
"/>
<path style="stroke:none;fill:#000000;"
clip-path="url(#cp1)" d="
M 274.9 231.8
L 274.9 231.8
L 274.9 231.7
L 274.9 231.6
L 274.8 231.6
L 274.8 231.5
L 274.8 231.5
L 274.7 231.4
L 274.7 231.4
L 274.6 231.4
L 274.6 231.3
L 274.5 231.3
L 274.5 231.3
L 274.4 231.3
L 274.3 231.3
L 274.3 231.3
L 274.2 231.3
L 274.1 231.3
L 274.1 231.3
L 274.0 231.4
L 274.0 231.4
L 273.9 231.4
L 273.9 231.5
L 273.8 231.5
L 273.8 231.6
L 273.8 231.6
L 273.8 231.7
L 273.8 231.8
L 273.8 231.8
L 273.8 231.9
L 273.8 232.0
L 273.8 232.0
L 273.8 232.1
L 273.8 232.1
L 273.9 232.2
L 273.9 232.2
L 274.0 232.3
L 274.0 232.3
L 274.1 232.3
L 274.1 232.4
L 274.2 232.4
L 274.3 232.4
L 274.3 232.4
L 274.4 232.4
L 274.5 232.4
L 274.5 232.4
L 274.6 232.3
L 274.6 232.3
L 274.7 232.3
L 274.7 232.2
L 274.8 232.2
L 274.8 232.1
L 274.8 232.1
L 274.9 232.0
L 274.9 232.0
L 274.9 231.9
L 274.9 231.8
"/>
<path style="fill:none;stroke:#000000;stroke-width:2.04;"
clip-path="url(#cp1)" d="
M 274.9 231.8
C 274.9 231.5 274.6 231.3 274.3 231.3
C 274.0 231.3 273.8 231.5 273.8 231.8
C 273.8 232.2 274.0 232.4 274.3 232.4
C 274.6 232.4 274.9 232.2 274.9 231.8
"/>
<path style="stroke:none;fill:#000000;"
clip-path="url(#cp1)" d="
M 279.9 231.8
L 279.9 231.8
L 279.9 231.7
L 279.9 231.6
L 279.9 231.6
L 279.8 231.5
L 279.8 231.5
L 279.8 231.4
L 279.7 231.4
L 279.7 231.4
L 279.6 231.3
L 279.6 231.3
L 279.5 231.3
L 279.4 231.3
L 279.4 231.3
L 279.3 231.3
L 279.2 231.3
L 279.2 231.3
L 279.1 231.3
L 279.1 231.4
L 279.0 231.4
L 279.0 231.4
L 278.9 231.5
L 278.9 231.5
L 278.9 231.6
L 278.8 231.6
L 278.8 231.7
L 278.8 231.8
L 278.8 231.8
L 278.8 231.9
L 278.8 232.0
L 278.8 232.0
L 278.9 232.1
L 278.9 232.1
L 278.9 232.2
L 279.0 232.2
L 279.0 232.3
L 279.1 232.3
L 279.1 232.3
L 279.2 232.4
L 279.2 232.4
L 279.3 232.4
L 279.4 232.4
L 279.4 232.4
L 279.5 232.4
L 279.6 232.4
L 279.6 232.3
L 279.7 232.3
L 279.7 232.3
L 279.8 232.2
L 279.8 232.2
L 279.8 232.1
L 279.9 232.1
L 279.9 232.0
L 279.9 232.0
L 279.9 231.9
L 279.9 231.8
"/>
<path style="fill:none;stroke:#000000;stroke-width:2.04;"
clip-path="url(#cp1)" d="
M 279.9 231.8
C 279.9 231.5 279.7 231.3 279.4 231.3
C 279.0 231.3 278.8 231.5 278.8 231.8
C 278.8 232.2 279.0 232.4 279.4 232.4
C 279.7 232.4 279.9 232.2 279.9 231.8
"/>
<path style="fill:none;stroke:#000000;stroke-width:2.16;"
clip-path="url(#cp1)" d="
M 158.6 60.3
C 157.0 57.1 152.6 56.7 150.3 59.4
C 147.6 62.5 147.6 67.1 150.3 70.2
C 152.6 72.9 157.0 72.5 158.6 69.3
"/>
<path style="fill:none;stroke:#000000;stroke-width:2.16;"
clip-path="url(#cp1)" d="
M 162.7 66.6
C 162.7 64.4 164.5 62.6 166.7 62.6
C 169.0 62.6 170.8 64.4 170.8 66.6
L 170.8 67.9
C 170.8 70.2 169.0 72.0 166.7 72.0
C 164.5 72.0 162.7 70.2 162.7 67.9
L 162.7 66.6
"/>
<path style="fill:none;stroke:#000000;stroke-width:2.16;"
clip-path="url(#cp1)" d="
M 182.9 64.1
C 181.6 62.7 179.6 62.2 177.7 62.9
C 175.9 63.6 174.7 65.3 174.7 67.3
C 174.7 69.2 175.9 71.0 177.7 71.7
C 179.6 72.4 181.6 71.9 182.9 70.4
"/>
<path style="fill:none;stroke:#000000;stroke-width:2.16;"
clip-path="url(#cp1)" d="
M 187.0 72.0
L 187.0 57.6
"/>
<path style="fill:none;stroke:#000000;stroke-width:2.16;"
clip-path="url(#cp1)" d="
M 187.0 66.6
C 187.0 64.4 188.8 62.6 191.0 62.6
C 193.3 62.6 195.1 64.4 195.1 66.6
L 195.1 72.0
"/>
<path style="fill:none;stroke:#000000;stroke-width:2.16;"
clip-path="url(#cp1)" d="
M 199.8 72.0
L 199.8 57.6
"/>
<path style="fill:none;stroke:#000000;stroke-width:2.16;"
clip-path="url(#cp1)" d="
M 204.5 67.3
L 212.6 67.3
L 212.6 66.6
C 212.6 64.4 210.8 62.6 208.6 62.6
C 206.3 62.6 204.5 64.4 204.5 66.6
L 204.5 67.9
C 204.5 70.2 206.3 72.0 208.6 72.0
C 210.0 72.0 211.5 71.6 212.6 70.6
"/>
<path style="fill:none;stroke:#000000;stroke-width:2.16;"
clip-path="url(#cp1)" d="
M 224.8 64.1
C 223.5 62.7 221.4 62.2 219.6 62.9
C 217.8 63.6 216.6 65.3 216.6 67.3
C 216.6 69.2 217.8 71.0 219.6 71.7
C 221.4 72.4 223.5 71.9 224.8 70.4
"/>
<path style="fill:none;stroke:#000000;stroke-width:2.16;"
clip-path="url(#cp1)" d="
M 224.8 62.6
L 224.8 72.0
"/>
<path style="fill:none;stroke:#000000;stroke-width:2.16;"
clip-path="url(#cp1)" d="
M 228.8 62.6
L 228.8 72.0
"/>
<path style="fill:none;stroke:#000000;stroke-width:2.16;"
clip-path="url(#cp1)" d="
M 228.8 65.2
C 229.5 63.7 231.0 62.6 232.7 62.5
C 234.5 62.4 236.1 63.3 236.9 64.8
"/>
<path style="fill:none;stroke:#000000;stroke-width:2.16;"
clip-path="url(#cp1)" d="
M 253.4 72.0
L 253.4 57.6
L 259.4 72.0
L 265.5 57.6
L 265.5 72.0
"/>
<path style="fill:none;stroke:#000000;stroke-width:2.16;"
clip-path="url(#cp1)" d="
M 269.6 66.6
C 269.6 64.4 271.4 62.6 273.6 62.6
C 275.8 62.6 277.7 64.4 277.7 66.6
L 277.7 67.9
C 277.7 70.2 275.8 72.0 273.6 72.0
C 271.4 72.0 269.6 70.2 269.6 67.9
L 269.6 66.6
"/>
<path style="fill:none;stroke:#000000;stroke-width:2.16;"
clip-path="url(#cp1)" d="
M 289.8 64.1
C 288.5 62.7 286.4 62.2 284.6 62.9
C 282.8 63.6 281.6 65.3 281.6 67.3
C 281.6 69.2 282.8 71.0 284.6 71.7
C 286.4 72.4 288.5 71.9 289.8 70.4
"/>
<path style="fill:none;stroke:#000000;stroke-width:2.16;"
clip-path="url(#cp1)" d="
M 289.8 57.6
L 289.8 72.0
"/>
<path style="fill:none;stroke:#000000;stroke-width:2.16;"
clip-path="url(#cp1)" d="
M 293.9 67.3
L 302.0 67.3
L 302.0 66.6
C 302.0 64.4 300.1 62.6 297.9 62.6
C 295.7 62.6 293.9 64.4 293.9 66.6
L 293.9 67.9
C 293.9 70.2 295.7 72.0 297.9 72.0
C 299.4 72.0 300.8 71.6 302.0 70.6
"/>
<path style="fill:none;stroke:#000000;stroke-width:2.16;"
clip-path="url(#cp1)" d="
M 306.7 72.0
L 306.7 57.6
"/>
<path style="fill:none;stroke:#000000;stroke-width:2.16;"
clip-path="url(#cp1)" d="
M 332.8 57.6
L 323.8 57.6
L 323.8 72.0
L 332.8 72.0
"/>
<path style="fill:none;stroke:#000000;stroke-width:2.16;"
clip-path="url(#cp1)" d="
M 323.8 64.1
L 330.1 64.1
"/>
<path style="fill:none;stroke:#000000;stroke-width:2.16;"
clip-path="url(#cp1)" d="
M 344.9 64.1
C 343.6 62.7 341.6 62.2 339.7 62.9
C 337.9 63.6 336.7 65.3 336.7 67.3
C 336.7 69.2 337.9 71.0 339.7 71.7
C 341.6 72.4 343.6 71.9 344.9 70.4
"/>
<path style="fill:none;stroke:#000000;stroke-width:2.16;"
clip-path="url(#cp1)" d="
M 344.9 62.6
L 344.9 76.7
"/>
<path style="fill:none;stroke:#000000;stroke-width:2.16;"
clip-path="url(#cp1)" d="
M 349.0 62.6
L 349.0 67.9
C 349.0 70.2 350.8 72.0 353.0 72.0
C 355.3 72.0 357.1 70.2 357.1 67.9
"/>
<path style="fill:none;stroke:#000000;stroke-width:2.16;"
clip-path="url(#cp1)" d="
M 357.1 62.6
L 357.1 72.0
"/>
<path style="fill:none;stroke:#000000;stroke-width:2.16;"
clip-path="url(#cp1)" d="
M 369.2 64.1
C 367.9 62.7 365.9 62.2 364.0 62.9
C 362.2 63.6 361.0 65.3 361.0 67.3
C 361.0 69.2 362.2 71.0 364.0 71.7
C 365.9 72.4 367.9 71.9 369.2 70.4
"/>
<path style="fill:none;stroke:#000000;stroke-width:2.16;"
clip-path="url(#cp1)" d="
M 369.2 62.6
L 369.2 72.0
"/>
<path style="fill:none;stroke:#000000;stroke-width:2.16;"
clip-path="url(#cp1)" d="
M 376.0 57.6
L 376.0 72.0
"/>
<path style="fill:none;stroke:#000000;stroke-width:2.16;"
clip-path="url(#cp1)" d="
M 373.3 62.6
L 378.7 62.6
"/>
<path style="fill:none;stroke:#000000;stroke-width:2.16;"
clip-path="url(#cp1)" d="
M 383.4 72.0
L 383.4 62.6
"/>
<path style="fill:none;stroke:#000000;stroke-width:2.16;"
clip-path="url(#cp1)" d="
M 382.9 58.1
C 382.9 58.3 383.2 58.5 383.4 58.5
C 383.6 58.5 383.8 58.3 383.8 58.1
C 383.8 57.8 383.6 57.6 383.4 57.6
C 383.2 57.6 382.9 57.8 382.9 58.1
"/>
<path style="fill:none;stroke:#000000;stroke-width:2.16;"
clip-path="url(#cp1)" d="
M 387.9 66.6
C 387.9 64.4 389.7 62.6 391.9 62.6
C 394.2 62.6 396.0 64.4 396.0 66.6
L 396.0 67.9
C 396.0 70.2 394.2 72.0 391.9 72.0
C 389.7 72.0 387.9 70.2 387.9 67.9
L 387.9 66.6
"/>
<path style="fill:none;stroke:#000000;stroke-width:2.16;"
clip-path="url(#cp1)" d="
M 400.0 72.0
L 400.0 62.6
"/>
<path style="fill:none;stroke:#000000;stroke-width:2.16;"
clip-path="url(#cp1)" d="
M 400.0 66.6
C 400.0 64.4 401.9 62.6 404.1 62.6
C 406.3 62.6 408.1 64.4 408.1 66.6
L 408.1 72.0
"/>
<path style="fill:none;stroke:#000000;stroke-width:2.16;"
clip-path="url(#cp1)" d="
M 419.8 64.3
C 418.2 62.3 415.2 61.9 413.1 63.4
C 412.1 64.1 412.1 65.7 413.1 66.4
C 414.1 66.9 415.1 67.2 416.2 67.3
C 417.4 67.3 418.4 67.6 419.4 68.2
C 420.4 68.9 420.4 70.4 419.4 71.1
C 417.1 72.6 414.1 72.2 412.2 70.2
"/>
<path style="fill:none;stroke:#000000;stroke-width:1.80;"
clip-path="url(#cp1)" d="
M 242.6 131.2
C 242.6 129.1 240.8 127.4 238.7 127.4
C 236.6 127.4 234.9 129.1 234.9 131.2
L 234.9 133.0
C 235.0 134.7 236.2 136.2 237.9 136.6
C 239.6 136.9 241.3 136.1 242.1 134.6
C 243.1 131.5 243.1 128.2 242.1 125.1
C 241.3 122.9 238.8 121.8 236.7 122.9
"/>
<path style="fill:none;stroke:#000000;stroke-width:1.44;"
clip-path="url(#cp1)" d="
M 246.6 118.4
C 246.6 116.7 248.1 115.2 249.9 115.2
C 251.7 115.2 253.1 116.7 253.1 118.4
C 253.1 119.4 252.5 120.2 251.7 120.6
L 249.9 121.7
C 248.0 122.7 246.7 124.6 246.6 126.7
L 253.1 126.7
"/>
<path style="fill:none;stroke:#000000;stroke-width:1.80;"
clip-path="url(#cp1)" d="
M 329.0 131.2
C 329.0 129.1 327.3 127.4 325.2 127.4
C 323.1 127.4 321.3 129.1 321.3 131.2
L 321.3 133.0
C 321.4 134.7 322.6 136.2 324.3 136.6
C 326.0 136.9 327.8 136.1 328.5 134.6
C 329.5 131.5 329.5 128.2 328.5 125.1
C 327.8 122.9 325.3 121.8 323.1 122.9
"/>
<path style="fill:none;stroke:#000000;stroke-width:1.44;"
clip-path="url(#cp1)" d="
M 333.1 118.4
C 333.1 116.7 334.5 115.2 336.3 115.2
C 338.1 115.2 339.6 116.7 339.6 118.4
C 339.5 119.4 339.0 120.2 338.1 120.6
L 336.3 121.7
C 334.4 122.7 333.2 124.6 333.1 126.7
L 339.6 126.7
"/>
<path style="fill:none;stroke:#000000;stroke-width:1.80;"
clip-path="url(#cp1)" d="
M 427.8 131.2
C 427.8 129.1 426.1 127.4 424.0 127.4
C 421.9 127.4 420.2 129.1 420.2 131.2
L 420.2 133.0
C 420.2 134.7 421.4 136.2 423.1 136.6
C 424.8 136.9 426.6 136.1 427.4 134.6
C 428.4 131.5 428.4 128.2 427.4 125.1
C 426.6 122.9 424.1 121.8 422.0 122.9
"/>
<path style="fill:none;stroke:#000000;stroke-width:1.44;"
clip-path="url(#cp1)" d="
M 431.9 118.4
C 431.9 116.7 433.4 115.2 435.1 115.2
C 436.9 115.2 438.4 116.7 438.4 118.4
C 438.3 119.4 437.8 120.2 436.9 120.6
L 435.1 121.7
C 433.2 122.7 432.0 124.6 431.9 126.7
L 438.4 126.7
"/>
<path style="fill:none;stroke:#000000;stroke-width:1.80;"
clip-path="url(#cp1)" d="
M 232.9 138.8
L 247.3 138.8
L 261.7 138.8
"/>
<path style="fill:none;stroke:#000000;stroke-width:1.80;"
clip-path="url(#cp1)" d="
M 317.2 138.8
L 331.6 138.8
"/>
<path style="fill:none;stroke:#000000;stroke-width:1.80;"
clip-path="url(#cp1)" d="
M 331.6 138.8
L 346.0 138.8
"/>
<path style="fill:none;stroke:#000000;stroke-width:1.80;"
clip-path="url(#cp1)" d="
M 413.9 138.8
L 428.3 138.8
"/>
<path style="fill:none;stroke:#000000;stroke-width:1.80;"
clip-path="url(#cp1)" d="
M 428.3 138.8
L 442.7 138.8
"/>
<path style="fill:none;stroke:#000000;stroke-width:1.80;"
clip-path="url(#cp1)" d="
M 242.6 157.7
C 242.6 155.6 240.8 153.8 238.7 153.8
C 236.6 153.8 234.9 155.6 234.9 157.7
L 234.9 159.5
C 235.0 161.2 236.2 162.7 237.9 163.1
C 239.6 163.4 241.3 162.6 242.1 161.0
C 243.1 158.0 243.1 154.7 242.1 151.6
C 241.3 149.4 238.8 148.3 236.7 149.3
"/>
<path style="fill:none;stroke:#000000;stroke-width:1.80;"
clip-path="url(#cp1)" d="
M 247.1 163.3
L 255.2 153.8
"/>
<path style="fill:none;stroke:#000000;stroke-width:1.80;"
clip-path="url(#cp1)" d="
M 247.1 153.8
L 255.2 163.3
"/>
<path style="fill:none;stroke:#000000;stroke-width:1.44;"
clip-path="url(#cp1)" d="
M 258.8 144.9
C 258.8 143.1 260.2 141.7 262.0 141.7
C 263.8 141.7 265.3 143.1 265.3 144.9
C 265.2 145.9 264.7 146.7 263.8 147.1
L 262.0 148.2
C 260.1 149.2 258.9 151.1 258.8 153.2
L 265.3 153.2
"/>
<path style="fill:none;stroke:#000000;stroke-width:1.80;"
clip-path="url(#cp1)" d="
M 328.8 157.7
C 328.8 155.6 327.1 153.8 324.9 153.8
C 322.8 153.8 321.1 155.6 321.1 157.7
L 321.1 159.5
C 321.2 161.2 322.4 162.7 324.1 163.1
C 325.8 163.4 327.5 162.6 328.3 161.0
C 329.3 158.0 329.3 154.7 328.3 151.6
C 327.5 149.4 325.0 148.3 322.9 149.3
"/>
<path style="fill:none;stroke:#000000;stroke-width:1.80;"
clip-path="url(#cp1)" d="
M 333.3 153.8
L 337.3 163.3
"/>
<path style="fill:none;stroke:#000000;stroke-width:1.80;"
clip-path="url(#cp1)" d="
M 341.4 153.8
L 336.0 166.4
C 335.4 167.4 334.4 168.1 333.3 168.0
"/>
<path style="fill:none;stroke:#000000;stroke-width:1.44;"
clip-path="url(#cp1)" d="
M 345.0 144.9
C 345.0 143.1 346.5 141.7 348.3 141.7
C 350.0 141.7 351.5 143.1 351.5 144.9
C 351.4 145.9 350.9 146.7 350.1 147.1
L 348.3 148.2
C 346.4 149.2 345.1 151.1 345.0 153.2
L 351.5 153.2
"/>
<path style="fill:none;stroke:#000000;stroke-width:1.80;"
clip-path="url(#cp1)" d="
M 427.4 157.7
C 427.4 155.6 425.6 153.8 423.5 153.8
C 421.4 153.8 419.7 155.6 419.7 157.7
L 419.7 159.5
C 419.8 161.2 421.0 162.7 422.7 163.1
C 424.4 163.4 426.1 162.6 426.9 161.0
C 427.9 158.0 427.9 154.7 426.9 151.6
C 426.1 149.4 423.6 148.3 421.5 149.3
"/>
<path style="fill:none;stroke:#000000;stroke-width:1.80;"
clip-path="url(#cp1)" d="
M 431.9 153.8
L 440.0 153.8
L 431.9 163.3
L 440.0 163.3
"/>
<path style="fill:none;stroke:#000000;stroke-width:1.44;"
clip-path="url(#cp1)" d="
M 443.6 144.9
C 443.6 143.1 445.1 141.7 446.8 141.7
C 448.6 141.7 450.1 143.1 450.1 144.9
C 450.0 145.9 449.5 146.7 448.6 147.1
L 446.8 148.2
C 444.9 149.2 443.7 151.1 443.6 153.2
L 450.1 153.2
"/>
<path style="fill:none;stroke:#000000;stroke-width:1.80;"
clip-path="url(#cp1)" d="
M 86.4 129.6
L 96.8 129.6
L 91.6 144.0
L 86.4 129.6
"/>
<path style="fill:none;stroke:#000000;stroke-width:1.44;"
clip-path="url(#cp1)" d="
M 100.4 125.6
C 100.4 123.9 101.8 122.4 103.6 122.4
C 105.4 122.4 106.9 123.9 106.9 125.6
C 106.8 126.6 106.3 127.4 105.4 127.8
L 103.6 128.9
C 101.7 129.9 100.5 131.8 100.4 133.9
L 106.9 133.9
"/>
<path style="fill:none;stroke:#000000;stroke-width:1.80;"
clip-path="url(#cp1)" d="
M 110.5 136.1
C 111.8 134.7 113.9 134.2 115.7 134.9
C 117.5 135.6 118.7 137.3 118.7 139.3
C 118.7 141.2 117.5 143.0 115.7 143.7
C 113.9 144.4 111.8 143.9 110.5 142.4
"/>
<path style="fill:none;stroke:#000000;stroke-width:1.80;"
clip-path="url(#cp1)" d="
M 110.5 134.6
L 110.5 148.7
"/>
<path style="fill:none;stroke:#000000;stroke-width:1.80;"
clip-path="url(#cp1)" d="
M 125.8 127.8
C 121.5 133.0 121.5 140.6 125.8 145.8
"/>
<path style="fill:none;stroke:#000000;stroke-width:1.80;"
clip-path="url(#cp1)" d="
M 129.9 144.0
L 138.0 134.6
"/>
<path style="fill:none;stroke:#000000;stroke-width:1.80;"
clip-path="url(#cp1)" d="
M 129.9 134.6
L 138.0 144.0
"/>
<path style="fill:none;stroke:#000000;stroke-width:1.80;"
clip-path="url(#cp1)" d="
M 142.0 146.0
C 142.7 145.3 143.2 144.3 143.4 143.3
C 143.4 143.0 143.1 142.6 142.7 142.6
C 142.3 142.6 142.0 143.0 142.0 143.3
C 142.0 143.7 142.3 144.0 142.7 144.0
C 143.1 144.0 143.4 143.7 143.4 143.3
"/>
<path style="fill:none;stroke:#000000;stroke-width:1.80;"
clip-path="url(#cp1)" d="
M 147.4 134.6
L 151.5 144.0
"/>
<path style="fill:none;stroke:#000000;stroke-width:1.80;"
clip-path="url(#cp1)" d="
M 155.5 134.6
L 150.1 147.1
C 149.6 148.1 148.5 148.8 147.4 148.7
"/>
<path style="fill:none;stroke:#000000;stroke-width:1.80;"
clip-path="url(#cp1)" d="
M 159.6 146.0
C 160.2 145.3 160.7 144.3 160.9 143.3
C 160.9 143.0 160.6 142.6 160.2 142.6
C 159.9 142.6 159.6 143.0 159.6 143.3
C 159.6 143.7 159.9 144.0 160.2 144.0
C 160.6 144.0 160.9 143.7 160.9 143.3
"/>
<path style="fill:none;stroke:#000000;stroke-width:1.80;"
clip-path="url(#cp1)" d="
M 165.0 134.6
L 173.1 134.6
L 165.0 144.0
L 173.1 144.0
"/>
<path style="fill:none;stroke:#000000;stroke-width:1.80;"
clip-path="url(#cp1)" d="
M 177.1 127.8
C 181.5 133.0 181.5 140.6 177.1 145.8
"/>
<path style="fill:none;stroke:#000000;stroke-width:1.80;"
clip-path="url(#cp1)" d="
M 196.7 140.4
L 207.0 140.4
"/>
<path style="fill:none;stroke:#000000;stroke-width:1.80;"
clip-path="url(#cp1)" d="
M 207.0 136.8
L 196.7 136.8
"/>
<path style="fill:none;stroke:#000000;stroke-width:1.80;"
clip-path="url(#cp1)" d="
M 196.7 133.2
L 207.0 133.2
"/>
<path style="fill:none;stroke:#000000;stroke-width:1.80;"
clip-path="url(#cp1)" d="
M 273.0 136.1
C 274.3 134.7 276.3 134.2 278.2 134.9
C 280.0 135.6 281.2 137.3 281.2 139.3
C 281.2 141.2 280.0 143.0 278.2 143.7
C 276.3 144.4 274.3 143.9 273.0 142.4
"/>
<path style="fill:none;stroke:#000000;stroke-width:1.80;"
clip-path="url(#cp1)" d="
M 273.0 134.6
L 273.0 148.7
"/>
<path style="fill:none;stroke:#000000;stroke-width:1.80;"
clip-path="url(#cp1)" d="
M 297.5 136.8
L 307.8 136.8
"/>
<path style="fill:none;stroke:#000000;stroke-width:1.80;"
clip-path="url(#cp1)" d="
M 302.7 131.6
L 302.7 142.0
"/>
<path style="fill:none;stroke:#000000;stroke-width:1.80;"
clip-path="url(#cp1)" d="
M 361.4 136.1
C 362.7 134.7 364.8 134.2 366.6 134.9
C 368.4 135.6 369.6 137.3 369.6 139.3
C 369.6 141.2 368.4 143.0 366.6 143.7
C 364.8 144.4 362.7 143.9 361.4 142.4
"/>
<path style="fill:none;stroke:#000000;stroke-width:1.80;"
clip-path="url(#cp1)" d="
M 361.4 134.6
L 361.4 148.7
"/>
<path style="fill:none;stroke:#000000;stroke-width:1.80;"
clip-path="url(#cp1)" d="
M 385.9 136.8
L 396.3 136.8
"/>
<path style="fill:none;stroke:#000000;stroke-width:1.80;"
clip-path="url(#cp1)" d="
M 391.1 131.6
L 391.1 142.0
"/>
<path style="fill:none;stroke:#000000;stroke-width:1.80;"
clip-path="url(#cp1)" d="
M 462.2 136.1
C 463.5 134.7 465.6 134.2 467.4 134.9
C 469.2 135.6 470.4 137.3 470.4 139.3
C 470.4 141.2 469.2 143.0 467.4 143.7
C 465.6 144.4 463.5 143.9 462.2 142.4
"/>
<path style="fill:none;stroke:#000000;stroke-width:1.80;"
clip-path="url(#cp1)" d="
M 462.2 134.6
L 462.2 148.7
"/>
<path style="fill:none;stroke:#000000;stroke-width:1.80;"
clip-path="url(#cp1)" d="
M 486.7 139.1
L 497.1 139.1
"/>
<path style="fill:none;stroke:#000000;stroke-width:1.80;"
clip-path="url(#cp1)" d="
M 486.7 134.6
L 497.1 134.6
"/>
<path style="fill:none;stroke:#000000;stroke-width:1.80;"
clip-path="url(#cp1)" d="
M 514.2 132.3
C 514.5 130.7 515.9 129.6 517.5 129.6
C 519.2 129.6 520.6 130.7 520.9 132.3
C 521.8 135.2 521.8 138.4 520.9 141.3
C 520.5 142.8 519.1 143.9 517.5 143.9
C 515.9 143.9 514.6 142.8 514.2 141.3
C 513.3 138.4 513.3 135.2 514.2 132.3
"/>
<path style="fill:none;stroke:#000000;stroke-width:1.80;"
clip-path="url(#cp1)" d="
M 525.6 146.0
C 526.3 145.3 526.8 144.3 527.0 143.3
C 527.0 143.0 526.7 142.6 526.3 142.6
C 525.9 142.6 525.6 143.0 525.6 143.3
C 525.6 143.7 525.9 144.0 526.3 144.0
C 526.7 144.0 527.0 143.7 527.0 143.3
"/>
<path style="fill:none;stroke:#000000;stroke-width:1.80;"
clip-path="url(#cp1)" d="
M 278.8 177.7
C 278.0 176.9 276.7 176.6 275.7 177.2
C 274.6 177.7 274.1 178.8 274.3 180.0
L 274.3 191.2
"/>
<path style="fill:none;stroke:#000000;stroke-width:1.80;"
clip-path="url(#cp1)" d="
M 272.0 181.8
L 277.4 181.8
"/>
<path style="fill:none;stroke:#000000;stroke-width:1.80;"
clip-path="url(#cp1)" d="
M 283.1 185.8
C 283.1 183.6 284.9 181.8 287.1 181.8
C 289.3 181.8 291.2 183.6 291.2 185.8
L 291.2 187.2
C 291.2 189.4 289.3 191.2 287.1 191.2
C 284.9 191.2 283.1 189.4 283.1 187.2
L 283.1 185.8
"/>
<path style="fill:none;stroke:#000000;stroke-width:1.80;"
clip-path="url(#cp1)" d="
M 295.2 181.8
L 295.2 191.2
"/>
<path style="fill:none;stroke:#000000;stroke-width:1.80;"
clip-path="url(#cp1)" d="
M 295.2 184.5
C 295.9 182.9 297.4 181.8 299.1 181.7
C 300.8 181.6 302.5 182.5 303.3 184.0
"/>
<path style="fill:none;stroke:#000000;stroke-width:1.80;"
clip-path="url(#cp1)" d="
M 320.4 179.5
C 320.7 177.9 322.1 176.8 323.8 176.8
C 325.4 176.8 326.8 177.9 327.1 179.5
C 328.0 182.5 328.0 185.6 327.1 188.5
C 326.8 190.1 325.4 191.2 323.8 191.2
C 322.2 191.2 320.8 190.1 320.4 188.5
C 319.6 185.6 319.6 182.5 320.4 179.5
"/>
<path style="fill:none;stroke:#000000;stroke-width:1.80;"
clip-path="url(#cp1)" d="
M 340.0 177.7
L 331.9 184.0
L 340.0 190.3
"/>
<path style="fill:none;stroke:#000000;stroke-width:1.80;"
clip-path="url(#cp1)" d="
M 344.0 191.2
L 352.1 181.8
"/>
<path style="fill:none;stroke:#000000;stroke-width:1.80;"
clip-path="url(#cp1)" d="
M 344.0 181.8
L 352.1 191.2
"/>
<path style="fill:none;stroke:#000000;stroke-width:1.80;"
clip-path="url(#cp1)" d="
M 364.3 177.7
L 356.2 184.0
L 364.3 190.3
"/>
<path style="fill:none;stroke:#000000;stroke-width:1.80;"
clip-path="url(#cp1)" d="
M 368.3 176.8
L 368.3 191.2
L 376.4 191.2
"/>
<path style="fill:none;stroke:#000000;stroke-width:1.80;"
clip-path="url(#cp1)" d="
M 380.5 193.3
C 381.2 192.5 381.6 191.6 381.8 190.6
C 381.8 190.2 381.5 189.9 381.1 189.9
C 380.8 189.9 380.5 190.2 380.5 190.6
C 380.5 190.9 380.8 191.2 381.1 191.2
C 381.5 191.2 381.8 190.9 381.8 190.6
"/>
<path style="fill:none;stroke:#000000;stroke-width:1.80;"
clip-path="url(#cp1)" d="
M 398.9 179.5
C 399.3 177.9 400.7 176.8 402.3 176.8
C 403.9 176.8 405.3 177.9 405.7 179.5
C 406.5 182.5 406.5 185.6 405.7 188.5
C 405.3 190.1 403.9 191.2 402.3 191.2
C 400.7 191.2 399.3 190.1 398.9 188.5
C 398.1 185.6 398.1 182.5 398.9 179.5
"/>
<path style="fill:none;stroke:#000000;stroke-width:1.80;"
clip-path="url(#cp1)" d="
M 418.5 177.7
L 410.4 184.0
L 418.5 190.3
"/>
<path style="fill:none;stroke:#000000;stroke-width:1.80;"
clip-path="url(#cp1)" d="
M 422.5 181.8
L 426.6 191.2
"/>
<path style="fill:none;stroke:#000000;stroke-width:1.80;"
clip-path="url(#cp1)" d="
M 430.6 181.8
L 425.2 194.4
C 424.7 195.4 423.7 196.0 422.5 196.0
"/>
<path style="fill:none;stroke:#000000;stroke-width:1.80;"
clip-path="url(#cp1)" d="
M 442.8 177.7
L 434.7 184.0
L 442.8 190.3
"/>
<path style="fill:none;stroke:#000000;stroke-width:1.80;"
clip-path="url(#cp1)" d="
M 446.6 176.8
L 449.8 191.2
L 452.9 176.8
L 456.1 191.2
L 459.2 176.8
"/>
<path style="fill:none;stroke:#000000;stroke-width:1.80;"
clip-path="url(#cp1)" d="
M 463.0 193.3
C 463.7 192.5 464.2 191.6 464.4 190.6
C 464.4 190.2 464.1 189.9 463.7 189.9
C 463.4 189.9 463.0 190.2 463.0 190.6
C 463.0 190.9 463.4 191.2 463.7 191.2
C 464.1 191.2 464.4 190.9 464.4 190.6
"/>
<path style="fill:none;stroke:#000000;stroke-width:1.80;"
clip-path="url(#cp1)" d="
M 481.5 179.5
C 481.8 177.9 483.2 176.8 484.9 176.8
C 486.5 176.8 487.9 177.9 488.2 179.5
C 489.1 182.5 489.1 185.6 488.2 188.5
C 487.9 190.1 486.5 191.2 484.9 191.2
C 483.3 191.2 481.9 190.1 481.5 188.5
C 480.7 185.6 480.7 182.5 481.5 179.5
"/>
<path style="fill:none;stroke:#000000;stroke-width:1.80;"
clip-path="url(#cp1)" d="
M 501.1 177.7
L 493.0 184.0
L 501.1 190.3
"/>
<path style="fill:none;stroke:#000000;stroke-width:1.80;"
clip-path="url(#cp1)" d="
M 505.1 181.8
L 513.2 181.8
L 505.1 191.2
L 513.2 191.2
"/>
<path style="fill:none;stroke:#000000;stroke-width:1.80;"
clip-path="url(#cp1)" d="
M 525.4 177.7
L 517.3 184.0
L 525.4 190.3
"/>
<path style="fill:none;stroke:#000000;stroke-width:1.80;"
clip-path="url(#cp1)" d="
M 529.4 191.2
L 529.4 176.8
"/>
<path style="fill:none;stroke:#000000;stroke-width:1.80;"
clip-path="url(#cp1)" d="
M 529.4 183.4
L 538.4 183.4
"/>
<path style="fill:none;stroke:#000000;stroke-width:1.80;"
clip-path="url(#cp1)" d="
M 538.4 191.2
L 538.4 176.8
"/>
<path style="fill:none;stroke:#000000;stroke-width:1.80;"
clip-path="url(#cp1)" d="
M 81.7 239.2
C 81.7 237.1 80.0 235.4 77.9 235.4
C 75.7 235.4 74.0 237.1 74.0 239.2
L 74.0 241.0
C 74.1 242.7 75.3 244.2 77.0 244.6
C 78.7 244.9 80.5 244.1 81.2 242.6
C 82.2 239.5 82.2 236.2 81.2 233.1
C 80.4 230.9 77.9 229.8 75.8 230.9
"/>
<path style="fill:none;stroke:#000000;stroke-width:1.80;"
clip-path="url(#cp1)" d="
M 72.0 246.8
L 86.4 246.8
L 100.8 246.8
"/>
<path style="fill:none;stroke:#000000;stroke-width:1.80;"
clip-path="url(#cp1)" d="
M 81.7 262.8
C 81.7 260.7 80.0 259.0 77.9 259.0
C 75.7 259.0 74.0 260.7 74.0 262.8
L 74.0 264.6
C 74.1 266.3 75.3 267.8 77.0 268.2
C 78.7 268.6 80.5 267.7 81.2 266.2
C 82.2 263.1 82.2 259.8 81.2 256.7
C 80.4 254.5 77.9 253.5 75.8 254.5
"/>
<path style="fill:none;stroke:#000000;stroke-width:1.80;"
clip-path="url(#cp1)" d="
M 86.2 268.4
L 94.3 259.0
"/>
<path style="fill:none;stroke:#000000;stroke-width:1.80;"
clip-path="url(#cp1)" d="
M 86.2 259.0
L 94.3 268.4
"/>
<path style="fill:none;stroke:#000000;stroke-width:1.80;"
clip-path="url(#cp1)" d="
M 111.2 244.1
C 112.5 242.7 114.5 242.2 116.3 242.9
C 118.2 243.6 119.4 245.3 119.4 247.3
C 119.4 249.2 118.2 251.0 116.3 251.7
C 114.5 252.4 112.5 251.9 111.2 250.4
"/>
<path style="fill:none;stroke:#000000;stroke-width:1.80;"
clip-path="url(#cp1)" d="
M 111.2 242.6
L 111.2 256.7
"/>
<path style="fill:none;stroke:#000000;stroke-width:1.80;"
clip-path="url(#cp1)" d="
M 126.5 235.8
C 122.1 241.0 122.1 248.6 126.5 253.8
"/>
<path style="fill:none;stroke:#000000;stroke-width:1.80;"
clip-path="url(#cp1)" d="
M 131.2 240.3
C 131.5 238.7 132.9 237.6 134.6 237.6
C 136.2 237.6 137.6 238.7 137.9 240.3
C 138.8 243.2 138.8 246.4 137.9 249.3
C 137.5 250.8 136.1 251.9 134.6 251.9
C 133.0 251.9 131.6 250.8 131.2 249.3
C 130.3 246.4 130.3 243.2 131.2 240.3
"/>
<path style="fill:none;stroke:#000000;stroke-width:1.80;"
clip-path="url(#cp1)" d="
M 142.7 254.0
C 143.3 253.3 143.8 252.3 144.0 251.3
C 144.0 251.0 143.7 250.6 143.3 250.6
C 143.0 250.6 142.7 251.0 142.7 251.3
C 142.7 251.7 143.0 252.0 143.3 252.0
C 143.7 252.0 144.0 251.7 144.0 251.3
"/>
<path style="fill:none;stroke:#000000;stroke-width:1.80;"
clip-path="url(#cp1)" d="
M 148.1 242.6
L 152.1 252.0
"/>
<path style="fill:none;stroke:#000000;stroke-width:1.80;"
clip-path="url(#cp1)" d="
M 156.2 242.6
L 150.8 255.1
C 150.2 256.1 149.2 256.8 148.1 256.7
"/>
<path style="fill:none;stroke:#000000;stroke-width:1.80;"
clip-path="url(#cp1)" d="
M 160.2 254.0
C 160.9 253.3 161.3 252.3 161.6 251.3
C 161.6 251.0 161.2 250.6 160.9 250.6
C 160.5 250.6 160.2 251.0 160.2 251.3
C 160.2 251.7 160.5 252.0 160.9 252.0
C 161.2 252.0 161.6 251.7 161.6 251.3
"/>
<path style="fill:none;stroke:#000000;stroke-width:1.80;"
clip-path="url(#cp1)" d="
M 165.6 242.6
L 173.7 242.6
L 165.6 252.0
L 173.7 252.0
"/>
<path style="fill:none;stroke:#000000;stroke-width:1.80;"
clip-path="url(#cp1)" d="
M 177.8 235.8
C 182.1 241.0 182.1 248.6 177.8 253.8
"/>
<path style="fill:none;stroke:#000000;stroke-width:1.80;"
clip-path="url(#cp1)" d="
M 197.3 247.1
L 207.7 247.1
"/>
<path style="fill:none;stroke:#000000;stroke-width:1.80;"
clip-path="url(#cp1)" d="
M 197.3 242.6
L 207.7 242.6
"/>
<path style="fill:none;stroke:#000000;stroke-width:1.80;"
clip-path="url(#cp1)" d="
M 224.1 244.8
L 234.5 244.8
"/>
<path style="fill:none;stroke:#000000;stroke-width:1.80;"
clip-path="url(#cp1)" d="
M 238.5 241.6
C 238.5 239.4 240.3 237.6 242.6 237.6
C 244.8 237.6 246.6 239.4 246.6 241.6
C 246.5 242.8 245.8 243.8 244.8 244.3
L 242.6 245.7
C 240.2 246.9 238.6 249.3 238.5 252.0
L 246.6 252.0
"/>
<path style="fill:none;stroke:#000000;stroke-width:1.80;"
clip-path="url(#cp1)" d="
M 252.5 243.4
C 251.0 245.6 250.9 248.4 252.2 250.6
C 253.5 252.2 256.0 252.4 257.4 250.9
C 258.8 248.7 258.9 245.9 257.6 243.7
C 256.2 242.4 254.0 242.3 252.5 243.4
"/>
<path style="fill:none;stroke:#000000;stroke-width:1.80;"
clip-path="url(#cp1)" d="
M 251.3 246.6
L 250.7 256.1
"/>
<path style="fill:none;stroke:#000000;stroke-width:1.80;"
clip-path="url(#cp1)" d="
M 277.0 235.8
C 276.6 236.1 276.5 236.5 276.7 236.9
C 276.8 237.3 277.2 237.6 277.7 237.6
L 279.0 237.8
C 277.0 236.8 274.6 238.1 274.3 240.4
C 274.1 242.6 276.1 244.4 278.3 243.9
C 275.7 243.0 272.9 244.8 272.7 247.5
C 272.5 250.3 274.9 252.5 277.7 252.0
C 278.4 252.2 278.8 252.9 278.7 253.7
C 278.5 254.4 277.7 254.9 277.0 254.7
"/>
<path style="fill:none;stroke:#000000;stroke-width:1.44;"
clip-path="url(#cp1)" d="
M 289.0 251.6
C 287.7 250.0 285.3 249.7 283.6 250.9
C 282.8 251.5 282.8 252.7 283.6 253.3
C 284.4 253.7 285.2 253.9 286.1 254.0
C 287.0 254.0 287.9 254.3 288.6 254.7
C 289.5 255.3 289.5 256.5 288.6 257.0
C 286.8 258.2 284.4 257.9 282.9 256.3
"/>
<path style="fill:none;stroke:#000000;stroke-width:1.80;"
clip-path="url(#cp1)" d="
M 302.9 243.9
C 303.3 243.0 304.4 242.7 305.3 243.1
C 306.1 243.5 306.5 244.6 306.0 245.5
L 305.1 252.0
"/>
<path style="fill:none;stroke:#000000;stroke-width:1.80;"
clip-path="url(#cp1)" d="
M 306.0 245.5
C 306.1 243.9 307.5 242.6 309.1 242.7
C 310.7 242.7 312.0 244.1 311.9 245.7
L 310.5 255.1
"/>
<path style="fill:none;stroke:#000000;stroke-width:1.80;"
clip-path="url(#cp1)" d="
M 319.1 235.8
C 314.7 241.0 314.7 248.6 319.1 253.8
"/>
<path style="fill:none;stroke:#000000;stroke-width:1.80;"
clip-path="url(#cp1)" d="
M 323.1 242.6
L 331.2 242.6
L 323.1 252.0
L 331.2 252.0
"/>
<path style="fill:none;stroke:#000000;stroke-width:1.80;"
clip-path="url(#cp1)" d="
M 335.3 235.8
C 339.7 241.0 339.7 248.6 335.3 253.8
"/>
<path style="fill:none;stroke:#000000;stroke-width:1.80;"
clip-path="url(#cp1)" d="
M 81.7 293.2
C 81.7 291.1 80.0 289.4 77.9 289.4
C 75.7 289.4 74.0 291.1 74.0 293.2
L 74.0 295.0
C 74.1 296.7 75.3 298.2 77.0 298.6
C 78.7 298.9 80.5 298.1 81.2 296.6
C 82.2 293.5 82.2 290.2 81.2 287.1
C 80.4 284.9 77.9 283.8 75.8 284.9
"/>
<path style="fill:none;stroke:#000000;stroke-width:1.80;"
clip-path="url(#cp1)" d="
M 72.0 300.8
L 86.4 300.8
L 100.8 300.8
"/>
<path style="fill:none;stroke:#000000;stroke-width:1.80;"
clip-path="url(#cp1)" d="
M 81.7 316.8
C 81.7 314.7 80.0 313.0 77.9 313.0
C 75.7 313.0 74.0 314.7 74.0 316.8
L 74.0 318.6
C 74.1 320.3 75.3 321.8 77.0 322.2
C 78.7 322.6 80.5 321.7 81.2 320.2
C 82.2 317.1 82.2 313.8 81.2 310.7
C 80.4 308.5 77.9 307.5 75.8 308.5
"/>
<path style="fill:none;stroke:#000000;stroke-width:1.80;"
clip-path="url(#cp1)" d="
M 86.2 322.4
L 94.3 313.0
"/>
<path style="fill:none;stroke:#000000;stroke-width:1.80;"
clip-path="url(#cp1)" d="
M 86.2 313.0
L 94.3 322.4
"/>
<path style="fill:none;stroke:#000000;stroke-width:1.80;"
clip-path="url(#cp1)" d="
M 111.2 298.1
C 112.5 296.7 114.5 296.2 116.3 296.9
C 118.2 297.6 119.4 299.3 119.4 301.3
C 119.4 303.2 118.2 305.0 116.3 305.7
C 114.5 306.4 112.5 305.9 111.2 304.4
"/>
<path style="fill:none;stroke:#000000;stroke-width:1.80;"
clip-path="url(#cp1)" d="
M 111.2 296.5
L 111.2 310.7
"/>
<path style="fill:none;stroke:#000000;stroke-width:1.80;"
clip-path="url(#cp1)" d="
M 126.5 289.8
C 122.1 295.0 122.1 302.6 126.5 307.8
"/>
<path style="fill:none;stroke:#000000;stroke-width:1.80;"
clip-path="url(#cp1)" d="
M 130.5 291.6
L 130.5 306.0
L 138.6 306.0
"/>
<path style="fill:none;stroke:#000000;stroke-width:1.80;"
clip-path="url(#cp1)" d="
M 142.7 308.0
C 143.3 307.3 143.8 306.3 144.0 305.3
C 144.0 305.0 143.7 304.6 143.3 304.6
C 143.0 304.6 142.7 305.0 142.7 305.3
C 142.7 305.7 143.0 306.0 143.3 306.0
C 143.7 306.0 144.0 305.7 144.0 305.3
"/>
<path style="fill:none;stroke:#000000;stroke-width:1.80;"
clip-path="url(#cp1)" d="
M 148.1 296.5
L 152.1 306.0
"/>
<path style="fill:none;stroke:#000000;stroke-width:1.80;"
clip-path="url(#cp1)" d="
M 156.2 296.5
L 150.8 309.1
C 150.2 310.1 149.2 310.8 148.1 310.7
"/>
<path style="fill:none;stroke:#000000;stroke-width:1.80;"
clip-path="url(#cp1)" d="
M 160.2 308.0
C 160.9 307.3 161.3 306.3 161.6 305.3
C 161.6 305.0 161.2 304.6 160.9 304.6
C 160.5 304.6 160.2 305.0 160.2 305.3
C 160.2 305.7 160.5 306.0 160.9 306.0
C 161.2 306.0 161.6 305.7 161.6 305.3
"/>
<path style="fill:none;stroke:#000000;stroke-width:1.80;"
clip-path="url(#cp1)" d="
M 165.6 296.5
L 173.7 296.5
L 165.6 306.0
L 173.7 306.0
"/>
<path style="fill:none;stroke:#000000;stroke-width:1.80;"
clip-path="url(#cp1)" d="
M 177.8 289.8
C 182.1 295.0 182.1 302.6 177.8 307.8
"/>
<path style="fill:none;stroke:#000000;stroke-width:1.80;"
clip-path="url(#cp1)" d="
M 197.3 301.0
L 207.7 301.0
"/>
<path style="fill:none;stroke:#000000;stroke-width:1.80;"
clip-path="url(#cp1)" d="
M 197.3 296.5
L 207.7 296.5
"/>
<path style="fill:none;stroke:#000000;stroke-width:1.80;"
clip-path="url(#cp1)" d="
M 224.8 294.3
C 225.1 292.7 226.5 291.6 228.2 291.6
C 229.8 291.6 231.2 292.7 231.5 294.3
C 232.4 297.2 232.4 300.4 231.5 303.3
C 231.1 304.8 229.7 305.9 228.2 305.9
C 226.6 305.9 225.2 304.8 224.8 303.3
C 223.9 300.4 223.9 297.2 224.8 294.3
"/>
<path style="fill:none;stroke:#000000;stroke-width:1.80;"
clip-path="url(#cp1)" d="
M 81.7 347.2
C 81.7 345.1 80.0 343.4 77.9 343.4
C 75.7 343.4 74.0 345.1 74.0 347.2
L 74.0 349.0
C 74.1 350.7 75.3 352.2 77.0 352.6
C 78.7 352.9 80.5 352.1 81.2 350.6
C 82.2 347.5 82.2 344.2 81.2 341.1
C 80.4 338.9 77.9 337.8 75.8 338.9
"/>
<path style="fill:none;stroke:#000000;stroke-width:1.80;"
clip-path="url(#cp1)" d="
M 72.0 354.8
L 86.4 354.8
L 100.8 354.8
"/>
<path style="fill:none;stroke:#000000;stroke-width:1.80;"
clip-path="url(#cp1)" d="
M 81.7 370.8
C 81.7 368.7 80.0 367.0 77.9 367.0
C 75.7 367.0 74.0 368.7 74.0 370.8
L 74.0 372.6
C 74.1 374.3 75.3 375.8 77.0 376.2
C 78.7 376.6 80.5 375.7 81.2 374.2
C 82.2 371.1 82.2 367.8 81.2 364.7
C 80.4 362.5 77.9 361.5 75.8 362.5
"/>
<path style="fill:none;stroke:#000000;stroke-width:1.80;"
clip-path="url(#cp1)" d="
M 86.2 367.0
L 90.2 376.4
"/>
<path style="fill:none;stroke:#000000;stroke-width:1.80;"
clip-path="url(#cp1)" d="
M 94.3 367.0
L 88.9 379.6
C 88.4 380.6 87.3 381.2 86.2 381.1
"/>
<path style="fill:none;stroke:#000000;stroke-width:1.80;"
clip-path="url(#cp1)" d="
M 111.2 352.1
C 112.5 350.7 114.5 350.2 116.3 350.9
C 118.2 351.6 119.4 353.3 119.4 355.3
C 119.4 357.2 118.2 359.0 116.3 359.7
C 114.5 360.4 112.5 359.9 111.2 358.4
"/>
<path style="fill:none;stroke:#000000;stroke-width:1.80;"
clip-path="url(#cp1)" d="
M 111.2 350.5
L 111.2 364.7
"/>
<path style="fill:none;stroke:#000000;stroke-width:1.80;"
clip-path="url(#cp1)" d="
M 126.5 343.8
C 122.1 349.0 122.1 356.6 126.5 361.8
"/>
<path style="fill:none;stroke:#000000;stroke-width:1.80;"
clip-path="url(#cp1)" d="
M 130.5 360.0
L 138.6 350.5
"/>
<path style="fill:none;stroke:#000000;stroke-width:1.80;"
clip-path="url(#cp1)" d="
M 130.5 350.5
L 138.6 360.0
"/>
<path style="fill:none;stroke:#000000;stroke-width:1.80;"
clip-path="url(#cp1)" d="
M 142.7 362.0
C 143.3 361.3 143.8 360.3 144.0 359.3
C 144.0 359.0 143.7 358.6 143.3 358.6
C 143.0 358.6 142.7 359.0 142.7 359.3
C 142.7 359.7 143.0 360.0 143.3 360.0
C 143.7 360.0 144.0 359.7 144.0 359.3
"/>
<path style="fill:none;stroke:#000000;stroke-width:1.80;"
clip-path="url(#cp1)" d="
M 148.7 348.3
C 149.1 346.7 150.5 345.6 152.1 345.6
C 153.7 345.6 155.1 346.7 155.5 348.3
C 156.3 351.2 156.3 354.4 155.5 357.3
C 155.1 358.8 153.7 359.9 152.1 359.9
C 150.5 359.9 149.1 358.8 148.7 357.3
C 147.9 354.4 147.9 351.2 148.7 348.3
"/>
<path style="fill:none;stroke:#000000;stroke-width:1.80;"
clip-path="url(#cp1)" d="
M 160.2 362.0
C 160.9 361.3 161.3 360.3 161.6 359.3
C 161.6 359.0 161.2 358.6 160.9 358.6
C 160.5 358.6 160.2 359.0 160.2 359.3
C 160.2 359.7 160.5 360.0 160.9 360.0
C 161.2 360.0 161.6 359.7 161.6 359.3
"/>
<path style="fill:none;stroke:#000000;stroke-width:1.80;"
clip-path="url(#cp1)" d="
M 165.6 350.5
L 173.7 350.5
L 165.6 360.0
L 173.7 360.0
"/>
<path style="fill:none;stroke:#000000;stroke-width:1.80;"
clip-path="url(#cp1)" d="
M 177.8 343.8
C 182.1 349.0 182.1 356.6 177.8 361.8
"/>
<path style="fill:none;stroke:#000000;stroke-width:1.80;"
clip-path="url(#cp1)" d="
M 197.3 355.0
L 207.7 355.0
"/>
<path style="fill:none;stroke:#000000;stroke-width:1.80;"
clip-path="url(#cp1)" d="
M 197.3 350.5
L 207.7 350.5
"/>
<path style="fill:none;stroke:#000000;stroke-width:1.80;"
clip-path="url(#cp1)" d="
M 224.8 348.3
C 225.1 346.7 226.5 345.6 228.2 345.6
C 229.8 345.6 231.2 346.7 231.5 348.3
C 232.4 351.2 232.4 354.4 231.5 357.3
C 231.1 358.8 229.7 359.9 228.2 359.9
C 226.6 359.9 225.2 358.8 224.8 357.3
C 223.9 354.4 223.9 351.2 224.8 348.3
"/>
<path style="fill:none;stroke:#000000;stroke-width:1.80;"
clip-path="url(#cp1)" d="
M 81.7 401.2
C 81.7 399.1 80.0 397.4 77.9 397.4
C 75.7 397.4 74.0 399.1 74.0 401.2
L 74.0 403.0
C 74.1 404.7 75.3 406.2 77.0 406.6
C 78.7 406.9 80.5 406.1 81.2 404.6
C 82.2 401.5 82.2 398.2 81.2 395.1
C 80.4 392.9 77.9 391.8 75.8 392.9
"/>
<path style="fill:none;stroke:#000000;stroke-width:1.80;"
clip-path="url(#cp1)" d="
M 72.0 408.8
L 86.4 408.8
L 100.8 408.8
"/>
<path style="fill:none;stroke:#000000;stroke-width:1.80;"
clip-path="url(#cp1)" d="
M 81.7 424.8
C 81.7 422.7 80.0 421.0 77.9 421.0
C 75.7 421.0 74.0 422.7 74.0 424.8
L 74.0 426.6
C 74.1 428.3 75.3 429.8 77.0 430.2
C 78.7 430.6 80.5 429.7 81.2 428.2
C 82.2 425.1 82.2 421.8 81.2 418.7
C 80.4 416.5 77.9 415.5 75.8 416.5
"/>
<path style="fill:none;stroke:#000000;stroke-width:1.80;"
clip-path="url(#cp1)" d="
M 86.2 421.0
L 90.2 430.4
"/>
<path style="fill:none;stroke:#000000;stroke-width:1.80;"
clip-path="url(#cp1)" d="
M 94.3 421.0
L 88.9 433.6
C 88.4 434.6 87.3 435.2 86.2 435.1
"/>
<path style="fill:none;stroke:#000000;stroke-width:1.80;"
clip-path="url(#cp1)" d="
M 111.2 406.1
C 112.5 404.7 114.5 404.2 116.3 404.9
C 118.2 405.6 119.4 407.3 119.4 409.3
C 119.4 411.2 118.2 413.0 116.3 413.7
C 114.5 414.4 112.5 413.9 111.2 412.4
"/>
<path style="fill:none;stroke:#000000;stroke-width:1.80;"
clip-path="url(#cp1)" d="
M 111.2 404.6
L 111.2 418.7
"/>
<path style="fill:none;stroke:#000000;stroke-width:1.80;"
clip-path="url(#cp1)" d="
M 126.5 397.8
C 122.1 403.0 122.1 410.6 126.5 415.8
"/>
<path style="fill:none;stroke:#000000;stroke-width:1.80;"
clip-path="url(#cp1)" d="
M 130.5 414.0
L 138.6 404.6
"/>
<path style="fill:none;stroke:#000000;stroke-width:1.80;"
clip-path="url(#cp1)" d="
M 130.5 404.6
L 138.6 414.0
"/>
<path style="fill:none;stroke:#000000;stroke-width:1.80;"
clip-path="url(#cp1)" d="
M 142.7 416.0
C 143.3 415.3 143.8 414.3 144.0 413.3
C 144.0 413.0 143.7 412.6 143.3 412.6
C 143.0 412.6 142.7 413.0 142.7 413.3
C 142.7 413.7 143.0 414.0 143.3 414.0
C 143.7 414.0 144.0 413.7 144.0 413.3
"/>
<path style="fill:none;stroke:#000000;stroke-width:1.80;"
clip-path="url(#cp1)" d="
M 147.8 399.6
L 151.0 414.0
L 154.1 399.6
L 157.3 414.0
L 160.4 399.6
"/>
<path style="fill:none;stroke:#000000;stroke-width:1.80;"
clip-path="url(#cp1)" d="
M 164.2 416.0
C 164.9 415.3 165.4 414.3 165.6 413.3
C 165.6 413.0 165.3 412.6 164.9 412.6
C 164.6 412.6 164.2 413.0 164.2 413.3
C 164.2 413.7 164.6 414.0 164.9 414.0
C 165.3 414.0 165.6 413.7 165.6 413.3
"/>
<path style="fill:none;stroke:#000000;stroke-width:1.80;"
clip-path="url(#cp1)" d="
M 169.7 404.6
L 177.8 404.6
L 169.7 414.0
L 177.8 414.0
"/>
<path style="fill:none;stroke:#000000;stroke-width:1.80;"
clip-path="url(#cp1)" d="
M 181.8 397.8
C 186.2 403.0 186.2 410.6 181.8 415.8
"/>
<path style="fill:none;stroke:#000000;stroke-width:1.80;"
clip-path="url(#cp1)" d="
M 201.4 409.1
L 211.7 409.1
"/>
<path style="fill:none;stroke:#000000;stroke-width:1.80;"
clip-path="url(#cp1)" d="
M 201.4 404.6
L 211.7 404.6
"/>
<path style="fill:none;stroke:#000000;stroke-width:1.80;"
clip-path="url(#cp1)" d="
M 228.8 402.3
C 229.2 400.7 230.6 399.6 232.2 399.6
C 233.8 399.6 235.2 400.7 235.6 402.3
C 236.4 405.2 236.4 408.4 235.6 411.3
C 235.2 412.8 233.8 413.9 232.2 413.9
C 230.6 413.9 229.2 412.8 228.8 411.3
C 228.0 408.4 228.0 405.2 228.8 402.3
"/>
<path style="fill:none;stroke:#000000;stroke-width:1.80;"
clip-path="url(#cp1)" d="
M 81.7 455.2
C 81.7 453.1 80.0 451.4 77.9 451.4
C 75.7 451.4 74.0 453.1 74.0 455.2
L 74.0 457.0
C 74.1 458.7 75.3 460.2 77.0 460.6
C 78.7 460.9 80.5 460.1 81.2 458.6
C 82.2 455.5 82.2 452.2 81.2 449.1
C 80.4 446.9 77.9 445.8 75.8 446.9
"/>
<path style="fill:none;stroke:#000000;stroke-width:1.80;"
clip-path="url(#cp1)" d="
M 72.0 462.8
L 86.4 462.8
L 100.8 462.8
"/>
<path style="fill:none;stroke:#000000;stroke-width:1.80;"
clip-path="url(#cp1)" d="
M 81.7 478.8
C 81.7 476.7 80.0 475.0 77.9 475.0
C 75.7 475.0 74.0 476.7 74.0 478.8
L 74.0 480.6
C 74.1 482.3 75.3 483.8 77.0 484.2
C 78.7 484.6 80.5 483.7 81.2 482.2
C 82.2 479.1 82.2 475.8 81.2 472.7
C 80.4 470.5 77.9 469.5 75.8 470.5
"/>
<path style="fill:none;stroke:#000000;stroke-width:1.80;"
clip-path="url(#cp1)" d="
M 86.2 475.0
L 94.3 475.0
L 86.2 484.4
L 94.3 484.4
"/>
<path style="fill:none;stroke:#000000;stroke-width:1.80;"
clip-path="url(#cp1)" d="
M 111.2 460.1
C 112.5 458.7 114.5 458.2 116.3 458.9
C 118.2 459.6 119.4 461.3 119.4 463.3
C 119.4 465.2 118.2 467.0 116.3 467.7
C 114.5 468.4 112.5 467.9 111.2 466.4
"/>
<path style="fill:none;stroke:#000000;stroke-width:1.80;"
clip-path="url(#cp1)" d="
M 111.2 458.6
L 111.2 472.7
"/>
<path style="fill:none;stroke:#000000;stroke-width:1.80;"
clip-path="url(#cp1)" d="
M 126.5 451.8
C 122.1 457.0 122.1 464.6 126.5 469.8
"/>
<path style="fill:none;stroke:#000000;stroke-width:1.80;"
clip-path="url(#cp1)" d="
M 130.5 468.0
L 138.6 458.6
"/>
<path style="fill:none;stroke:#000000;stroke-width:1.80;"
clip-path="url(#cp1)" d="
M 130.5 458.6
L 138.6 468.0
"/>
<path style="fill:none;stroke:#000000;stroke-width:1.80;"
clip-path="url(#cp1)" d="
M 142.7 470.0
C 143.3 469.3 143.8 468.3 144.0 467.3
C 144.0 467.0 143.7 466.6 143.3 466.6
C 143.0 466.6 142.7 467.0 142.7 467.3
C 142.7 467.7 143.0 468.0 143.3 468.0
C 143.7 468.0 144.0 467.7 144.0 467.3
"/>
<path style="fill:none;stroke:#000000;stroke-width:1.80;"
clip-path="url(#cp1)" d="
M 148.1 458.6
L 152.1 468.0
"/>
<path style="fill:none;stroke:#000000;stroke-width:1.80;"
clip-path="url(#cp1)" d="
M 156.2 458.6
L 150.8 471.1
C 150.2 472.1 149.2 472.8 148.1 472.7
"/>
<path style="fill:none;stroke:#000000;stroke-width:1.80;"
clip-path="url(#cp1)" d="
M 160.2 470.0
C 160.9 469.3 161.3 468.3 161.6 467.3
C 161.6 467.0 161.2 466.6 160.9 466.6
C 160.5 466.6 160.2 467.0 160.2 467.3
C 160.2 467.7 160.5 468.0 160.9 468.0
C 161.2 468.0 161.6 467.7 161.6 467.3
"/>
<path style="fill:none;stroke:#000000;stroke-width:1.80;"
clip-path="url(#cp1)" d="
M 166.3 456.3
C 166.6 454.7 168.0 453.6 169.7 453.6
C 171.3 453.6 172.7 454.7 173.0 456.3
C 173.9 459.2 173.9 462.4 173.0 465.3
C 172.6 466.8 171.2 467.9 169.7 467.9
C 168.1 467.9 166.7 466.8 166.3 465.3
C 165.4 462.4 165.4 459.2 166.3 456.3
"/>
<path style="fill:none;stroke:#000000;stroke-width:1.80;"
clip-path="url(#cp1)" d="
M 177.8 451.8
C 182.1 457.0 182.1 464.6 177.8 469.8
"/>
<path style="fill:none;stroke:#000000;stroke-width:1.80;"
clip-path="url(#cp1)" d="
M 197.3 463.0
L 207.7 463.0
"/>
<path style="fill:none;stroke:#000000;stroke-width:1.80;"
clip-path="url(#cp1)" d="
M 197.3 458.6
L 207.7 458.6
"/>
<path style="fill:none;stroke:#000000;stroke-width:1.80;"
clip-path="url(#cp1)" d="
M 224.1 460.8
L 234.5 460.8
"/>
<path style="fill:none;stroke:#000000;stroke-width:1.80;"
clip-path="url(#cp1)" d="
M 238.5 457.6
C 238.5 455.4 240.3 453.6 242.6 453.6
C 244.8 453.6 246.6 455.4 246.6 457.6
C 246.5 458.8 245.8 459.8 244.8 460.4
L 242.6 461.7
C 240.2 462.9 238.6 465.3 238.5 468.0
L 246.6 468.0
"/>
<path style="fill:none;stroke:#000000;stroke-width:1.80;"
clip-path="url(#cp1)" d="
M 252.5 459.5
C 251.0 461.6 250.9 464.4 252.2 466.6
C 253.5 468.2 256.0 468.4 257.4 466.9
C 258.8 464.7 258.9 461.9 257.6 459.7
C 256.2 458.4 254.0 458.3 252.5 459.4
"/>
<path style="fill:none;stroke:#000000;stroke-width:1.80;"
clip-path="url(#cp1)" d="
M 251.3 462.6
L 250.7 472.0
"/>
<path style="fill:none;stroke:#000000;stroke-width:1.80;"
clip-path="url(#cp1)" d="
M 277.0 451.8
C 276.6 452.1 276.5 452.5 276.7 452.9
C 276.8 453.3 277.2 453.6 277.7 453.6
L 279.0 453.8
C 277.0 452.8 274.6 454.1 274.3 456.4
C 274.1 458.6 276.1 460.4 278.3 459.9
C 275.7 459.0 272.9 460.8 272.7 463.5
C 272.5 466.3 274.9 468.5 277.7 468.0
C 278.4 468.2 278.8 468.9 278.7 469.7
C 278.5 470.4 277.7 470.9 277.0 470.7
"/>
<path style="fill:none;stroke:#000000;stroke-width:1.44;"
clip-path="url(#cp1)" d="
M 285.0 473.8
L 287.2 473.8
"/>
<path style="fill:none;stroke:#000000;stroke-width:1.44;"
clip-path="url(#cp1)" d="
M 286.1 473.8
L 286.1 462.2
L 285.0 464.4
"/>
<path style="fill:none;stroke:#000000;stroke-width:1.80;"
clip-path="url(#cp1)" d="
M 296.1 451.8
C 291.8 457.0 291.8 464.6 296.1 469.8
"/>
<path style="fill:none;stroke:#000000;stroke-width:1.80;"
clip-path="url(#cp1)" d="
M 300.2 468.0
L 308.3 458.6
"/>
<path style="fill:none;stroke:#000000;stroke-width:1.80;"
clip-path="url(#cp1)" d="
M 300.2 458.6
L 308.3 468.0
"/>
<path style="fill:none;stroke:#000000;stroke-width:1.80;"
clip-path="url(#cp1)" d="
M 312.3 451.8
C 316.7 457.0 316.7 464.6 312.3 469.8
"/>
<path style="fill:none;stroke:#000000;stroke-width:1.80;"
clip-path="url(#cp1)" d="
M 331.5 453.6
C 331.1 454.1 331.1 454.8 331.4 455.3
C 331.8 455.7 332.5 455.9 333.0 455.6
L 336.4 453.6
C 332.2 455.6 329.5 459.9 329.4 464.6
C 329.5 465.9 330.4 467.0 331.7 467.3
C 333.1 467.6 334.5 467.8 336.0 468.0
C 336.4 467.9 336.8 468.1 336.9 468.5
C 337.1 468.9 337.0 469.3 336.6 469.6
C 335.4 470.2 333.9 470.2 332.6 469.6
"/>
<path style="fill:none;stroke:#000000;stroke-width:1.80;"
clip-path="url(#cp1)" d="
M 344.7 451.8
C 340.4 457.0 340.4 464.6 344.7 469.8
"/>
<path style="fill:none;stroke:#000000;stroke-width:1.80;"
clip-path="url(#cp1)" d="
M 348.8 458.6
L 352.8 468.0
"/>
<path style="fill:none;stroke:#000000;stroke-width:1.80;"
clip-path="url(#cp1)" d="
M 356.9 458.6
L 351.5 471.1
C 351.0 472.1 349.9 472.8 348.8 472.7
"/>
<path style="fill:none;stroke:#000000;stroke-width:1.80;"
clip-path="url(#cp1)" d="
M 360.9 451.8
C 365.3 457.0 365.3 464.6 360.9 469.8
"/>
<path style="fill:none;stroke:#000000;stroke-width:1.80;"
clip-path="url(#cp1)" d="
M 81.7 509.2
C 81.7 507.1 80.0 505.4 77.9 505.4
C 75.7 505.4 74.0 507.1 74.0 509.2
L 74.0 511.0
C 74.1 512.7 75.3 514.2 77.0 514.6
C 78.7 514.9 80.5 514.1 81.2 512.5
C 82.2 509.5 82.2 506.2 81.2 503.1
C 80.4 500.9 77.9 499.8 75.8 500.9
"/>
<path style="fill:none;stroke:#000000;stroke-width:1.80;"
clip-path="url(#cp1)" d="
M 72.0 516.8
L 86.4 516.8
L 100.8 516.8
"/>
<path style="fill:none;stroke:#000000;stroke-width:1.80;"
clip-path="url(#cp1)" d="
M 81.7 532.8
C 81.7 530.7 80.0 529.0 77.9 529.0
C 75.7 529.0 74.0 530.7 74.0 532.8
L 74.0 534.6
C 74.1 536.3 75.3 537.8 77.0 538.2
C 78.7 538.6 80.5 537.7 81.2 536.2
C 82.2 533.1 82.2 529.8 81.2 526.7
C 80.4 524.5 77.9 523.5 75.8 524.5
"/>
<path style="fill:none;stroke:#000000;stroke-width:1.80;"
clip-path="url(#cp1)" d="
M 86.2 529.0
L 94.3 529.0
L 86.2 538.4
L 94.3 538.4
"/>
<path style="fill:none;stroke:#000000;stroke-width:1.80;"
clip-path="url(#cp1)" d="
M 111.2 514.1
C 112.5 512.7 114.5 512.2 116.3 512.9
C 118.2 513.6 119.4 515.3 119.4 517.3
C 119.4 519.2 118.2 521.0 116.3 521.7
C 114.5 522.4 112.5 521.9 111.2 520.4
"/>
<path style="fill:none;stroke:#000000;stroke-width:1.80;"
clip-path="url(#cp1)" d="
M 111.2 512.5
L 111.2 526.7
"/>
<path style="fill:none;stroke:#000000;stroke-width:1.80;"
clip-path="url(#cp1)" d="
M 126.5 505.8
C 122.1 511.0 122.1 518.6 126.5 523.8
"/>
<path style="fill:none;stroke:#000000;stroke-width:1.80;"
clip-path="url(#cp1)" d="
M 130.5 522.0
L 138.6 512.5
"/>
<path style="fill:none;stroke:#000000;stroke-width:1.80;"
clip-path="url(#cp1)" d="
M 130.5 512.5
L 138.6 522.0
"/>
<path style="fill:none;stroke:#000000;stroke-width:1.80;"
clip-path="url(#cp1)" d="
M 142.7 524.0
C 143.3 523.3 143.8 522.3 144.0 521.3
C 144.0 521.0 143.7 520.6 143.3 520.6
C 143.0 520.6 142.7 521.0 142.7 521.3
C 142.7 521.7 143.0 522.0 143.3 522.0
C 143.7 522.0 144.0 521.7 144.0 521.3
"/>
<path style="fill:none;stroke:#000000;stroke-width:1.80;"
clip-path="url(#cp1)" d="
M 148.1 512.5
L 152.1 522.0
"/>
<path style="fill:none;stroke:#000000;stroke-width:1.80;"
clip-path="url(#cp1)" d="
M 156.2 512.5
L 150.8 525.2
C 150.2 526.1 149.2 526.8 148.1 526.7
"/>
<path style="fill:none;stroke:#000000;stroke-width:1.80;"
clip-path="url(#cp1)" d="
M 160.2 524.0
C 160.9 523.3 161.3 522.3 161.6 521.3
C 161.6 521.0 161.2 520.6 160.9 520.6
C 160.5 520.6 160.2 521.0 160.2 521.3
C 160.2 521.7 160.5 522.0 160.9 522.0
C 161.2 522.0 161.6 521.7 161.6 521.3
"/>
<path style="fill:none;stroke:#000000;stroke-width:1.80;"
clip-path="url(#cp1)" d="
M 165.6 522.0
L 165.6 507.6
"/>
<path style="fill:none;stroke:#000000;stroke-width:1.80;"
clip-path="url(#cp1)" d="
M 165.6 514.1
L 174.6 514.1
"/>
<path style="fill:none;stroke:#000000;stroke-width:1.80;"
clip-path="url(#cp1)" d="
M 174.6 522.0
L 174.6 507.6
"/>
<path style="fill:none;stroke:#000000;stroke-width:1.80;"
clip-path="url(#cp1)" d="
M 178.7 505.8
C 183.0 511.0 183.0 518.6 178.7 523.8
"/>
<path style="fill:none;stroke:#000000;stroke-width:1.80;"
clip-path="url(#cp1)" d="
M 198.2 517.0
L 208.6 517.0
"/>
<path style="fill:none;stroke:#000000;stroke-width:1.80;"
clip-path="url(#cp1)" d="
M 198.2 512.5
L 208.6 512.5
"/>
<path style="fill:none;stroke:#000000;stroke-width:1.80;"
clip-path="url(#cp1)" d="
M 225.7 510.3
C 226.0 508.7 227.4 507.6 229.1 507.6
C 230.7 507.6 232.1 508.7 232.4 510.3
C 233.3 513.2 233.3 516.4 232.4 519.3
C 232.0 520.8 230.6 521.9 229.1 521.9
C 227.5 521.9 226.1 520.8 225.7 519.3
C 224.8 516.4 224.8 513.2 225.7 510.3
"/>
</g><!-- page 1 -->
</g><!-- EOF -->
</svg>
