<?xml version="1.0" standalone="no"?>
<!DOCTYPE svg PUBLIC "-//W3C//DTD SVG 1.1//EN"
"http://www.w3.org/Graphics/SVG/1.1/DTD/svg11.dtd">
<svg width="7.56in" height="5.76in" viewbox="0 0 756 576"
    xmlns="http://www.w3.org/2000/svg" version="1.1">
<title>
plots/fontgeom.plt
</title>
<desc>
Creator: BTNRH PLT
Date: Sun Aug  2 06:51:18 2026
</desc>
<g style="stroke-linecap:round;stroke-linejoin:round">
<g id="page 1">
<clipPath id="cp1"> <path d="
M 0.0 0.0 0.0 576.0 756.0 576.0 756.0 0.0"/> </clipPath>
<path style="stroke:none;fill:#FFFFFF;" d="
M 0.0 0.0L 0.0 576.0L 756.0 576.0L 756.0 0.0"/>
<clipPath id="cp2"> <path d="
M 0.0 0.0 0.0 482.4 504.0 482.4 504.0 0.0"/> </clipPath>
<path style="fill:none;stroke:#000000;stroke-width:0.36;"
clip-path="url(#cp2)" d="
M 504.0 482.4
L 216.0 482.4
L 216.0 86.4
L 504.0 86.4
L 504.0 482.4
"/>
<path style="fill:none;stroke:#000000;stroke-width:0.36;"
clip-path="url(#cp2)" d="
M 432.0 446.4
L 432.0 194.4
"/>
<path style="fill:none;stroke:#000000;stroke-width:0.36;"
clip-path="url(#cp2)" d="
M 360.0 446.4
L 360.0 194.4
"/>
<path style="fill:none;stroke:#000000;stroke-width:0.36;"
clip-path="url(#cp2)" d="
M 288.0 446.4
L 288.0 194.4
"/>
<path style="fill:none;stroke:#000000;stroke-width:0.36;"
clip-path="url(#cp2)" d="
M 252.0 384.5
L 479.5 384.5
"/>
<path style="fill:none;stroke:#000000;stroke-width:0.36;"
clip-path="url(#cp2)" d="
M 252.0 260.6
L 479.5 260.6
"/>
<path style="fill:none;stroke:#000000;stroke-width:0.36;"
clip-path="url(#cp2)" d="
M 479.5 194.4
L 479.5 198.1
"/>
<path style="fill:none;stroke:#000000;stroke-width:0.36;"
clip-path="url(#cp2)" d="
M 479.5 202.9
L 479.5 206.6
"/>
<path style="fill:none;stroke:#000000;stroke-width:0.36;"
clip-path="url(#cp2)" d="
M 479.5 211.5
L 479.5 215.2
"/>
<path style="fill:none;stroke:#000000;stroke-width:0.36;"
clip-path="url(#cp2)" d="
M 479.5 220.0
L 479.5 223.7
"/>
<path style="fill:none;stroke:#000000;stroke-width:0.36;"
clip-path="url(#cp2)" d="
M 479.5 228.6
L 479.5 232.3
"/>
<path style="fill:none;stroke:#000000;stroke-width:0.36;"
clip-path="url(#cp2)" d="
M 479.5 237.1
L 479.5 240.8
"/>
<path style="fill:none;stroke:#000000;stroke-width:0.36;"
clip-path="url(#cp2)" d="
M 479.5 245.7
L 479.5 249.4
"/>
<path style="fill:none;stroke:#000000;stroke-width:0.36;"
clip-path="url(#cp2)" d="
M 479.5 254.2
L 479.5 257.9
"/>
<path style="fill:none;stroke:#000000;stroke-width:0.36;"
clip-path="url(#cp2)" d="
M 479.5 262.8
L 479.5 266.5
"/>
<path style="fill:none;stroke:#000000;stroke-width:0.36;"
clip-path="url(#cp2)" d="
M 479.5 271.3
L 479.5 275.0
"/>
<path style="fill:none;stroke:#000000;stroke-width:0.36;"
clip-path="url(#cp2)" d="
M 479.5 279.9
L 479.5 283.6
"/>
<path style="fill:none;stroke:#000000;stroke-width:0.36;"
clip-path="url(#cp2)" d="
M 479.5 288.4
L 479.5 292.1
"/>
<path style="fill:none;stroke:#000000;stroke-width:0.36;"
clip-path="url(#cp2)" d="
M 479.5 297.0
L 479.5 300.7
"/>
<path style="fill:none;stroke:#000000;stroke-width:0.36;"
clip-path="url(#cp2)" d="
M 479.5 305.5
L 479.5 309.2
"/>
<path style="fill:none;stroke:#000000;stroke-width:0.36;"
clip-path="url(#cp2)" d="
M 479.5 314.1
L 479.5 317.8
"/>
<path style="fill:none;stroke:#000000;stroke-width:0.36;"
clip-path="url(#cp2)" d="
M 479.5 322.6
L 479.5 326.3
"/>
<path style="fill:none;stroke:#000000;stroke-width:0.36;"
clip-path="url(#cp2)" d="
M 479.5 331.2
L 479.5 334.9
"/>
<path style="fill:none;stroke:#000000;stroke-width:0.36;"
clip-path="url(#cp2)" d="
M 479.5 339.8
L 479.5 343.4
"/>
<path style="fill:none;stroke:#000000;stroke-width:0.36;"
clip-path="url(#cp2)" d="
M 479.5 348.3
L 479.5 352.0
"/>
<path style="fill:none;stroke:#000000;stroke-width:0.36;"
clip-path="url(#cp2)" d="
M 479.5 356.9
L 479.5 360.5
"/>
<path style="fill:none;stroke:#000000;stroke-width:0.36;"
clip-path="url(#cp2)" d="
M 479.5 365.4
L 479.5 369.1
"/>
<path style="fill:none;stroke:#000000;stroke-width:0.36;"
clip-path="url(#cp2)" d="
M 479.5 373.9
L 479.5 377.6
"/>
<path style="fill:none;stroke:#000000;stroke-width:0.36;"
clip-path="url(#cp2)" d="
M 479.5 382.5
L 479.5 386.2
"/>
<path style="fill:none;stroke:#000000;stroke-width:0.36;"
clip-path="url(#cp2)" d="
M 479.5 391.0
L 479.5 394.7
"/>
<path style="fill:none;stroke:#000000;stroke-width:0.36;"
clip-path="url(#cp2)" d="
M 479.5 399.6
L 479.5 403.3
"/>
<path style="fill:none;stroke:#000000;stroke-width:0.36;"
clip-path="url(#cp2)" d="
M 479.5 408.1
L 479.5 411.8
"/>
<path style="fill:none;stroke:#000000;stroke-width:0.36;"
clip-path="url(#cp2)" d="
M 479.5 416.7
L 479.5 420.4
"/>
<path style="fill:none;stroke:#000000;stroke-width:0.36;"
clip-path="url(#cp2)" d="
M 479.5 425.2
L 479.5 428.9
"/>
<path style="fill:none;stroke:#000000;stroke-width:0.36;"
clip-path="url(#cp2)" d="
M 479.5 433.8
L 479.5 437.5
"/>
<path style="fill:none;stroke:#000000;stroke-width:0.36;"
clip-path="url(#cp2)" d="
M 479.5 442.4
L 479.5 446.0
"/>
<path style="fill:none;stroke:#000000;stroke-width:0.36;"
clip-path="url(#cp2)" d="
M 475.0 446.4
L 471.4 446.4
"/>
<path style="fill:none;stroke:#000000;stroke-width:0.36;"
clip-path="url(#cp2)" d="
M 466.5 446.4
L 462.8 446.4
"/>
<path style="fill:none;stroke:#000000;stroke-width:0.36;"
clip-path="url(#cp2)" d="
M 457.9 446.4
L 454.3 446.4
"/>
<path style="fill:none;stroke:#000000;stroke-width:0.36;"
clip-path="url(#cp2)" d="
M 449.4 446.4
L 445.7 446.4
"/>
<path style="fill:none;stroke:#000000;stroke-width:0.36;"
clip-path="url(#cp2)" d="
M 440.8 446.4
L 437.2 446.4
"/>
<path style="fill:none;stroke:#000000;stroke-width:0.36;"
clip-path="url(#cp2)" d="
M 432.3 446.4
L 428.6 446.4
"/>
<path style="fill:none;stroke:#000000;stroke-width:0.36;"
clip-path="url(#cp2)" d="
M 423.7 446.4
L 420.1 446.4
"/>
<path style="fill:none;stroke:#000000;stroke-width:0.36;"
clip-path="url(#cp2)" d="
M 415.2 446.4
L 411.5 446.4
"/>
<path style="fill:none;stroke:#000000;stroke-width:0.36;"
clip-path="url(#cp2)" d="
M 406.6 446.4
L 403.0 446.4
"/>
<path style="fill:none;stroke:#000000;stroke-width:0.36;"
clip-path="url(#cp2)" d="
M 398.1 446.4
L 394.4 446.4
"/>
<path style="fill:none;stroke:#000000;stroke-width:0.36;"
clip-path="url(#cp2)" d="
M 389.5 446.4
L 385.9 446.4
"/>
<path style="fill:none;stroke:#000000;stroke-width:0.36;"
clip-path="url(#cp2)" d="
M 381.0 446.4
L 377.3 446.4
"/>
<path style="fill:none;stroke:#000000;stroke-width:0.36;"
clip-path="url(#cp2)" d="
M 372.4 446.4
L 368.8 446.4
"/>
<path style="fill:none;stroke:#000000;stroke-width:0.36;"
clip-path="url(#cp2)" d="
M 363.9 446.4
L 360.2 446.4
"/>
<path style="fill:none;stroke:#000000;stroke-width:0.36;"
clip-path="url(#cp2)" d="
M 355.3 446.4
L 351.7 446.4
"/>
<path style="fill:none;stroke:#000000;stroke-width:0.36;"
clip-path="url(#cp2)" d="
M 346.8 446.4
L 343.1 446.4
"/>
<path style="fill:none;stroke:#000000;stroke-width:0.36;"
clip-path="url(#cp2)" d="
M 338.2 446.4
L 334.6 446.4
"/>
<path style="fill:none;stroke:#000000;stroke-width:0.36;"
clip-path="url(#cp2)" d="
M 329.7 446.4
L 326.0 446.4
"/>
<path style="fill:none;stroke:#000000;stroke-width:0.36;"
clip-path="url(#cp2)" d="
M 321.1 446.4
L 317.5 446.4
"/>
<path style="fill:none;stroke:#000000;stroke-width:0.36;"
clip-path="url(#cp2)" d="
M 312.6 446.4
L 308.9 446.4
"/>
<path style="fill:none;stroke:#000000;stroke-width:0.36;"
clip-path="url(#cp2)" d="
M 304.0 446.4
L 300.4 446.4
"/>
<path style="fill:none;stroke:#000000;stroke-width:0.36;"
clip-path="url(#cp2)" d="
M 295.5 446.4
L 291.8 446.4
"/>
<path style="fill:none;stroke:#000000;stroke-width:0.36;"
clip-path="url(#cp2)" d="
M 286.9 446.4
L 283.3 446.4
"/>
<path style="fill:none;stroke:#000000;stroke-width:0.36;"
clip-path="url(#cp2)" d="
M 278.4 446.4
L 274.7 446.4
"/>
<path style="fill:none;stroke:#000000;stroke-width:0.36;"
clip-path="url(#cp2)" d="
M 269.8 446.4
L 266.2 446.4
"/>
<path style="fill:none;stroke:#000000;stroke-width:0.36;"
clip-path="url(#cp2)" d="
M 261.3 446.4
L 257.6 446.4
"/>
<path style="fill:none;stroke:#000000;stroke-width:0.36;"
clip-path="url(#cp2)" d="
M 256.3 442.8
L 256.3 439.1
"/>
<path style="fill:none;stroke:#000000;stroke-width:0.36;"
clip-path="url(#cp2)" d="
M 256.3 434.2
L 256.3 430.6
"/>
<path style="fill:none;stroke:#000000;stroke-width:0.36;"
clip-path="url(#cp2)" d="
M 256.3 425.7
L 256.3 422.0
"/>
<path style="fill:none;stroke:#000000;stroke-width:0.36;"
clip-path="url(#cp2)" d="
M 256.3 417.1
L 256.3 413.5
"/>
<path style="fill:none;stroke:#000000;stroke-width:0.36;"
clip-path="url(#cp2)" d="
M 256.3 408.6
L 256.3 404.9
"/>
<path style="fill:none;stroke:#000000;stroke-width:0.36;"
clip-path="url(#cp2)" d="
M 256.3 400.0
L 256.3 396.4
"/>
<path style="fill:none;stroke:#000000;stroke-width:0.36;"
clip-path="url(#cp2)" d="
M 256.3 391.5
L 256.3 387.8
"/>
<path style="fill:none;stroke:#000000;stroke-width:0.36;"
clip-path="url(#cp2)" d="
M 256.3 382.9
L 256.3 379.3
"/>
<path style="fill:none;stroke:#000000;stroke-width:0.36;"
clip-path="url(#cp2)" d="
M 256.3 374.4
L 256.3 370.7
"/>
<path style="fill:none;stroke:#000000;stroke-width:0.36;"
clip-path="url(#cp2)" d="
M 256.3 365.8
L 256.3 362.2
"/>
<path style="fill:none;stroke:#000000;stroke-width:0.36;"
clip-path="url(#cp2)" d="
M 256.3 357.3
L 256.3 353.6
"/>
<path style="fill:none;stroke:#000000;stroke-width:0.36;"
clip-path="url(#cp2)" d="
M 256.3 348.8
L 256.3 345.1
"/>
<path style="fill:none;stroke:#000000;stroke-width:0.36;"
clip-path="url(#cp2)" d="
M 256.3 340.2
L 256.3 336.5
"/>
<path style="fill:none;stroke:#000000;stroke-width:0.36;"
clip-path="url(#cp2)" d="
M 256.3 331.6
L 256.3 328.0
"/>
<path style="fill:none;stroke:#000000;stroke-width:0.36;"
clip-path="url(#cp2)" d="
M 256.3 323.1
L 256.3 319.4
"/>
<path style="fill:none;stroke:#000000;stroke-width:0.36;"
clip-path="url(#cp2)" d="
M 256.3 314.5
L 256.3 310.9
"/>
<path style="fill:none;stroke:#000000;stroke-width:0.36;"
clip-path="url(#cp2)" d="
M 256.3 306.0
L 256.3 302.3
"/>
<path style="fill:none;stroke:#000000;stroke-width:0.36;"
clip-path="url(#cp2)" d="
M 256.3 297.4
L 256.3 293.8
"/>
<path style="fill:none;stroke:#000000;stroke-width:0.36;"
clip-path="url(#cp2)" d="
M 256.3 288.9
L 256.3 285.2
"/>
<path style="fill:none;stroke:#000000;stroke-width:0.36;"
clip-path="url(#cp2)" d="
M 256.3 280.3
L 256.3 276.7
"/>
<path style="fill:none;stroke:#000000;stroke-width:0.36;"
clip-path="url(#cp2)" d="
M 256.3 271.8
L 256.3 268.1
"/>
<path style="fill:none;stroke:#000000;stroke-width:0.36;"
clip-path="url(#cp2)" d="
M 256.3 263.2
L 256.3 259.6
"/>
<path style="fill:none;stroke:#000000;stroke-width:0.36;"
clip-path="url(#cp2)" d="
M 256.3 254.7
L 256.3 251.0
"/>
<path style="fill:none;stroke:#000000;stroke-width:0.36;"
clip-path="url(#cp2)" d="
M 256.3 246.1
L 256.3 242.5
"/>
<path style="fill:none;stroke:#000000;stroke-width:0.36;"
clip-path="url(#cp2)" d="
M 256.3 237.6
L 256.3 233.9
"/>
<path style="fill:none;stroke:#000000;stroke-width:0.36;"
clip-path="url(#cp2)" d="
M 256.3 229.0
L 256.3 225.4
"/>
<path style="fill:none;stroke:#000000;stroke-width:0.36;"
clip-path="url(#cp2)" d="
M 256.3 220.5
L 256.3 216.8
"/>
<path style="fill:none;stroke:#000000;stroke-width:0.36;"
clip-path="url(#cp2)" d="
M 256.3 211.9
L 256.3 208.3
"/>
<path style="fill:none;stroke:#000000;stroke-width:0.36;"
clip-path="url(#cp2)" d="
M 256.3 203.4
L 256.3 199.7
"/>
<path style="fill:none;stroke:#000000;stroke-width:0.36;"
clip-path="url(#cp2)" d="
M 256.3 194.8
L 256.3 194.4
"/>
<path style="fill:none;stroke:#000000;stroke-width:0.36;"
clip-path="url(#cp2)" d="
M 468.0 322.6
L 464.3 322.6
"/>
<path style="fill:none;stroke:#000000;stroke-width:0.36;"
clip-path="url(#cp2)" d="
M 459.5 322.6
L 455.8 322.6
"/>
<path style="fill:none;stroke:#000000;stroke-width:0.36;"
clip-path="url(#cp2)" d="
M 450.9 322.6
L 447.2 322.6
"/>
<path style="fill:none;stroke:#000000;stroke-width:0.36;"
clip-path="url(#cp2)" d="
M 442.4 322.6
L 438.7 322.6
"/>
<path style="fill:none;stroke:#000000;stroke-width:0.36;"
clip-path="url(#cp2)" d="
M 433.8 322.6
L 430.1 322.6
"/>
<path style="fill:none;stroke:#000000;stroke-width:0.36;"
clip-path="url(#cp2)" d="
M 425.2 322.6
L 421.6 322.6
"/>
<path style="fill:none;stroke:#000000;stroke-width:0.36;"
clip-path="url(#cp2)" d="
M 416.7 322.6
L 413.0 322.6
"/>
<path style="fill:none;stroke:#000000;stroke-width:0.36;"
clip-path="url(#cp2)" d="
M 408.1 322.6
L 404.5 322.6
"/>
<path style="fill:none;stroke:#000000;stroke-width:0.36;"
clip-path="url(#cp2)" d="
M 399.6 322.6
L 395.9 322.6
"/>
<path style="fill:none;stroke:#000000;stroke-width:0.36;"
clip-path="url(#cp2)" d="
M 391.0 322.6
L 387.4 322.6
"/>
<path style="fill:none;stroke:#000000;stroke-width:0.36;"
clip-path="url(#cp2)" d="
M 382.5 322.6
L 378.8 322.6
"/>
<path style="fill:none;stroke:#000000;stroke-width:0.36;"
clip-path="url(#cp2)" d="
M 373.9 322.6
L 370.3 322.6
"/>
<path style="fill:none;stroke:#000000;stroke-width:0.36;"
clip-path="url(#cp2)" d="
M 365.4 322.6
L 361.7 322.6
"/>
<path style="fill:none;stroke:#000000;stroke-width:0.36;"
clip-path="url(#cp2)" d="
M 356.9 322.6
L 353.2 322.6
"/>
<path style="fill:none;stroke:#000000;stroke-width:0.36;"
clip-path="url(#cp2)" d="
M 348.3 322.6
L 344.6 322.6
"/>
<path style="fill:none;stroke:#000000;stroke-width:0.36;"
clip-path="url(#cp2)" d="
M 339.8 322.6
L 336.1 322.6
"/>
<path style="fill:none;stroke:#000000;stroke-width:0.36;"
clip-path="url(#cp2)" d="
M 331.2 322.6
L 327.5 322.6
"/>
<path style="fill:none;stroke:#000000;stroke-width:0.36;"
clip-path="url(#cp2)" d="
M 322.6 322.6
L 319.0 322.6
"/>
<path style="fill:none;stroke:#000000;stroke-width:0.36;"
clip-path="url(#cp2)" d="
M 314.1 322.6
L 310.4 322.6
"/>
<path style="fill:none;stroke:#000000;stroke-width:0.36;"
clip-path="url(#cp2)" d="
M 305.5 322.6
L 301.9 322.6
"/>
<path style="fill:none;stroke:#000000;stroke-width:0.36;"
clip-path="url(#cp2)" d="
M 297.0 322.6
L 293.3 322.6
"/>
<path style="fill:none;stroke:#000000;stroke-width:0.36;"
clip-path="url(#cp2)" d="
M 288.4 322.6
L 284.8 322.6
"/>
<path style="fill:none;stroke:#000000;stroke-width:0.36;"
clip-path="url(#cp2)" d="
M 279.9 322.6
L 276.2 322.6
"/>
<path style="fill:none;stroke:#000000;stroke-width:0.36;"
clip-path="url(#cp2)" d="
M 271.3 322.6
L 267.7 322.6
"/>
<path style="fill:none;stroke:#000000;stroke-width:0.36;"
clip-path="url(#cp2)" d="
M 262.8 322.6
L 259.1 322.6
"/>
<path style="fill:none;stroke:#000000;stroke-width:0.36;"
clip-path="url(#cp2)" d="
M 479.5 198.7
L 475.9 198.7
"/>
<path style="fill:none;stroke:#000000;stroke-width:0.36;"
clip-path="url(#cp2)" d="
M 471.0 198.7
L 467.3 198.7
"/>
<path style="fill:none;stroke:#000000;stroke-width:0.36;"
clip-path="url(#cp2)" d="
M 462.4 198.7
L 458.8 198.7
"/>
<path style="fill:none;stroke:#000000;stroke-width:0.36;"
clip-path="url(#cp2)" d="
M 453.9 198.7
L 450.2 198.7
"/>
<path style="fill:none;stroke:#000000;stroke-width:0.36;"
clip-path="url(#cp2)" d="
M 445.3 198.7
L 441.7 198.7
"/>
<path style="fill:none;stroke:#000000;stroke-width:0.36;"
clip-path="url(#cp2)" d="
M 436.8 198.7
L 433.1 198.7
"/>
<path style="fill:none;stroke:#000000;stroke-width:0.36;"
clip-path="url(#cp2)" d="
M 428.2 198.7
L 424.6 198.7
"/>
<path style="fill:none;stroke:#000000;stroke-width:0.36;"
clip-path="url(#cp2)" d="
M 419.7 198.7
L 416.0 198.7
"/>
<path style="fill:none;stroke:#000000;stroke-width:0.36;"
clip-path="url(#cp2)" d="
M 411.1 198.7
L 407.5 198.7
"/>
<path style="fill:none;stroke:#000000;stroke-width:0.36;"
clip-path="url(#cp2)" d="
M 402.6 198.7
L 398.9 198.7
"/>
<path style="fill:none;stroke:#000000;stroke-width:0.36;"
clip-path="url(#cp2)" d="
M 394.0 198.7
L 390.4 198.7
"/>
<path style="fill:none;stroke:#000000;stroke-width:0.36;"
clip-path="url(#cp2)" d="
M 385.5 198.7
L 381.8 198.7
"/>
<path style="fill:none;stroke:#000000;stroke-width:0.36;"
clip-path="url(#cp2)" d="
M 376.9 198.7
L 373.3 198.7
"/>
<path style="fill:none;stroke:#000000;stroke-width:0.36;"
clip-path="url(#cp2)" d="
M 368.4 198.7
L 364.7 198.7
"/>
<path style="fill:none;stroke:#000000;stroke-width:0.36;"
clip-path="url(#cp2)" d="
M 359.8 198.7
L 356.2 198.7
"/>
<path style="fill:none;stroke:#000000;stroke-width:0.36;"
clip-path="url(#cp2)" d="
M 351.3 198.7
L 347.6 198.7
"/>
<path style="fill:none;stroke:#000000;stroke-width:0.36;"
clip-path="url(#cp2)" d="
M 342.7 198.7
L 339.1 198.7
"/>
<path style="fill:none;stroke:#000000;stroke-width:0.36;"
clip-path="url(#cp2)" d="
M 334.2 198.7
L 330.5 198.7
"/>
<path style="fill:none;stroke:#000000;stroke-width:0.36;"
clip-path="url(#cp2)" d="
M 325.6 198.7
L 322.0 198.7
"/>
<path style="fill:none;stroke:#000000;stroke-width:0.36;"
clip-path="url(#cp2)" d="
M 317.1 198.7
L 313.4 198.7
"/>
<path style="fill:none;stroke:#000000;stroke-width:0.36;"
clip-path="url(#cp2)" d="
M 308.5 198.7
L 304.9 198.7
"/>
<path style="fill:none;stroke:#000000;stroke-width:0.36;"
clip-path="url(#cp2)" d="
M 300.0 198.7
L 296.3 198.7
"/>
<path style="fill:none;stroke:#000000;stroke-width:0.36;"
clip-path="url(#cp2)" d="
M 291.4 198.7
L 287.8 198.7
"/>
<path style="fill:none;stroke:#000000;stroke-width:0.36;"
clip-path="url(#cp2)" d="
M 282.9 198.7
L 279.2 198.7
"/>
<path style="fill:none;stroke:#000000;stroke-width:0.36;"
clip-path="url(#cp2)" d="
M 274.3 198.7
L 270.7 198.7
"/>
<path style="fill:none;stroke:#000000;stroke-width:0.36;"
clip-path="url(#cp2)" d="
M 265.8 198.7
L 262.1 198.7
"/>
<path style="fill:none;stroke:#000000;stroke-width:0.36;"
clip-path="url(#cp2)" d="
M 257.2 198.7
L 256.3 198.7
"/>
<path style="fill:none;stroke:#000000;stroke-width:1.07;"
clip-path="url(#cp2)" d="
M 237.6 456.3
L 229.1 456.3
"/>
<path style="fill:none;stroke:#000000;stroke-width:1.07;"
clip-path="url(#cp2)" d="
M 234.8 453.5
L 234.8 448.7
L 234.4 448.7
C 233.1 448.7 232.0 449.8 232.0 451.1
C 232.0 452.4 233.1 453.5 234.4 453.5
L 235.2 453.5
C 236.5 453.5 237.6 452.4 237.6 451.1
C 237.6 450.2 237.3 449.4 236.8 448.7
"/>
<path style="fill:none;stroke:#000000;stroke-width:1.07;"
clip-path="url(#cp2)" d="
M 229.6 442.3
C 229.1 442.8 228.9 443.5 229.2 444.1
C 229.6 444.7 230.2 445.1 230.9 445.0
L 237.6 445.0
"/>
<path style="fill:none;stroke:#000000;stroke-width:1.07;"
clip-path="url(#cp2)" d="
M 232.0 446.3
L 232.0 443.1
"/>
<path style="fill:none;stroke:#000000;stroke-width:1.07;"
clip-path="url(#cp2)" d="
M 229.1 438.1
L 237.6 438.1
"/>
<path style="fill:none;stroke:#000000;stroke-width:1.07;"
clip-path="url(#cp2)" d="
M 232.0 439.8
L 232.0 436.5
"/>
<path style="fill:none;stroke:#000000;stroke-width:1.07;"
clip-path="url(#cp2)" d="
M 251.6 456.3
L 243.1 456.3
"/>
<path style="fill:none;stroke:#000000;stroke-width:1.07;"
clip-path="url(#cp2)" d="
M 251.6 453.2
L 246.0 453.2
"/>
<path style="fill:none;stroke:#000000;stroke-width:1.07;"
clip-path="url(#cp2)" d="
M 243.3 453.5
C 243.5 453.5 243.6 453.4 243.6 453.2
C 243.6 453.1 243.5 453.0 243.3 453.0
C 243.2 453.0 243.1 453.1 243.1 453.2
C 243.1 453.4 243.2 453.5 243.3 453.5
"/>
<path style="fill:none;stroke:#000000;stroke-width:1.07;"
clip-path="url(#cp2)" d="
M 251.6 450.6
L 246.0 450.6
"/>
<path style="fill:none;stroke:#000000;stroke-width:1.07;"
clip-path="url(#cp2)" d="
M 248.4 450.6
C 247.1 450.6 246.0 449.5 246.0 448.2
C 246.0 446.8 247.1 445.8 248.4 445.8
L 251.6 445.8
"/>
<path style="fill:none;stroke:#000000;stroke-width:1.07;"
clip-path="url(#cp2)" d="
M 248.8 443.4
L 248.8 438.5
L 248.4 438.5
C 247.1 438.5 246.0 439.6 246.0 441.0
C 246.0 442.3 247.1 443.4 248.4 443.4
L 249.2 443.4
C 250.5 443.4 251.6 442.3 251.6 441.0
C 251.6 440.1 251.4 439.2 250.8 438.5
"/>
<path style="fill:none;stroke:#000000;stroke-width:1.07;"
clip-path="url(#cp2)" d="
M 232.9 378.5
C 232.1 379.2 231.8 380.5 232.2 381.5
C 232.6 382.6 233.6 383.3 234.8 383.3
C 236.0 383.3 237.0 382.6 237.4 381.5
C 237.8 380.5 237.5 379.2 236.7 378.5
"/>
<path style="fill:none;stroke:#000000;stroke-width:1.07;"
clip-path="url(#cp2)" d="
M 234.8 376.1
L 234.8 371.3
L 234.4 371.3
C 233.1 371.3 232.0 372.3 232.0 373.7
C 232.0 375.0 233.1 376.1 234.4 376.1
L 235.2 376.1
C 236.5 376.1 237.6 375.0 237.6 373.7
C 237.6 372.8 237.3 371.9 236.8 371.3
"/>
<path style="fill:none;stroke:#000000;stroke-width:1.07;"
clip-path="url(#cp2)" d="
M 237.6 368.8
L 232.0 368.8
"/>
<path style="fill:none;stroke:#000000;stroke-width:1.07;"
clip-path="url(#cp2)" d="
M 234.4 368.8
C 233.1 368.8 232.0 367.8 232.0 366.4
C 232.0 365.1 233.1 364.0 234.4 364.0
L 237.6 364.0
"/>
<path style="fill:none;stroke:#000000;stroke-width:1.07;"
clip-path="url(#cp2)" d="
M 229.1 360.0
L 237.6 360.0
"/>
<path style="fill:none;stroke:#000000;stroke-width:1.07;"
clip-path="url(#cp2)" d="
M 232.0 361.6
L 232.0 358.4
"/>
<path style="fill:none;stroke:#000000;stroke-width:1.07;"
clip-path="url(#cp2)" d="
M 234.8 355.9
L 234.8 351.1
L 234.4 351.1
C 233.1 351.1 232.0 352.2 232.0 353.5
C 232.0 354.8 233.1 355.9 234.4 355.9
L 235.2 355.9
C 236.5 355.9 237.6 354.8 237.6 353.5
C 237.6 352.6 237.3 351.8 236.8 351.1
"/>
<path style="fill:none;stroke:#000000;stroke-width:1.07;"
clip-path="url(#cp2)" d="
M 232.0 348.7
L 237.6 348.7
"/>
<path style="fill:none;stroke:#000000;stroke-width:1.07;"
clip-path="url(#cp2)" d="
M 233.6 348.7
C 232.6 348.3 232.0 347.4 232.0 346.4
C 231.9 345.3 232.4 344.4 233.3 343.9
"/>
<path style="fill:none;stroke:#000000;stroke-width:1.07;"
clip-path="url(#cp2)" d="
M 251.6 382.9
L 243.1 382.9
"/>
<path style="fill:none;stroke:#000000;stroke-width:1.07;"
clip-path="url(#cp2)" d="
M 251.6 379.8
L 246.0 379.8
"/>
<path style="fill:none;stroke:#000000;stroke-width:1.07;"
clip-path="url(#cp2)" d="
M 243.3 380.1
C 243.5 380.1 243.6 380.0 243.6 379.8
C 243.6 379.7 243.5 379.5 243.3 379.5
C 243.2 379.5 243.1 379.7 243.1 379.8
C 243.1 380.0 243.2 380.1 243.3 380.1
"/>
<path style="fill:none;stroke:#000000;stroke-width:1.07;"
clip-path="url(#cp2)" d="
M 251.6 377.1
L 246.0 377.1
"/>
<path style="fill:none;stroke:#000000;stroke-width:1.07;"
clip-path="url(#cp2)" d="
M 248.4 377.1
C 247.1 377.1 246.0 376.1 246.0 374.7
C 246.0 373.4 247.1 372.3 248.4 372.3
L 251.6 372.3
"/>
<path style="fill:none;stroke:#000000;stroke-width:1.07;"
clip-path="url(#cp2)" d="
M 248.8 369.9
L 248.8 365.1
L 248.4 365.1
C 247.1 365.1 246.0 366.2 246.0 367.5
C 246.0 368.8 247.1 369.9 248.4 369.9
L 249.2 369.9
C 250.5 369.9 251.6 368.8 251.6 367.5
C 251.6 366.6 251.4 365.8 250.8 365.1
"/>
<path style="fill:none;stroke:#000000;stroke-width:1.07;"
clip-path="url(#cp2)" d="
M 232.0 321.4
L 237.6 321.4
"/>
<path style="fill:none;stroke:#000000;stroke-width:1.07;"
clip-path="url(#cp2)" d="
M 233.6 321.4
C 232.6 321.0 232.0 320.1 232.0 319.0
C 231.9 318.0 232.4 317.0 233.3 316.5
"/>
<path style="fill:none;stroke:#000000;stroke-width:1.07;"
clip-path="url(#cp2)" d="
M 237.6 313.9
L 232.0 313.9
"/>
<path style="fill:none;stroke:#000000;stroke-width:1.07;"
clip-path="url(#cp2)" d="
M 229.3 314.1
C 229.5 314.1 229.6 314.0 229.6 313.9
C 229.6 313.7 229.5 313.6 229.3 313.6
C 229.2 313.6 229.1 313.7 229.1 313.9
C 229.1 314.0 229.2 314.1 229.3 314.1
"/>
<path style="fill:none;stroke:#000000;stroke-width:1.07;"
clip-path="url(#cp2)" d="
M 232.9 306.4
C 232.1 307.2 231.8 308.4 232.2 309.5
C 232.6 310.6 233.6 311.3 234.8 311.3
C 236.0 311.3 237.0 310.6 237.4 309.5
C 237.8 308.4 237.5 307.2 236.7 306.4
"/>
<path style="fill:none;stroke:#000000;stroke-width:1.07;"
clip-path="url(#cp2)" d="
M 232.0 306.4
L 238.0 306.4
C 239.0 306.3 240.0 307.0 240.3 308.0
C 240.6 309.0 240.1 310.0 239.2 310.5
"/>
<path style="fill:none;stroke:#000000;stroke-width:1.07;"
clip-path="url(#cp2)" d="
M 237.6 304.0
L 229.1 304.0
"/>
<path style="fill:none;stroke:#000000;stroke-width:1.07;"
clip-path="url(#cp2)" d="
M 234.4 304.0
C 233.1 304.0 232.0 302.9 232.0 301.6
C 232.0 300.3 233.1 299.2 234.4 299.2
L 237.6 299.2
"/>
<path style="fill:none;stroke:#000000;stroke-width:1.07;"
clip-path="url(#cp2)" d="
M 229.1 295.2
L 237.6 295.2
"/>
<path style="fill:none;stroke:#000000;stroke-width:1.07;"
clip-path="url(#cp2)" d="
M 232.0 296.8
L 232.0 293.6
"/>
<path style="fill:none;stroke:#000000;stroke-width:1.07;"
clip-path="url(#cp2)" d="
M 251.6 321.0
L 243.1 321.0
"/>
<path style="fill:none;stroke:#000000;stroke-width:1.07;"
clip-path="url(#cp2)" d="
M 251.6 317.9
L 246.0 317.9
"/>
<path style="fill:none;stroke:#000000;stroke-width:1.07;"
clip-path="url(#cp2)" d="
M 243.3 318.2
C 243.5 318.2 243.6 318.0 243.6 317.9
C 243.6 317.7 243.5 317.6 243.3 317.6
C 243.2 317.6 243.1 317.7 243.1 317.9
C 243.1 318.0 243.2 318.2 243.3 318.2
"/>
<path style="fill:none;stroke:#000000;stroke-width:1.07;"
clip-path="url(#cp2)" d="
M 251.6 315.2
L 246.0 315.2
"/>
<path style="fill:none;stroke:#000000;stroke-width:1.07;"
clip-path="url(#cp2)" d="
M 248.4 315.2
C 247.1 315.2 246.0 314.1 246.0 312.8
C 246.0 311.5 247.1 310.4 248.4 310.4
L 251.6 310.4
"/>
<path style="fill:none;stroke:#000000;stroke-width:1.07;"
clip-path="url(#cp2)" d="
M 248.8 308.0
L 248.8 303.2
L 248.4 303.2
C 247.1 303.2 246.0 304.3 246.0 305.6
C 246.0 306.9 247.1 308.0 248.4 308.0
L 249.2 308.0
C 250.5 308.0 251.6 306.9 251.6 305.6
C 251.6 304.7 251.4 303.9 250.8 303.2
"/>
<path style="fill:none;stroke:#000000;stroke-width:1.07;"
clip-path="url(#cp2)" d="
M 247.7 177.2
L 256.3 177.2
"/>
<path style="fill:none;stroke:#000000;stroke-width:1.07;"
clip-path="url(#cp2)" d="
M 250.7 178.8
L 250.7 175.6
"/>
<path style="fill:none;stroke:#000000;stroke-width:1.07;"
clip-path="url(#cp2)" d="
M 253.1 173.1
C 251.7 173.1 250.7 172.0 250.7 170.6
C 250.7 169.3 251.7 168.2 253.1 168.2
L 253.9 168.2
C 255.2 168.2 256.3 169.3 256.3 170.6
C 256.3 172.0 255.2 173.1 253.9 173.1
L 253.1 173.1
"/>
<path style="fill:none;stroke:#000000;stroke-width:1.07;"
clip-path="url(#cp2)" d="
M 251.6 165.8
C 250.7 165.1 250.4 163.8 250.9 162.8
C 251.3 161.7 252.3 161.0 253.5 161.0
C 254.6 161.0 255.7 161.7 256.1 162.8
C 256.5 163.8 256.2 165.1 255.3 165.8
"/>
<path style="fill:none;stroke:#000000;stroke-width:1.07;"
clip-path="url(#cp2)" d="
M 250.7 165.8
L 259.1 165.8
"/>
<path style="fill:none;stroke:#000000;stroke-width:1.07;"
clip-path="url(#cp2)" d="
M 256.3 150.9
L 247.7 150.9
"/>
<path style="fill:none;stroke:#000000;stroke-width:1.07;"
clip-path="url(#cp2)" d="
M 256.3 147.8
L 250.7 147.8
"/>
<path style="fill:none;stroke:#000000;stroke-width:1.07;"
clip-path="url(#cp2)" d="
M 248.0 148.1
C 248.1 148.1 248.3 148.0 248.3 147.8
C 248.3 147.7 248.1 147.5 248.0 147.5
C 247.8 147.5 247.7 147.7 247.7 147.8
C 247.7 148.0 247.8 148.1 248.0 148.1
"/>
<path style="fill:none;stroke:#000000;stroke-width:1.07;"
clip-path="url(#cp2)" d="
M 256.3 145.1
L 250.7 145.1
"/>
<path style="fill:none;stroke:#000000;stroke-width:1.07;"
clip-path="url(#cp2)" d="
M 253.1 145.1
C 251.7 145.1 250.7 144.1 250.7 142.7
C 250.7 141.4 251.7 140.3 253.1 140.3
L 256.3 140.3
"/>
<path style="fill:none;stroke:#000000;stroke-width:1.07;"
clip-path="url(#cp2)" d="
M 253.5 137.9
L 253.5 133.1
L 253.1 133.1
C 251.7 133.1 250.7 134.2 250.7 135.5
C 250.7 136.8 251.7 137.9 253.1 137.9
L 253.9 137.9
C 255.2 137.9 256.3 136.8 256.3 135.5
C 256.3 134.6 256.0 133.8 255.5 133.1
"/>
<path style="fill:none;stroke:#000000;stroke-width:1.07;"
clip-path="url(#cp2)" d="
M 287.6 174.0
C 286.7 174.8 286.4 176.0 286.9 177.1
C 287.3 178.1 288.3 178.9 289.5 178.9
C 290.6 178.9 291.7 178.1 292.1 177.1
C 292.5 176.0 292.2 174.8 291.3 174.0
"/>
<path style="fill:none;stroke:#000000;stroke-width:1.07;"
clip-path="url(#cp2)" d="
M 287.6 166.8
C 286.7 167.5 286.4 168.8 286.9 169.9
C 287.3 170.9 288.3 171.6 289.5 171.6
C 290.6 171.6 291.7 170.9 292.1 169.9
C 292.5 168.8 292.2 167.5 291.3 166.8
"/>
<path style="fill:none;stroke:#000000;stroke-width:1.07;"
clip-path="url(#cp2)" d="
M 286.7 166.8
L 292.3 166.8
"/>
<path style="fill:none;stroke:#000000;stroke-width:1.07;"
clip-path="url(#cp2)" d="
M 287.6 164.4
C 286.7 163.6 286.4 162.4 286.9 161.3
C 287.3 160.2 288.3 159.5 289.5 159.5
C 290.6 159.5 291.7 160.2 292.1 161.3
C 292.5 162.4 292.2 163.6 291.3 164.4
"/>
<path style="fill:none;stroke:#000000;stroke-width:1.07;"
clip-path="url(#cp2)" d="
M 286.7 164.4
L 295.1 164.4
"/>
<path style="fill:none;stroke:#000000;stroke-width:1.07;"
clip-path="url(#cp2)" d="
M 292.3 149.4
L 283.7 149.4
"/>
<path style="fill:none;stroke:#000000;stroke-width:1.07;"
clip-path="url(#cp2)" d="
M 292.3 146.3
L 286.7 146.3
"/>
<path style="fill:none;stroke:#000000;stroke-width:1.07;"
clip-path="url(#cp2)" d="
M 284.0 146.6
C 284.1 146.6 284.3 146.5 284.3 146.3
C 284.3 146.2 284.1 146.1 284.0 146.1
C 283.8 146.1 283.7 146.2 283.7 146.3
C 283.7 146.5 283.8 146.6 284.0 146.6
"/>
<path style="fill:none;stroke:#000000;stroke-width:1.07;"
clip-path="url(#cp2)" d="
M 292.3 143.7
L 286.7 143.7
"/>
<path style="fill:none;stroke:#000000;stroke-width:1.07;"
clip-path="url(#cp2)" d="
M 289.1 143.7
C 287.7 143.7 286.7 142.6 286.7 141.3
C 286.7 139.9 287.7 138.9 289.1 138.9
L 292.3 138.9
"/>
<path style="fill:none;stroke:#000000;stroke-width:1.07;"
clip-path="url(#cp2)" d="
M 289.5 136.4
L 289.5 131.6
L 289.1 131.6
C 287.7 131.6 286.7 132.7 286.7 134.0
C 286.7 135.4 287.7 136.4 289.1 136.4
L 289.9 136.4
C 291.2 136.4 292.3 135.4 292.3 134.0
C 292.3 133.2 292.0 132.3 291.5 131.6
"/>
<path style="fill:none;stroke:#000000;stroke-width:1.07;"
clip-path="url(#cp2)" d="
M 364.3 178.8
L 355.7 178.8
"/>
<path style="fill:none;stroke:#000000;stroke-width:1.07;"
clip-path="url(#cp2)" d="
M 361.1 178.8
C 359.7 178.8 358.7 177.7 358.7 176.4
C 358.7 175.1 359.7 174.0 361.1 174.0
L 364.3 174.0
"/>
<path style="fill:none;stroke:#000000;stroke-width:1.07;"
clip-path="url(#cp2)" d="
M 359.6 166.8
C 358.7 167.5 358.4 168.8 358.9 169.9
C 359.3 170.9 360.3 171.6 361.5 171.6
C 362.6 171.6 363.7 170.9 364.1 169.9
C 364.5 168.8 364.2 167.5 363.3 166.8
"/>
<path style="fill:none;stroke:#000000;stroke-width:1.07;"
clip-path="url(#cp2)" d="
M 358.7 166.8
L 364.3 166.8
"/>
<path style="fill:none;stroke:#000000;stroke-width:1.07;"
clip-path="url(#cp2)" d="
M 364.3 164.0
L 355.7 164.0
"/>
<path style="fill:none;stroke:#000000;stroke-width:1.07;"
clip-path="url(#cp2)" d="
M 356.3 157.2
C 355.7 157.6 355.6 158.4 355.9 159.0
C 356.2 159.6 356.9 160.0 357.6 159.8
L 364.3 159.8
"/>
<path style="fill:none;stroke:#000000;stroke-width:1.07;"
clip-path="url(#cp2)" d="
M 358.7 161.2
L 358.7 158.0
"/>
<path style="fill:none;stroke:#000000;stroke-width:1.07;"
clip-path="url(#cp2)" d="
M 364.3 146.9
L 355.7 146.9
"/>
<path style="fill:none;stroke:#000000;stroke-width:1.07;"
clip-path="url(#cp2)" d="
M 364.3 143.8
L 358.7 143.8
"/>
<path style="fill:none;stroke:#000000;stroke-width:1.07;"
clip-path="url(#cp2)" d="
M 356.0 144.1
C 356.1 144.1 356.3 143.9 356.3 143.8
C 356.3 143.6 356.1 143.5 356.0 143.5
C 355.8 143.5 355.7 143.6 355.7 143.8
C 355.7 143.9 355.8 144.1 356.0 144.1
"/>
<path style="fill:none;stroke:#000000;stroke-width:1.07;"
clip-path="url(#cp2)" d="
M 364.3 141.1
L 358.7 141.1
"/>
<path style="fill:none;stroke:#000000;stroke-width:1.07;"
clip-path="url(#cp2)" d="
M 361.1 141.1
C 359.7 141.1 358.7 140.0 358.7 138.7
C 358.7 137.4 359.7 136.3 361.1 136.3
L 364.3 136.3
"/>
<path style="fill:none;stroke:#000000;stroke-width:1.07;"
clip-path="url(#cp2)" d="
M 361.5 133.9
L 361.5 129.1
L 361.1 129.1
C 359.7 129.1 358.7 130.2 358.7 131.5
C 358.7 132.8 359.7 133.9 361.1 133.9
L 361.9 133.9
C 363.2 133.9 364.3 132.8 364.3 131.5
C 364.3 130.6 364.0 129.8 363.5 129.1
"/>
<path style="fill:none;stroke:#000000;stroke-width:1.07;"
clip-path="url(#cp2)" d="
M 431.6 178.8
C 430.7 178.0 430.4 176.8 430.9 175.7
C 431.3 174.6 432.3 173.9 433.5 173.9
C 434.6 173.9 435.7 174.6 436.1 175.7
C 436.5 176.8 436.2 178.0 435.3 178.8
"/>
<path style="fill:none;stroke:#000000;stroke-width:1.07;"
clip-path="url(#cp2)" d="
M 427.7 178.8
L 436.3 178.8
"/>
<path style="fill:none;stroke:#000000;stroke-width:1.07;"
clip-path="url(#cp2)" d="
M 431.6 166.8
C 430.7 167.5 430.4 168.8 430.9 169.9
C 431.3 170.9 432.3 171.6 433.5 171.6
C 434.6 171.6 435.7 170.9 436.1 169.9
C 436.5 168.8 436.2 167.5 435.3 166.8
"/>
<path style="fill:none;stroke:#000000;stroke-width:1.07;"
clip-path="url(#cp2)" d="
M 430.7 166.8
L 436.3 166.8
"/>
<path style="fill:none;stroke:#000000;stroke-width:1.07;"
clip-path="url(#cp2)" d="
M 431.7 159.8
C 430.5 160.8 430.3 162.6 431.2 163.8
C 431.6 164.5 432.5 164.5 432.9 163.8
C 433.3 163.3 433.4 162.6 433.5 162.0
C 433.5 161.3 433.7 160.7 434.0 160.1
C 434.4 159.5 435.3 159.5 435.7 160.1
C 436.6 161.5 436.4 163.3 435.2 164.4
"/>
<path style="fill:none;stroke:#000000;stroke-width:1.07;"
clip-path="url(#cp2)" d="
M 433.5 157.2
L 433.5 152.3
L 433.1 152.3
C 431.7 152.3 430.7 153.4 430.7 154.8
C 430.7 156.1 431.7 157.2 433.1 157.2
L 433.9 157.2
C 435.2 157.2 436.3 156.1 436.3 154.8
C 436.3 153.9 436.0 153.0 435.5 152.3
"/>
<path style="fill:none;stroke:#000000;stroke-width:1.07;"
clip-path="url(#cp2)" d="
M 436.3 142.2
L 427.7 142.2
"/>
<path style="fill:none;stroke:#000000;stroke-width:1.07;"
clip-path="url(#cp2)" d="
M 436.3 139.1
L 430.7 139.1
"/>
<path style="fill:none;stroke:#000000;stroke-width:1.07;"
clip-path="url(#cp2)" d="
M 428.0 139.4
C 428.1 139.4 428.3 139.3 428.3 139.1
C 428.3 139.0 428.1 138.9 428.0 138.9
C 427.8 138.9 427.7 139.0 427.7 139.1
C 427.7 139.3 427.8 139.4 428.0 139.4
"/>
<path style="fill:none;stroke:#000000;stroke-width:1.07;"
clip-path="url(#cp2)" d="
M 436.3 136.4
L 430.7 136.4
"/>
<path style="fill:none;stroke:#000000;stroke-width:1.07;"
clip-path="url(#cp2)" d="
M 433.1 136.4
C 431.7 136.4 430.7 135.4 430.7 134.0
C 430.7 132.7 431.7 131.6 433.1 131.6
L 436.3 131.6
"/>
<path style="fill:none;stroke:#000000;stroke-width:1.07;"
clip-path="url(#cp2)" d="
M 433.5 129.2
L 433.5 124.4
L 433.1 124.4
C 431.7 124.4 430.7 125.5 430.7 126.8
C 430.7 128.2 431.7 129.2 433.1 129.2
L 433.9 129.2
C 435.2 129.2 436.3 128.2 436.3 126.8
C 436.3 126.0 436.0 125.1 435.5 124.4
"/>
<path style="fill:none;stroke:#000000;stroke-width:1.07;"
clip-path="url(#cp2)" d="
M 479.1 178.8
C 478.3 178.0 478.0 176.8 478.4 175.7
C 478.8 174.6 479.8 173.9 481.0 173.9
C 482.1 173.9 483.2 174.6 483.6 175.7
C 484.0 176.8 483.7 178.0 482.9 178.8
"/>
<path style="fill:none;stroke:#000000;stroke-width:1.07;"
clip-path="url(#cp2)" d="
M 475.2 178.8
L 483.8 178.8
"/>
<path style="fill:none;stroke:#000000;stroke-width:1.07;"
clip-path="url(#cp2)" d="
M 480.6 171.6
C 479.3 171.6 478.2 170.5 478.2 169.2
C 478.2 167.9 479.3 166.8 480.6 166.8
L 481.4 166.8
C 482.7 166.8 483.8 167.9 483.8 169.2
C 483.8 170.5 482.7 171.6 481.4 171.6
L 480.6 171.6
"/>
<path style="fill:none;stroke:#000000;stroke-width:1.07;"
clip-path="url(#cp2)" d="
M 475.2 162.8
L 483.8 162.8
"/>
<path style="fill:none;stroke:#000000;stroke-width:1.07;"
clip-path="url(#cp2)" d="
M 478.2 164.4
L 478.2 161.2
"/>
<path style="fill:none;stroke:#000000;stroke-width:1.07;"
clip-path="url(#cp2)" d="
M 475.2 157.0
L 483.8 157.0
"/>
<path style="fill:none;stroke:#000000;stroke-width:1.07;"
clip-path="url(#cp2)" d="
M 478.2 158.6
L 478.2 155.4
"/>
<path style="fill:none;stroke:#000000;stroke-width:1.07;"
clip-path="url(#cp2)" d="
M 480.6 152.9
C 479.3 152.9 478.2 151.8 478.2 150.5
C 478.2 149.1 479.3 148.1 480.6 148.1
L 481.4 148.1
C 482.7 148.1 483.8 149.1 483.8 150.5
C 483.8 151.8 482.7 152.9 481.4 152.9
L 480.6 152.9
"/>
<path style="fill:none;stroke:#000000;stroke-width:1.07;"
clip-path="url(#cp2)" d="
M 483.8 145.7
L 478.2 145.7
"/>
<path style="fill:none;stroke:#000000;stroke-width:1.07;"
clip-path="url(#cp2)" d="
M 480.1 145.7
C 479.0 145.7 478.2 144.8 478.2 143.8
C 478.2 142.8 479.0 141.9 480.1 141.9
L 483.8 141.9
"/>
<path style="fill:none;stroke:#000000;stroke-width:1.07;"
clip-path="url(#cp2)" d="
M 480.1 141.9
C 479.0 141.9 478.2 141.1 478.2 140.1
C 478.2 139.0 479.0 138.2 480.1 138.2
L 483.8 138.2
"/>
<path style="fill:none;stroke:#000000;stroke-width:1.07;"
clip-path="url(#cp2)" d="
M 483.8 128.0
L 475.2 128.0
"/>
<path style="fill:none;stroke:#000000;stroke-width:1.07;"
clip-path="url(#cp2)" d="
M 483.8 125.0
L 478.2 125.0
"/>
<path style="fill:none;stroke:#000000;stroke-width:1.07;"
clip-path="url(#cp2)" d="
M 475.5 125.2
C 475.7 125.2 475.8 125.1 475.8 125.0
C 475.8 124.8 475.7 124.7 475.5 124.7
C 475.4 124.7 475.2 124.8 475.2 125.0
C 475.2 125.1 475.4 125.2 475.5 125.2
"/>
<path style="fill:none;stroke:#000000;stroke-width:1.07;"
clip-path="url(#cp2)" d="
M 483.8 122.3
L 478.2 122.3
"/>
<path style="fill:none;stroke:#000000;stroke-width:1.07;"
clip-path="url(#cp2)" d="
M 480.6 122.3
C 479.3 122.3 478.2 121.2 478.2 119.9
C 478.2 118.6 479.3 117.5 480.6 117.5
L 483.8 117.5
"/>
<path style="fill:none;stroke:#000000;stroke-width:1.07;"
clip-path="url(#cp2)" d="
M 481.0 115.1
L 481.0 110.3
L 480.6 110.3
C 479.3 110.3 478.2 111.3 478.2 112.7
C 478.2 114.0 479.3 115.1 480.6 115.1
L 481.4 115.1
C 482.7 115.1 483.8 114.0 483.8 112.7
C 483.8 111.8 483.5 110.9 483.0 110.3
"/>
<path style="fill:none;stroke:#000000;stroke-width:1.07;"
clip-path="url(#cp2)" d="
M 489.3 321.0
L 480.7 321.0
"/>
<path style="fill:none;stroke:#000000;stroke-width:1.07;"
clip-path="url(#cp2)" d="
M 486.5 318.2
L 486.5 313.3
L 486.1 313.3
C 484.7 313.3 483.7 314.4 483.7 315.7
C 483.7 317.1 484.7 318.2 486.1 318.2
L 486.9 318.2
C 488.2 318.2 489.3 317.1 489.3 315.7
C 489.3 314.9 489.0 314.0 488.5 313.3
"/>
<path style="fill:none;stroke:#000000;stroke-width:1.07;"
clip-path="url(#cp2)" d="
M 481.3 306.9
C 480.7 307.4 480.6 308.1 480.9 308.8
C 481.2 309.4 481.9 309.7 482.6 309.6
L 489.3 309.6
"/>
<path style="fill:none;stroke:#000000;stroke-width:1.07;"
clip-path="url(#cp2)" d="
M 483.7 310.9
L 483.7 307.7
"/>
<path style="fill:none;stroke:#000000;stroke-width:1.07;"
clip-path="url(#cp2)" d="
M 480.7 302.8
L 489.3 302.8
"/>
<path style="fill:none;stroke:#000000;stroke-width:1.07;"
clip-path="url(#cp2)" d="
M 483.7 304.4
L 483.7 301.2
"/>
<path style="fill:none;stroke:#000000;stroke-width:1.07;"
clip-path="url(#cp2)" d="
M 484.6 254.6
C 483.7 255.4 483.4 256.6 483.9 257.7
C 484.3 258.8 485.3 259.5 486.5 259.5
C 487.6 259.5 488.7 258.8 489.1 257.7
C 489.5 256.6 489.2 255.4 488.3 254.6
"/>
<path style="fill:none;stroke:#000000;stroke-width:1.07;"
clip-path="url(#cp2)" d="
M 486.5 252.2
L 486.5 247.4
L 486.1 247.4
C 484.7 247.4 483.7 248.5 483.7 249.8
C 483.7 251.1 484.7 252.2 486.1 252.2
L 486.9 252.2
C 488.2 252.2 489.3 251.1 489.3 249.8
C 489.3 248.9 489.0 248.1 488.5 247.4
"/>
<path style="fill:none;stroke:#000000;stroke-width:1.07;"
clip-path="url(#cp2)" d="
M 489.3 245.0
L 483.7 245.0
"/>
<path style="fill:none;stroke:#000000;stroke-width:1.07;"
clip-path="url(#cp2)" d="
M 486.1 245.0
C 484.7 245.0 483.7 243.9 483.7 242.6
C 483.7 241.3 484.7 240.2 486.1 240.2
L 489.3 240.2
"/>
<path style="fill:none;stroke:#000000;stroke-width:1.07;"
clip-path="url(#cp2)" d="
M 480.7 236.2
L 489.3 236.2
"/>
<path style="fill:none;stroke:#000000;stroke-width:1.07;"
clip-path="url(#cp2)" d="
M 483.7 237.8
L 483.7 234.6
"/>
<path style="fill:none;stroke:#000000;stroke-width:1.07;"
clip-path="url(#cp2)" d="
M 486.5 232.1
L 486.5 227.2
L 486.1 227.2
C 484.7 227.2 483.7 228.3 483.7 229.6
C 483.7 231.0 484.7 232.1 486.1 232.1
L 486.9 232.1
C 488.2 232.1 489.3 231.0 489.3 229.6
C 489.3 228.8 489.0 227.9 488.5 227.2
"/>
<path style="fill:none;stroke:#000000;stroke-width:1.07;"
clip-path="url(#cp2)" d="
M 483.7 224.8
L 489.3 224.8
"/>
<path style="fill:none;stroke:#000000;stroke-width:1.07;"
clip-path="url(#cp2)" d="
M 485.3 224.8
C 484.3 224.4 483.7 223.5 483.6 222.5
C 483.6 221.5 484.1 220.5 485.0 220.0
"/>
<path style="fill:none;stroke:#000000;stroke-width:1.07;"
clip-path="url(#cp2)" d="
M 483.7 197.5
L 489.3 197.5
"/>
<path style="fill:none;stroke:#000000;stroke-width:1.07;"
clip-path="url(#cp2)" d="
M 485.3 197.5
C 484.3 197.1 483.7 196.2 483.6 195.2
C 483.6 194.2 484.1 193.2 485.0 192.7
"/>
<path style="fill:none;stroke:#000000;stroke-width:1.07;"
clip-path="url(#cp2)" d="
M 489.3 190.0
L 483.7 190.0
"/>
<path style="fill:none;stroke:#000000;stroke-width:1.07;"
clip-path="url(#cp2)" d="
M 481.0 190.3
C 481.1 190.3 481.3 190.2 481.3 190.0
C 481.3 189.9 481.1 189.8 481.0 189.8
C 480.8 189.8 480.7 189.9 480.7 190.0
C 480.7 190.2 480.8 190.3 481.0 190.3
"/>
<path style="fill:none;stroke:#000000;stroke-width:1.07;"
clip-path="url(#cp2)" d="
M 484.6 182.6
C 483.7 183.3 483.4 184.6 483.9 185.6
C 484.3 186.7 485.3 187.4 486.5 187.4
C 487.6 187.4 488.7 186.7 489.1 185.6
C 489.5 184.6 489.2 183.3 488.3 182.6
"/>
<path style="fill:none;stroke:#000000;stroke-width:1.07;"
clip-path="url(#cp2)" d="
M 483.7 182.6
L 489.7 182.6
C 490.7 182.5 491.7 183.1 492.0 184.1
C 492.2 185.1 491.8 186.2 490.9 186.7
"/>
<path style="fill:none;stroke:#000000;stroke-width:1.07;"
clip-path="url(#cp2)" d="
M 489.3 180.2
L 480.7 180.2
"/>
<path style="fill:none;stroke:#000000;stroke-width:1.07;"
clip-path="url(#cp2)" d="
M 486.1 180.2
C 484.7 180.2 483.7 179.1 483.7 177.7
C 483.7 176.4 484.7 175.3 486.1 175.3
L 489.3 175.3
"/>
<path style="fill:none;stroke:#000000;stroke-width:1.07;"
clip-path="url(#cp2)" d="
M 480.7 171.3
L 489.3 171.3
"/>
<path style="fill:none;stroke:#000000;stroke-width:1.07;"
clip-path="url(#cp2)" d="
M 483.7 172.9
L 483.7 169.7
"/>
<path style="fill:none;stroke:#000000;stroke-width:3.24;"
clip-path="url(#cp2)" d="
M 288.0 426.1
L 432.0 426.1
"/>
<path style="fill:none;stroke:#000000;stroke-width:3.24;"
clip-path="url(#cp2)" d="
M 288.0 322.6
L 384.8 426.1
"/>
<path style="fill:none;stroke:#000000;stroke-width:3.24;"
clip-path="url(#cp2)" d="
M 346.5 383.4
L 432.0 322.6
"/>
<path style="fill:none;stroke:#000000;stroke-width:3.24;"
clip-path="url(#cp2)" d="
M 353.2 282.1
C 338.8 269.1 333.8 248.5 340.8 230.3
C 347.8 212.1 365.3 200.1 384.8 200.1
C 404.2 200.1 421.7 212.1 428.7 230.3
C 435.7 248.5 430.7 269.1 416.2 282.1
"/>
<path style="fill:none;stroke:#000000;stroke-width:3.24;"
clip-path="url(#cp2)" d="
M 337.5 282.1
L 479.2 282.1
"/>
</g><!-- page 1 -->
</g><!-- EOF -->
</svg>
