<?xml version="1.0" standalone="no"?>
<!DOCTYPE svg PUBLIC "-//W3C//DTD SVG 1.1//EN"
"http://www.w3.org/Graphics/SVG/1.1/DTD/svg11.dtd">
<svg width="7.56in" height="5.76in" viewbox="0 0 756 576"
    xmlns="http://www.w3.org/2000/svg" version="1.1">
<title>
plots/ni.plt
</title>
<desc>
Creator: BTNRH PLT
Date: Sun Aug  2 06:51:18 2026
</desc>
<g style="stroke-linecap:round;stroke-linejoin:round">
<g id="page 1">
<clipPath id="cp1"> <path d="
M 0.0 0.0 0.0 576.0 756.0 576.0 756.0 0.0"/> </clipPath>
<path style="stroke:none;fill:#FFFFFF;" d="
M 0.0 0.0L 0.0 576.0L 756.0 576.0L 756.0 0.0"/>
<path style="fill:none;stroke:#000000;stroke-width:8.10;"
clip-path="url(#cp1)" d="
M 153.1 324.0
L 153.1 259.2
L 199.7 324.0
L 199.7 259.2
"/>
<path style="fill:none;stroke:#000000;stroke-width:8.10;"
clip-path="url(#cp1)" d="
M 217.9 291.6
L 264.5 291.6
"/>
<path style="fill:none;stroke:#000000;stroke-width:8.10;"
clip-path="url(#cp1)" d="
M 282.7 259.2
L 294.9 259.2
"/>
<path style="fill:none;stroke:#000000;stroke-width:8.10;"
clip-path="url(#cp1)" d="
M 288.8 259.2
L 288.8 324.0
"/>
<path style="fill:none;stroke:#000000;stroke-width:8.10;"
clip-path="url(#cp1)" d="
M 282.7 324.0
L 294.9 324.0
"/>
<path style="fill:none;stroke:#000000;stroke-width:8.10;"
clip-path="url(#cp1)" d="
M 153.1 396.0
L 153.1 331.2
L 199.7 396.0
L 199.7 331.2
"/>
<path style="fill:none;stroke:#000000;stroke-width:8.64;"
clip-path="url(#cp1)" d="
M 216.9 363.6
L 242.8 363.6
"/>
<path style="fill:none;stroke:#000000;stroke-width:8.10;"
clip-path="url(#cp1)" d="
M 260.0 331.2
L 272.2 331.2
"/>
<path style="fill:none;stroke:#000000;stroke-width:8.10;"
clip-path="url(#cp1)" d="
M 266.1 331.2
L 266.1 396.0
"/>
<path style="fill:none;stroke:#000000;stroke-width:8.10;"
clip-path="url(#cp1)" d="
M 260.0 396.0
L 272.2 396.0
"/>
<path style="fill:none;stroke:#000000;stroke-width:2.16;"
clip-path="url(#cp1)" d="
M 72.0 36.0
L 72.0 468.0
"/>
<path style="fill:none;stroke:#000000;stroke-width:2.16;"
clip-path="url(#cp1)" d="
M 72.0 468.0
L 504.0 468.0
"/>
<path style="fill:none;stroke:#000000;stroke-width:2.16;"
clip-path="url(#cp1)" d="
M 72.0 36.0
L 61.2 36.0
"/>
<path style="fill:none;stroke:#000000;stroke-width:2.16;"
clip-path="url(#cp1)" d="
M 72.0 122.4
L 61.2 122.4
"/>
<path style="fill:none;stroke:#000000;stroke-width:2.16;"
clip-path="url(#cp1)" d="
M 72.0 208.8
L 61.2 208.8
"/>
<path style="fill:none;stroke:#000000;stroke-width:2.16;"
clip-path="url(#cp1)" d="
M 72.0 295.2
L 61.2 295.2
"/>
<path style="fill:none;stroke:#000000;stroke-width:2.16;"
clip-path="url(#cp1)" d="
M 72.0 381.6
L 61.2 381.6
"/>
<path style="fill:none;stroke:#000000;stroke-width:2.16;"
clip-path="url(#cp1)" d="
M 72.0 468.0
L 61.2 468.0
"/>
<path style="fill:none;stroke:#000000;stroke-width:2.16;"
clip-path="url(#cp1)" d="
M 72.0 468.0
L 72.0 478.8
"/>
<path style="fill:none;stroke:#000000;stroke-width:2.16;"
clip-path="url(#cp1)" d="
M 158.4 468.0
L 158.4 478.8
"/>
<path style="fill:none;stroke:#000000;stroke-width:2.16;"
clip-path="url(#cp1)" d="
M 244.8 468.0
L 244.8 478.8
"/>
<path style="fill:none;stroke:#000000;stroke-width:2.16;"
clip-path="url(#cp1)" d="
M 331.2 468.0
L 331.2 478.8
"/>
<path style="fill:none;stroke:#000000;stroke-width:2.16;"
clip-path="url(#cp1)" d="
M 417.6 468.0
L 417.6 478.8
"/>
<path style="fill:none;stroke:#000000;stroke-width:2.16;"
clip-path="url(#cp1)" d="
M 504.0 468.0
L 504.0 478.8
"/>
<path style="fill:none;stroke:#000000;stroke-width:1.35;"
clip-path="url(#cp1)" d="
M 69.5 487.7
C 69.7 486.5 70.8 485.7 72.0 485.7
C 73.2 485.7 74.3 486.5 74.5 487.7
C 75.2 489.9 75.2 492.3 74.5 494.5
C 74.2 495.7 73.2 496.5 72.0 496.5
C 70.8 496.5 69.8 495.7 69.5 494.5
C 68.8 492.3 68.8 489.9 69.5 487.7
"/>
<path style="fill:none;stroke:#000000;stroke-width:1.35;"
clip-path="url(#cp1)" d="
M 155.4 488.8
C 155.4 487.1 156.7 485.7 158.4 485.7
C 160.1 485.7 161.4 487.1 161.4 488.8
C 161.4 489.6 160.9 490.4 160.1 490.8
L 158.4 491.8
C 156.6 492.7 155.5 494.5 155.4 496.5
L 161.4 496.5
"/>
<path style="fill:none;stroke:#000000;stroke-width:1.35;"
clip-path="url(#cp1)" d="
M 246.8 496.5
L 246.8 485.7
L 241.8 493.1
L 248.0 493.1
"/>
<path style="fill:none;stroke:#000000;stroke-width:1.35;"
clip-path="url(#cp1)" d="
M 333.6 487.1
C 333.1 486.2 332.1 485.7 331.1 485.8
C 330.1 485.8 329.2 486.5 328.8 487.4
C 328.2 489.4 328.0 491.4 328.2 493.5
C 328.2 495.2 329.5 496.5 331.2 496.5
C 332.9 496.5 334.2 495.2 334.2 493.5
C 334.2 491.8 332.9 490.4 331.2 490.4
C 329.5 490.4 328.2 491.8 328.2 493.5
"/>
<path style="fill:none;stroke:#000000;stroke-width:1.35;"
clip-path="url(#cp1)" d="
M 417.6 490.4
C 415.9 490.4 414.6 491.8 414.6 493.5
C 414.6 495.2 415.9 496.5 417.6 496.5
C 419.3 496.5 420.6 495.2 420.6 493.5
C 420.6 491.8 419.3 490.4 417.6 490.4
C 418.9 490.4 420.0 489.4 420.0 488.1
C 420.0 486.8 418.9 485.7 417.6 485.7
C 416.3 485.7 415.2 486.8 415.2 488.1
C 415.2 489.4 416.3 490.4 417.6 490.4
"/>
<path style="fill:none;stroke:#000000;stroke-width:1.35;"
clip-path="url(#cp1)" d="
M 498.4 496.5
L 500.5 496.5
"/>
<path style="fill:none;stroke:#000000;stroke-width:1.35;"
clip-path="url(#cp1)" d="
M 499.4 496.5
L 499.4 485.7
L 498.4 487.7
"/>
<path style="fill:none;stroke:#000000;stroke-width:1.35;"
clip-path="url(#cp1)" d="
M 506.0 487.7
C 506.3 486.5 507.3 485.7 508.6 485.7
C 509.8 485.7 510.8 486.5 511.1 487.7
C 511.7 489.9 511.7 492.3 511.1 494.5
C 510.8 495.7 509.8 496.5 508.6 496.5
C 507.4 496.5 506.3 495.7 506.0 494.5
C 505.4 492.3 505.4 489.9 506.0 487.7
"/>
<path style="fill:none;stroke:#000000;stroke-width:1.35;"
clip-path="url(#cp1)" d="
M 48.7 464.6
C 49.0 463.4 50.0 462.6 51.2 462.6
C 52.5 462.6 53.5 463.4 53.8 464.6
C 54.4 466.8 54.4 469.2 53.8 471.4
C 53.5 472.5 52.4 473.4 51.2 473.4
C 50.0 473.4 49.0 472.5 48.7 471.4
C 48.1 469.2 48.1 466.8 48.7 464.6
"/>
<path style="fill:none;stroke:#000000;stroke-width:1.35;"
clip-path="url(#cp1)" d="
M 48.2 379.2
C 48.2 377.6 49.6 376.2 51.2 376.2
C 52.9 376.2 54.3 377.6 54.3 379.2
C 54.2 380.1 53.7 380.9 52.9 381.3
L 51.2 382.3
C 49.5 383.2 48.3 385.0 48.2 387.0
L 54.3 387.0
"/>
<path style="fill:none;stroke:#000000;stroke-width:1.35;"
clip-path="url(#cp1)" d="
M 53.3 300.6
L 53.3 289.8
L 48.2 297.2
L 54.4 297.2
"/>
<path style="fill:none;stroke:#000000;stroke-width:1.35;"
clip-path="url(#cp1)" d="
M 53.6 204.7
C 53.1 203.9 52.1 203.4 51.1 203.4
C 50.1 203.5 49.3 204.2 48.9 205.1
C 48.2 207.0 48.0 209.1 48.2 211.2
C 48.2 212.8 49.6 214.2 51.2 214.2
C 52.9 214.2 54.3 212.8 54.3 211.2
C 54.3 209.5 52.9 208.1 51.2 208.1
C 49.6 208.1 48.2 209.5 48.2 211.2
"/>
<path style="fill:none;stroke:#000000;stroke-width:1.35;"
clip-path="url(#cp1)" d="
M 51.2 121.7
C 49.6 121.7 48.2 123.1 48.2 124.8
C 48.2 126.4 49.6 127.8 51.2 127.8
C 52.9 127.8 54.3 126.4 54.3 124.8
C 54.3 123.1 52.9 121.7 51.2 121.7
C 52.5 121.7 53.6 120.7 53.6 119.4
C 53.6 118.1 52.5 117.0 51.2 117.0
C 49.9 117.0 48.9 118.1 48.9 119.4
C 48.9 120.7 49.9 121.7 51.2 121.7
"/>
<path style="fill:none;stroke:#000000;stroke-width:1.35;"
clip-path="url(#cp1)" d="
M 41.1 41.4
L 43.1 41.4
"/>
<path style="fill:none;stroke:#000000;stroke-width:1.35;"
clip-path="url(#cp1)" d="
M 42.1 41.4
L 42.1 30.6
L 41.1 32.6
"/>
<path style="fill:none;stroke:#000000;stroke-width:1.35;"
clip-path="url(#cp1)" d="
M 48.7 32.6
C 49.0 31.4 50.0 30.6 51.2 30.6
C 52.5 30.6 53.5 31.4 53.8 32.6
C 54.4 34.8 54.4 37.2 53.8 39.4
C 53.5 40.5 52.4 41.4 51.2 41.4
C 50.0 41.4 49.0 40.5 48.7 39.4
C 48.1 37.2 48.1 34.8 48.7 32.6
"/>
</g><!-- page 1 -->
</g><!-- EOF -->
</svg>
